<svg width="20" height="18" viewBox="0 0 20 18" fill="none" xmlns="http://www.w3.org/2000/svg">
<path fill-rule="evenodd" clip-rule="evenodd" d="M1.25 10.25H16.0812L11.54 15.7C11.0975 16.23 11.17 17.0188 11.7 17.46C12.2312 17.9025 13.0187 17.83 13.4612 17.3L19.7112 9.8C19.76 9.74125 19.7837 9.6725 19.82 9.6075C19.85 9.555 19.8862 9.51 19.9087 9.4525C19.965 9.30875 19.9987 9.1575 19.9987 9.005C19.9987 9.00375 20 9.00125 20 9C20 8.99875 19.9987 8.99625 19.9987 8.995C19.9987 8.8425 19.965 8.69125 19.9087 8.5475C19.8862 8.49 19.85 8.445 19.82 8.3925C19.7837 8.3275 19.76 8.25875 19.7112 8.2L13.4612 0.7C13.2125 0.40375 12.8575 0.25 12.5 0.25C12.2175 0.25 11.9337 0.345 11.7 0.54C11.17 0.98125 11.0975 1.77 11.54 2.3L16.0812 7.75H1.25C0.56 7.75 0 8.31 0 9C0 9.69 0.56 10.25 1.25 10.25Z" fill="#0051BA"/>
</svg>
