<svg width="20" height="20" viewBox="0 0 20 20" fill="none" xmlns="http://www.w3.org/2000/svg">
<path d="M12.6437 10L18.8125 3.83125C19.1687 3.49375 19.375 3.025 19.375 2.5C19.375 1.46875 18.5312 0.625 17.5 0.625C16.975 0.625 16.5063 0.83125 16.1687 1.16875L10 7.35625L3.83125 1.16875C3.49375 0.83125 3.025 0.625 2.5 0.625C1.46875 0.625 0.625 1.46875 0.625 2.5C0.625 3.025 0.83125 3.49375 1.16875 3.83125L7.35625 10L1.1875 16.1687C0.83125 16.5063 0.625 16.975 0.625 17.5C0.625 18.5312 1.46875 19.375 2.5 19.375C3.025 19.375 3.49375 19.1688 3.83125 18.8312L10 12.6437L16.1687 18.8125C16.5063 19.1687 16.975 19.375 17.5 19.375C18.5312 19.375 19.375 18.5312 19.375 17.5C19.375 16.975 19.1688 16.5063 18.8312 16.1687L12.6437 10Z" fill="#0048AD"/>
</svg>
