<?xml version="1.0" encoding="utf-8"?>
<!-- Generator: Adobe Illustrator 25.1.0, SVG Export Plug-In . SVG Version: 6.00 Build 0)  -->
<svg version="1.1" id="coming_soon" xmlns="http://www.w3.org/2000/svg" xmlns:xlink="http://www.w3.org/1999/xlink" x="0px"
	 y="0px" viewBox="0 0 111.6 42.2" style="enable-background:new 0 0 111.6 42.2;" xml:space="preserve">
<style type="text/css">
	.st0{opacity:0.89;fill:#FFC200;enable-background:new    ;}
	.st1{clip-path:url(#Path_8621_1_);fill:#FF8900;}
</style>
<g id="Group_2109" transform="translate(-7.616)">
	<path id="Path_8620" d="M12.8,42.2c-0.2,0-0.4-0.2-0.4-0.3L7.6,2.1c0-0.1,0-0.2,0.1-0.3C7.8,1.7,7.9,1.7,8,1.7l106.6,3
		c0.2,0,0.3,0.1,0.4,0.3l4.2,25.1c0,0.2-0.1,0.4-0.3,0.5c0,0,0,0,0,0L12.8,42.2L12.8,42.2z M8.5,2.5l4.7,38.9l105.2-11.6l-4.1-24.4
		L8.5,2.5z"/>
	<path id="Path_8622" class="st0" d="M13,0.4L8,40.2l106.3-6.5L113.1,0L13,0.4z"/>
	<g>
		<defs>
			<path id="Path_8621" d="M13,0.4L8,40.2l106.3-6.5L113.1,0L13,0.4z"/>
		</defs>
		<clipPath id="Path_8621_1_">
			<use xlink:href="#Path_8621"  style="overflow:visible;"/>
		</clipPath>
		<path id="Path_8620_1_" class="st1" d="M12.8,42.2c-0.2,0-0.4-0.2-0.4-0.3L7.6,2.1c0-0.1,0-0.2,0.1-0.3C7.8,1.7,7.9,1.7,8,1.7
			l106.6,3c0.2,0,0.3,0.1,0.4,0.3l4.2,25.1c0,0.2-0.1,0.4-0.3,0.5c0,0,0,0,0,0L12.8,42.2L12.8,42.2z M8.5,2.5l4.7,38.9l105.2-11.6
			l-4.1-24.4L8.5,2.5z"/>
	</g>
</g>
<g id="Group_2110" transform="translate(8.635 10.955)">
	<path id="Path_8623" d="M0,10V5.2C0,1.7,1.4,0,4.1,0c0.5,0,1,0.1,1.5,0.2c0.4,0.1,0.8,0.4,1.1,0.7c0.3,0.3,0.6,0.6,0.8,1
		c0.2,0.4,0.3,0.9,0.4,1.3C8,3.8,8.1,4.3,8.1,4.9v1.3H5.3V4.8c0-0.3,0-0.5,0-0.7c0-0.2,0-0.4-0.1-0.7C5.1,3.2,5.1,3,5,2.8
		C4.9,2.7,4.8,2.6,4.6,2.5C4.5,2.3,4.3,2.3,4.1,2.3C3.3,2.3,2.9,3,2.9,4.4v6.3c0,1.4,0.4,2.1,1.2,2.1c0.2,0,0.4-0.1,0.6-0.2
		c0.2-0.2,0.3-0.4,0.4-0.6c0.1-0.3,0.1-0.5,0.2-0.8c0-0.3,0-0.5,0-0.9V8.9h2.8v1.2c0,0.5-0.1,1-0.1,1.5c-0.1,0.5-0.2,0.9-0.4,1.4
		c-0.2,0.4-0.4,0.8-0.7,1.1c-0.3,0.3-0.7,0.6-1.1,0.7c-0.5,0.2-1,0.3-1.6,0.3c-0.6,0-1.1-0.1-1.6-0.3c-0.4-0.2-0.8-0.4-1.2-0.7
		C1,13.8,0.7,13.5,0.5,13c-0.2-0.4-0.3-0.9-0.4-1.4C0,11.1,0,10.6,0,10z"/>
	<path id="Path_8624" d="M9.2,10.1V5.2c0-3.4,1.4-5.2,4.1-5.2c2.8,0,4.1,1.7,4.1,5.2V10c0,0.5,0,1.1-0.1,1.6c-0.1,0.5-0.2,1-0.4,1.4
		c-0.2,0.4-0.4,0.8-0.8,1.1c-0.3,0.3-0.7,0.6-1.2,0.7c-1.1,0.4-2.2,0.4-3.3,0c-0.4-0.2-0.8-0.4-1.2-0.7c-0.3-0.3-0.6-0.7-0.8-1.1
		c-0.2-0.4-0.4-0.9-0.4-1.4C9.3,11.2,9.2,10.6,9.2,10.1z M14.6,10.8V4.5c0-1.4-0.4-2.2-1.3-2.2c-0.2,0-0.5,0.1-0.7,0.2
		c-0.2,0.1-0.3,0.3-0.4,0.5c-0.1,0.2-0.1,0.4-0.2,0.7c0,0.2-0.1,0.5-0.1,0.7v6.3c0,1.4,0.4,2.1,1.3,2.1
		C14.2,12.9,14.6,12.2,14.6,10.8z"/>
	<path id="Path_8625" d="M19,14.9V0.3h3.4l1.5,9.7l1.6-9.7h3.3v14.6h-2.1L26.7,4.6c-0.2,1.1-0.4,2.8-0.8,5.1s-0.7,4.1-0.8,5.1h-2.1
		L21.2,4.6l-0.1,10.3H19z"/>
	<path id="Path_8626" d="M30.6,14.9V0.3h2.9v14.6H30.6z"/>
	<path id="Path_8627" d="M35.1,14.9V0.3h2.1l3.1,7.6V0.3h2.4v14.6h-2l-3.1-8.1v8.1H35.1z"/>
	<path id="Path_8628" d="M44.1,10.3V5.2c0-3.4,1.4-5.2,4.2-5.2c0.5,0,1.1,0.1,1.6,0.2c0.4,0.1,0.8,0.4,1.2,0.7
		c0.3,0.3,0.6,0.6,0.8,1c0.2,0.4,0.3,0.9,0.4,1.3c0.1,0.5,0.1,1.1,0.1,1.6v0.9h-2.7v-1c0-0.3,0-0.5,0-0.7c0-0.2-0.1-0.4-0.1-0.6
		c0-0.2-0.1-0.4-0.2-0.6c-0.1-0.2-0.2-0.3-0.4-0.4c-0.2-0.1-0.4-0.2-0.6-0.2C47.4,2.3,47,3,47,4.4v6.3c0,1.4,0.4,2.1,1.3,2.1
		s1.3-0.7,1.3-2.2V9.5H48V7.4h4.5v7.5h-2l-0.4-1c-0.3,0.4-0.6,0.7-1,0.9c-0.4,0.2-0.9,0.4-1.4,0.4c-0.5,0-1-0.1-1.4-0.3
		c-0.4-0.2-0.7-0.4-1-0.8c-0.3-0.3-0.5-0.7-0.7-1.1c-0.2-0.4-0.3-0.9-0.4-1.3C44.2,11.2,44.1,10.8,44.1,10.3z"/>
	<path id="Path_8629" d="M56.8,10.7l2.9-0.6c0,0.3,0,0.6,0,0.8c0,0.2,0,0.5,0.1,0.7c0,0.2,0.1,0.4,0.2,0.7c0.1,0.2,0.2,0.3,0.3,0.4
		c0.1,0.1,0.3,0.2,0.5,0.2c0.6,0,0.8-0.4,0.8-1.1c-0.1-1.2-0.7-2.3-1.7-3L59.1,8c-0.3-0.2-0.5-0.4-0.7-0.6c-0.2-0.2-0.4-0.4-0.6-0.7
		c-0.2-0.2-0.4-0.5-0.5-0.8C57.1,5.6,57,5.3,56.9,5c-0.1-0.4-0.1-0.8-0.1-1.2c-0.1-1,0.3-2.1,1.1-2.8c0.8-0.7,1.8-1.1,2.9-1
		c1,0,1.9,0.4,2.6,1.1c0.7,0.7,1.1,1.7,1.1,2.7l0,0.1v0.2l-3,0.4c0-0.1,0-0.2,0-0.3c0-0.1,0-0.2,0-0.3c0-0.2,0-0.4,0-0.6
		c0-0.2-0.1-0.4-0.1-0.5c-0.1-0.2-0.1-0.3-0.3-0.4c-0.1-0.1-0.3-0.2-0.5-0.2c-0.3,0-0.6,0.1-0.7,0.4c-0.2,0.3-0.2,0.6-0.2,0.9
		c0,0.3,0,0.6,0.1,0.8c0.1,0.3,0.2,0.5,0.4,0.7c0.2,0.2,0.3,0.4,0.5,0.6C60.8,5.9,61,6,61.3,6.3c0.3,0.2,0.4,0.4,0.6,0.5
		c0.4,0.3,0.7,0.7,1,1c0.3,0.3,0.6,0.7,0.8,1.1c0.2,0.4,0.4,0.9,0.6,1.3c0.1,0.5,0.2,1,0.2,1.5c0,1-0.4,1.9-1.1,2.5
		c-0.7,0.6-1.6,1-2.6,1c-0.6,0-1.2-0.1-1.7-0.4c-0.5-0.2-0.9-0.6-1.2-1c-0.3-0.4-0.6-0.9-0.7-1.4C56.9,11.8,56.8,11.3,56.8,10.7z"/>
	<path id="Path_8630" d="M65.4,10.1V5.2c0-3.4,1.4-5.2,4.1-5.2c2.8,0,4.1,1.7,4.1,5.2V10c0,0.5,0,1.1-0.1,1.6
		c-0.1,0.5-0.2,1-0.4,1.4c-0.2,0.4-0.4,0.8-0.8,1.1c-0.3,0.3-0.7,0.6-1.2,0.7c-1.1,0.4-2.2,0.4-3.3,0c-0.4-0.2-0.8-0.4-1.2-0.7
		c-0.3-0.3-0.6-0.7-0.8-1.1c-0.2-0.4-0.3-0.9-0.4-1.4C65.4,11.2,65.4,10.6,65.4,10.1z M70.8,10.8V4.5c0-1.4-0.4-2.2-1.3-2.2
		c-0.2,0-0.5,0.1-0.7,0.2c-0.2,0.1-0.3,0.3-0.4,0.5c-0.1,0.2-0.1,0.4-0.2,0.7c0,0.2-0.1,0.5-0.1,0.7v6.3c0,1.4,0.4,2.1,1.3,2.1
		S70.8,12.2,70.8,10.8L70.8,10.8z"/>
	<path id="Path_8631" d="M75,10.1V5.2C75,1.7,76.3,0,79.1,0c2.8,0,4.1,1.7,4.1,5.2V10c0,0.5,0,1.1-0.1,1.6c-0.1,0.5-0.2,1-0.4,1.4
		c-0.2,0.4-0.4,0.8-0.8,1.1c-0.3,0.3-0.7,0.6-1.2,0.7c-1.1,0.4-2.2,0.4-3.3,0c-0.4-0.2-0.8-0.4-1.2-0.7c-0.3-0.3-0.6-0.7-0.8-1.1
		c-0.2-0.4-0.3-0.9-0.4-1.4C75,11.2,75,10.6,75,10.1z M80.4,10.8V4.5c0-1.4-0.4-2.2-1.3-2.2c-0.2,0-0.5,0.1-0.7,0.2
		C78.3,2.6,78.1,2.8,78,3c-0.1,0.2-0.1,0.4-0.2,0.7c0,0.2-0.1,0.5-0.1,0.7v6.3c0,1.4,0.4,2.1,1.3,2.1S80.4,12.2,80.4,10.8z"/>
	<path id="Path_8632" d="M84.7,14.9V0.3h2.1l3.1,7.6V0.3h2.4v14.6h-2l-3.1-8.1v8.1H84.7z"/>
</g>
</svg>
