<svg version="1.1" id="Layer_1" xmlns="http://www.w3.org/2000/svg" xmlns:xlink="http://www.w3.org/1999/xlink" x="0px" y="0px"
	 width="30px" height="30px" viewBox="0 0 144 144" enable-background="new 0 0 144 144" xml:space="preserve">
<path fill="#000000" stroke="none"
	d="
M14.921511,113.992249 
	C15.092926,99.348190 15.678047,85.191788 15.308023,71.060410 
	C14.951212,57.433617 15.798860,43.789608 14.606419,30.177904 
	C14.362367,27.392056 14.386680,24.548677 14.629478,21.761629 
	C15.068241,16.725166 19.362400,12.713938 24.142782,12.662106 
	C42.281616,12.465435 60.420670,12.153775 78.559700,12.149682 
	C95.689171,12.145817 112.818741,12.470752 129.948196,12.658514 
	C137.521622,12.741529 141.164734,16.421675 141.171738,24.149309 
	C141.191940,46.455490 141.179138,68.761734 141.150024,91.067909 
	C141.133514,103.716690 141.154572,116.366768 140.973068,129.013596 
	C140.876724,135.726761 137.814423,138.405014 130.980728,138.495316 
	C114.463158,138.713547 97.946419,139.139786 81.428841,139.165878 
	C68.312431,139.186615 55.195110,138.564285 42.078548,138.577408 
	C36.100506,138.583374 30.133121,139.041122 24.137882,138.605209 
	C17.817928,138.145691 15.332553,135.701538 15.259179,129.446289 
	C15.200696,124.460495 15.035373,119.475960 14.921511,113.992249 
M87.452934,119.196686 
	C87.313995,129.163147 87.898888,130.306824 95.497276,130.505661 
	C106.648628,130.797470 117.812782,130.626389 128.971359,130.598999 
	C132.289932,130.590866 133.700287,128.777802 133.612671,125.488098 
	C133.409592,117.862701 132.998184,110.224609 133.234268,102.609108 
	C134.018021,77.326736 133.261993,52.040478 133.691650,26.760843 
	C133.773178,21.964123 131.741333,20.231688 127.098618,20.332783 
	C114.001541,20.617971 100.899567,20.818335 87.799774,20.805256 
	C68.244812,20.785732 48.690205,20.522387 29.135122,20.435358 
	C23.730934,20.411306 22.249138,21.846178 22.405081,27.290497 
	C22.733519,38.756947 23.170988,50.216644 22.417532,61.681961 
	C22.179260,65.307716 23.869192,66.635292 27.525660,66.613510 
	C43.981678,66.515472 60.439747,66.544266 76.895401,66.701759 
	C84.219818,66.771858 87.171318,69.653786 87.299950,77.070129 
	C87.538811,90.841919 87.466019,104.619125 87.452934,119.196686 
M22.983656,102.039543 
	C22.934429,109.149635 22.626398,116.270065 22.910017,123.366852 
	C23.184189,130.227341 23.718071,130.552856 30.625326,130.581879 
	C44.073685,130.638336 57.522701,130.624466 70.971031,130.556702 
	C76.187523,130.530426 78.786919,127.889153 78.813683,122.426285 
	C78.875618,109.782623 78.845772,97.137566 78.722778,84.494339 
	C78.659508,77.990509 74.944824,74.478889 68.435616,74.454193 
	C64.455139,74.439087 60.474400,74.507187 56.493813,74.503143 
	C46.850536,74.493347 37.207214,74.435051 27.564053,74.457756 
	C24.518606,74.464928 22.557793,75.478615 22.699556,79.177414 
	C22.979712,86.487122 22.924139,93.809692 22.983656,102.039543 
z"/>
<path fill="#000000" stroke="none"
	d="
M92.031769,66.362228 
	C90.066460,66.732254 88.091736,67.610771 87.406258,65.384209 
	C86.709465,63.120903 86.991875,60.902180 88.923805,58.981964 
	C96.331589,51.619076 103.631973,44.148064 110.959183,36.704361 
	C111.397621,36.258953 111.720520,35.699810 112.346169,34.858967 
	C108.374847,32.769089 103.925270,34.375557 100.312988,32.371304 
	C99.859062,26.743773 100.665558,25.721167 105.889198,25.668827 
	C111.544968,25.612154 117.202866,25.730944 122.857803,25.642691 
	C126.618362,25.583998 128.389282,27.261906 128.340363,31.031347 
	C128.271332,36.350716 128.376556,41.673283 128.244965,46.990467 
	C128.189056,49.249424 127.311028,51.660564 124.818039,51.775028 
	C122.541885,51.879532 121.036583,50.038750 120.502037,47.649921 
	C119.218018,41.911789 118.496605,41.595589 114.069550,45.768078 
	C107.781723,51.694359 101.759796,57.902111 95.578087,63.942348 
	C94.648178,64.850983 93.467735,65.503212 92.031769,66.362228 
z"/>
</svg>