<svg width="18" height="18" viewBox="0 0 18 18" fill="none" xmlns="http://www.w3.org/2000/svg">
<path fill-rule="evenodd" clip-rule="evenodd" d="M14.25 13.5V9C14.25 8.586 14.5852 8.25 15 8.25C15.4148 8.25 15.75 8.586 15.75 9V13.5C15.75 14.7405 14.7405 15.75 13.5 15.75H4.5C3.2595 15.75 2.25 14.7405 2.25 13.5V4.5C2.25 3.2595 3.2595 2.25 4.5 2.25H9C9.41475 2.25 9.75 2.586 9.75 3C9.75 3.414 9.41475 3.75 9 3.75H4.5C4.086 3.75 3.75 4.08675 3.75 4.5V13.5C3.75 13.9132 4.086 14.25 4.5 14.25H13.5C13.914 14.25 14.25 13.9132 14.25 13.5ZM13.1836 3.756L11.9963 3.75C11.5816 3.74775 11.2478 3.41025 11.2501 2.99625C11.2523 2.583 11.5876 2.25 12.0001 2.25H12.0038L15.0016 2.265C15.4141 2.26725 15.7478 2.60175 15.7478 3.01425L15.7501 5.99925C15.7501 6.414 15.4148 6.75 15.0008 6.75H15.0001C14.5861 6.75 14.2501 6.41475 14.2501 6.00075L14.2493 4.81125L9.53032 9.53025C9.38408 9.6765 9.19207 9.75 9.00007 9.75C8.80807 9.75 8.61608 9.6765 8.46982 9.53025C8.17658 9.237 8.17658 8.763 8.46982 8.46975L13.1836 3.756Z" fill="#0051BA"/>
</svg>
