<svg width="20" height="20" viewBox="0 0 20 20" fill="none" xmlns="http://www.w3.org/2000/svg">
<path d="M11.7663 11.7654C11.5375 12.011 11.2615 12.208 10.9548 12.3447C10.6481 12.4813 10.3171 12.5548 9.98142 12.5607C9.64574 12.5666 9.31231 12.5049 9.00102 12.3791C8.68972 12.2534 8.40694 12.0662 8.16955 11.8288C7.93215 11.5914 7.745 11.3087 7.61926 10.9974C7.49353 10.6861 7.43178 10.3527 7.4377 10.017C7.44362 9.6813 7.5171 9.35026 7.65374 9.04359C7.79038 8.73693 7.98738 8.46093 8.23301 8.23205M14.9497 14.9487C13.5252 16.0346 11.7906 16.6361 9.99967 16.6654C4.16634 16.6654 0.833008 9.99872 0.833008 9.99872C1.86958 8.06696 3.30729 6.37922 5.04967 5.04872L14.9497 14.9487ZM8.24967 3.53205C8.82328 3.39778 9.41056 3.33067 9.99967 3.33205C15.833 3.33205 19.1663 9.99872 19.1663 9.99872C18.6605 10.9451 18.0572 11.836 17.3663 12.6571L8.24967 3.53205Z" stroke="#0051BA" stroke-width="1.5" stroke-linecap="round" stroke-linejoin="round"/>
<path d="M0.833008 0.832031L19.1663 19.1654" stroke="#0051BA" stroke-width="1.5" stroke-linecap="round" stroke-linejoin="round"/>
</svg>
