<svg width="32" height="31" viewBox="0 0 32 31" fill="none" xmlns="http://www.w3.org/2000/svg">
<path fill-rule="evenodd" clip-rule="evenodd" d="M16.0794 30.9167C24.5833 30.9167 31.4772 24.0228 31.4772 15.5189C31.4772 7.01492 24.5833 0.121094 16.0794 0.121094C7.57546 0.121094 0.681641 7.01492 0.681641 15.5189C0.681641 24.0228 7.57546 30.9167 16.0794 30.9167ZM17.1698 8.93037C17.2176 8.80183 19.7483 6.25822 19.8943 6.19196C20.0269 6.13176 20.2152 6.12638 20.3209 6.1798C20.433 6.23638 25.1418 10.9378 25.2045 11.0556C25.2701 11.1791 25.2706 11.3427 25.2057 11.4916C25.1409 11.6409 22.5999 14.1725 22.4647 14.2228C22.3197 14.2766 22.1654 14.2695 22.0319 14.2027C21.882 14.1277 17.3734 9.63709 17.2363 9.42623C17.1262 9.25675 17.1055 9.10315 17.1698 8.93037ZM11.1887 12.9527C11.2526 12.8886 12.303 12.3421 13.8787 11.553C15.3006 10.841 16.4722 10.2574 16.4821 10.2564C16.4922 10.2553 17.5456 11.2993 18.8232 12.5764L21.146 14.8983L19.8458 17.4974C19.0507 19.0868 18.5048 20.1372 18.4405 20.2012C18.3584 20.283 17.1548 20.7778 12.9404 22.4623L7.54557 24.6188L7.55307 24.6112L6.95588 24.8531L10.0148 21.6905L14.3836 19.9787C14.523 20.1761 14.7529 20.305 15.0129 20.305C15.4381 20.305 15.7828 19.9603 15.7828 19.5351C15.7828 19.1099 15.4381 18.7652 15.0129 18.7652C14.6441 18.7652 14.3358 19.0246 14.2606 19.3708L11.0162 20.642L12.9912 18.5728L12.9939 18.5699L14.7667 16.6641L16.9372 16.6479C17.0588 16.9129 17.3265 17.0971 17.6373 17.0971C18.0625 17.0971 18.4071 16.7524 18.4071 16.3271C18.4071 15.9019 18.0625 15.5573 17.6373 15.5573C17.3147 15.5573 17.0385 15.7556 16.9239 16.037L14.6304 16.0541L14.4988 16.055L14.4091 16.1515L13.0815 17.5787L13.103 14.683C13.2886 14.5424 13.4085 14.3196 13.4085 14.0688C13.4085 13.6436 13.0638 13.2989 12.6386 13.2989C12.2134 13.2989 11.8687 13.6436 11.8687 14.0688C11.8687 14.4435 12.1364 14.7556 12.491 14.8246L12.4656 18.2385L9.62187 21.218L9.62117 21.2188L6.57152 24.3718L6.79655 23.8152L6.7691 23.8427L8.92652 18.4502C10.6118 14.2378 11.1069 13.0347 11.1887 12.9527Z" fill="#0051BA"/>
</svg>
