<svg width="16" height="17" viewBox="0 0 16 17" fill="none" xmlns="http://www.w3.org/2000/svg">
<path d="M2.66699 3.16536V13.832C2.66699 14.1857 2.80747 14.5248 3.05752 14.7748C3.30756 15.0249 3.6467 15.1654 4.00033 15.1654H12.0003C12.3539 15.1654 12.6931 15.0249 12.9431 14.7748C13.1932 14.5248 13.3337 14.1857 13.3337 13.832V6.06003C13.3336 5.8824 13.2981 5.70657 13.2292 5.54286C13.1603 5.37915 13.0594 5.23086 12.9323 5.1067L9.97233 2.21203C9.72323 1.96847 9.38871 1.83207 9.04033 1.83203H4.00033C3.6467 1.83203 3.30756 1.97251 3.05752 2.22256C2.80747 2.4726 2.66699 2.81174 2.66699 3.16536V3.16536Z" stroke="black" stroke-linecap="round" stroke-linejoin="round"/>
<path d="M6 9.16406H10" stroke="black" stroke-linecap="round" stroke-linejoin="round"/>
<path d="M6 11.832H8" stroke="black" stroke-linecap="round" stroke-linejoin="round"/>
<path d="M9.33398 1.83203V4.4987C9.33398 4.85232 9.47446 5.19146 9.72451 5.44151C9.97456 5.69156 10.3137 5.83203 10.6673 5.83203H13.334" stroke="black" stroke-linejoin="round"/>
</svg>
