<svg width="85" height="33" viewBox="0 0 85 33" fill="none" xmlns="http://www.w3.org/2000/svg">
<mask id="mask0_3869_4963" style="mask-type:alpha" maskUnits="userSpaceOnUse" x="34" y="6" width="51" height="26">
<path d="M84.0638 6.09766H34.625V31.2507H84.0638V6.09766Z" fill="white"/>
<path d="M57.4453 18.1641C57.4453 22.0658 60.0426 24.7051 63.3984 24.7051C65.7198 24.7051 67.3517 23.5116 68.1102 22.1575V24.4986H70.2248V11.9214H68.1102V14.2164C67.3747 12.9082 65.7658 11.7148 63.4213 11.7148C60.0426 11.7148 57.4453 14.2394 57.4453 18.1641ZM68.1102 18.187C68.1102 21.1477 66.1335 22.869 63.8351 22.869C61.5366 22.869 59.5829 21.1248 59.5829 18.1641C59.5829 15.2034 61.5366 13.5279 63.8351 13.5279C66.1335 13.5279 68.1102 15.2722 68.1102 18.187Z" fill="black"/>
<path d="M74.1505 24.4995H76.2422V13.6436H78.8854V11.9223H76.2422V11.0272C76.2422 9.39766 76.8628 8.70912 78.7475 8.70912V6.96484C75.5296 6.96484 74.1505 8.22715 74.1505 11.0272V11.9223H72.5186V13.6436H74.1505V24.4995Z" fill="black"/>
<path d="M81.3428 24.4983H83.4662V13.4844H81.3428V24.4983Z" fill="black"/>
<path d="M48.9551 27.6363C48.9931 27.5229 49.0281 27.4078 49.06 27.2907C49.1004 27.1424 50.2058 24.3344 50.2363 24.1803C50.6218 22.5379 50.5163 19.3347 50.9941 17.2323C51.5559 14.7603 53.8878 13.9693 54.9478 13.7856C56.0078 13.6018 56.8243 14.0559 56.8243 14.0559V11.7923C54.7668 11.7923 51.9382 12.7178 51.2051 14.1652V11.0859L48.9551 12.4653V27.6363Z" fill="black"/>
<path fill-rule="evenodd" clip-rule="evenodd" d="M47.696 13.1551L46.4657 13.8638C45.7089 12.4638 44.0062 11.2773 41.6412 11.2773C38.1647 11.2773 35.4922 13.8875 35.4922 17.9452C35.4922 21.9791 38.1647 24.708 41.6412 24.708C44.0062 24.708 45.6852 23.4503 46.4657 22.0503V24.7791C46.4657 27.5554 44.7392 29.0266 42.4452 29.0266C40.3167 29.0266 38.7795 27.9588 38.3066 26.3927H36.178C36.6038 29.169 39.0396 30.9012 42.4452 30.9012C44.8335 30.9012 46.6635 29.9022 47.696 28.2733V13.1551ZM42.0669 22.8096C44.4318 22.8096 46.4657 21.03 46.4657 17.9689C46.4657 14.9553 44.4318 13.1519 42.0669 13.1519C39.7019 13.1519 37.6916 14.8841 37.6916 17.9452C37.6916 21.0062 39.7019 22.8096 42.0669 22.8096Z" fill="black"/>
</mask>
<g mask="url(#mask0_3869_4963)">
<path d="M57.4453 18.168C57.4453 22.0697 60.0426 24.709 63.3984 24.709C65.7198 24.709 67.3517 23.5155 68.1102 22.1614V24.5025H70.2248V11.9253H68.1102V14.2204C67.3747 12.9121 65.7658 11.7188 63.4213 11.7188C60.0426 11.7188 57.4453 14.2433 57.4453 18.168ZM68.1102 18.1909C68.1102 21.1516 66.1335 22.8729 63.8351 22.8729C61.5366 22.8729 59.5829 21.1287 59.5829 18.168C59.5829 15.2073 61.5366 13.5319 63.8351 13.5319C66.1335 13.5319 68.1102 15.2761 68.1102 18.1909Z" fill="#0051BA"/>
<path d="M74.1505 24.4995H76.2422V13.6436H78.8854V11.9223H76.2422V11.0272C76.2422 9.39766 76.8628 8.70912 78.7475 8.70912V6.96484C75.5296 6.96484 74.1505 8.22715 74.1505 11.0272V11.9223H72.5186V13.6436H74.1505V24.4995Z" fill="#0051BA"/>
<path d="M81.3428 24.5022H83.4662V13.4883H81.3428V24.5022Z" fill="#0051BA"/>
<path d="M48.9551 27.6363C48.9931 27.5229 49.0281 27.4078 49.06 27.2907C49.1004 27.1424 50.2058 24.3344 50.2363 24.1803C50.6218 22.5379 50.5163 19.3347 50.9941 17.2323C51.5559 14.7603 53.8878 13.9693 54.9478 13.7856C56.0078 13.6018 56.8243 14.0559 56.8243 14.0559V11.7923C54.7668 11.7923 51.9382 12.7178 51.2051 14.1652V11.0859L48.9551 12.4653V27.6363Z" fill="#0051BA"/>
<path fill-rule="evenodd" clip-rule="evenodd" d="M47.696 13.1551L46.4657 13.8638C45.7089 12.4638 44.0062 11.2773 41.6412 11.2773C38.1647 11.2773 35.4922 13.8875 35.4922 17.9452C35.4922 21.9791 38.1647 24.708 41.6412 24.708C44.0062 24.708 45.6852 23.4503 46.4657 22.0503V24.7791C46.4657 27.5554 44.7392 29.0266 42.4452 29.0266C40.3167 29.0266 38.7795 27.9588 38.3066 26.3927H36.178C36.6038 29.169 39.0396 30.9012 42.4452 30.9012C44.8335 30.9012 46.6635 29.9022 47.696 28.2733V13.1551ZM42.0669 22.8096C44.4318 22.8096 46.4657 21.03 46.4657 17.9689C46.4657 14.9553 44.4318 13.1519 42.0669 13.1519C39.7019 13.1519 37.6916 14.8841 37.6916 17.9452C37.6916 21.0062 39.7019 22.8096 42.0669 22.8096Z" fill="#0051BA"/>
<path d="M68.1105 22.1596H68.3577C68.3577 22.0471 68.2818 21.9488 68.173 21.9203C68.0641 21.892 67.9498 21.9406 67.8949 22.0387L68.1105 22.1596ZM68.1105 24.5006H67.8633C67.8633 24.6371 67.974 24.7478 68.1105 24.7478V24.5006ZM70.2251 24.5006V24.7478C70.3617 24.7478 70.4724 24.6371 70.4724 24.5006H70.2251ZM70.2251 11.9234H70.4724C70.4724 11.7869 70.3617 11.6762 70.2251 11.6762V11.9234ZM68.1105 11.9234V11.6762C67.974 11.6762 67.8633 11.7869 67.8633 11.9234H68.1105ZM68.1105 14.2185L67.8951 14.3396C67.9502 14.4377 68.0644 14.4861 68.1732 14.4576C68.2819 14.4292 68.3577 14.3309 68.3577 14.2185H68.1105ZM74.1505 24.5006H73.9033C73.9033 24.6371 74.014 24.7478 74.1505 24.7478V24.5006ZM76.2422 24.5006V24.7478C76.3787 24.7478 76.4894 24.6371 76.4894 24.5006H76.2422ZM76.2422 13.6447V13.3975C76.1056 13.3975 75.9949 13.5082 75.9949 13.6447H76.2422ZM78.8854 13.6447V13.8919C79.0219 13.8919 79.1326 13.7812 79.1326 13.6447H78.8854ZM78.8854 11.9234H79.1326C79.1326 11.7869 79.0219 11.6762 78.8854 11.6762V11.9234ZM76.2422 11.9234H75.9949C75.9949 12.0599 76.1056 12.1706 76.2422 12.1706V11.9234ZM78.7475 8.71024V8.95745C78.884 8.95745 78.9947 8.84677 78.9947 8.71024H78.7475ZM78.7475 6.96596H78.9947C78.9947 6.82943 78.884 6.71875 78.7475 6.71875V6.96596ZM74.1505 11.9234V12.1706C74.287 12.1706 74.3978 12.0599 74.3978 11.9234H74.1505ZM72.5186 11.9234V11.6762C72.382 11.6762 72.2714 11.7869 72.2714 11.9234H72.5186ZM72.5186 13.6447H72.2714C72.2714 13.7812 72.382 13.8919 72.5186 13.8919V13.6447ZM74.1505 13.6447H74.3978C74.3978 13.5082 74.287 13.3975 74.1505 13.3975V13.6447ZM81.3431 24.5006H81.0959C81.0959 24.6371 81.2066 24.7478 81.3431 24.7478V24.5006ZM83.4666 24.5006V24.7478C83.6031 24.7478 83.7138 24.6371 83.7138 24.5006H83.4666ZM83.4666 13.4867H83.7138C83.7138 13.3502 83.6031 13.2394 83.4666 13.2394V13.4867ZM81.3431 13.4867V13.2394C81.2066 13.2394 81.0959 13.3502 81.0959 13.4867H81.3431ZM48.9553 27.6367H48.7081C48.7081 27.7578 48.7959 27.8611 48.9155 27.8807C49.035 27.9002 49.1511 27.8301 49.1896 27.7153L48.9553 27.6367ZM49.0602 27.291L48.8217 27.226L49.0602 27.291ZM50.2365 24.1806L49.9957 24.1242L49.994 24.1327L50.2365 24.1806ZM50.9943 17.2327L50.7533 17.1779L50.9943 17.2327ZM56.8245 14.0563L56.7043 14.2723C56.7809 14.3149 56.8743 14.3138 56.9498 14.2694C57.0253 14.225 57.0717 14.144 57.0717 14.0563H56.8245ZM56.8245 11.7927H57.0717C57.0717 11.6562 56.9611 11.5455 56.8245 11.5455V11.7927ZM51.2053 14.1656H50.9581C50.9581 14.28 51.0366 14.3795 51.1478 14.406C51.2591 14.4326 51.3741 14.3794 51.4258 14.2773L51.2053 14.1656ZM51.2053 11.0863H51.4524C51.4524 10.9968 51.4041 10.9143 51.326 10.8706C51.2479 10.8269 51.1523 10.8288 51.076 10.8755L51.2053 11.0863ZM48.9553 12.4657L48.826 12.2549C48.7527 12.2998 48.7081 12.3797 48.7081 12.4657H48.9553ZM47.6961 13.1544H47.9433C47.9433 13.0661 47.8962 12.9846 47.8198 12.9404C47.7434 12.8962 47.6492 12.8961 47.5727 12.9402L47.6961 13.1544ZM46.4658 13.863L46.2484 13.9806C46.2801 14.0393 46.3341 14.0827 46.3984 14.1009C46.4626 14.1191 46.5314 14.1106 46.5892 14.0773L46.4658 13.863ZM46.4658 22.0496H46.713C46.713 21.937 46.6369 21.8386 46.528 21.8103C46.4191 21.782 46.3047 21.8308 46.2499 21.9292L46.4658 22.0496ZM38.3067 26.3919L38.5433 26.3205C38.5118 26.2161 38.4156 26.1448 38.3067 26.1448V26.3919ZM36.1781 26.3919V26.1448C36.106 26.1448 36.0375 26.1762 35.9906 26.2309C35.9436 26.2856 35.9229 26.3581 35.9338 26.4294L36.1781 26.3919ZM47.6961 28.2725L47.9049 28.4049C47.93 28.3653 47.9433 28.3195 47.9433 28.2725H47.6961ZM57.1984 18.1661C57.1984 22.1874 59.8901 24.9543 63.3987 24.9543V24.4599C60.1957 24.4599 57.6928 21.9481 57.6928 18.1661H57.1984ZM63.3987 24.9543C65.8107 24.9543 67.5246 23.7117 68.3263 22.2804L67.8949 22.0387C67.1796 23.3157 65.6297 24.4599 63.3987 24.4599V24.9543ZM67.8633 22.1596V24.5006H68.3577V22.1596H67.8633ZM68.1105 24.7478H70.2251V24.2533H68.1105V24.7478ZM70.4724 24.5006V11.9234H69.9779V24.5006H70.4724ZM70.2251 11.6762H68.1105V12.1706H70.2251V11.6762ZM67.8633 11.9234V14.2185H68.3577V11.9234H67.8633ZM68.3261 14.0973C67.547 12.7117 65.856 11.4696 63.4217 11.4696V11.9641C65.6763 11.9641 67.2031 13.1089 67.8951 14.3396L68.3261 14.0973ZM63.4217 11.4696C61.6688 11.4696 60.1088 12.1256 58.9879 13.2989C57.867 14.4722 57.1984 16.1481 57.1984 18.1661H57.6928C57.6928 16.2594 58.3229 14.7108 59.3454 13.6405C60.3676 12.5704 61.7958 11.9641 63.4217 11.9641V11.4696ZM67.8633 18.189C67.8633 19.6125 67.3893 20.7185 66.658 21.4676C65.9258 22.2176 64.922 22.6238 63.8354 22.6238V23.1182C65.0472 23.1182 66.181 22.6638 67.0118 21.813C67.8435 20.9611 68.3577 19.7262 68.3577 18.189H67.8633ZM63.8354 22.6238C62.7499 22.6238 61.7523 22.2127 61.0255 21.4574C60.2993 20.7028 59.8304 19.5905 59.8304 18.1661H59.336C59.336 19.7024 59.8439 20.9426 60.6692 21.8002C61.4939 22.6572 62.6224 23.1182 63.8354 23.1182V22.6238ZM59.8304 18.1661C59.8304 16.7419 60.299 15.6479 61.0236 14.911C61.7492 14.1732 62.747 13.7772 63.8354 13.7772V13.2828C62.6254 13.2828 61.497 13.7244 60.6711 14.5645C59.8442 15.4054 59.336 16.6295 59.336 18.1661H59.8304ZM63.8354 13.7772C65.9918 13.7772 67.8633 15.4052 67.8633 18.189H68.3577C68.3577 15.1433 66.2759 13.2828 63.8354 13.2828V13.7772ZM74.1505 24.7478H76.2422V24.2533H74.1505V24.7478ZM76.4894 24.5006V13.6447H75.9949V24.5006H76.4894ZM76.2422 13.8919H78.8854V13.3975H76.2422V13.8919ZM79.1326 13.6447V11.9234H78.6381V13.6447H79.1326ZM78.8854 11.6762H76.2422V12.1706H78.8854V11.6762ZM76.4894 11.9234V11.0283H75.9949V11.9234H76.4894ZM76.4894 11.0283C76.4894 10.2353 76.6423 9.7414 76.9594 9.43636C77.2795 9.12843 77.824 8.95745 78.7475 8.95745V8.46304C77.7861 8.46304 77.078 8.63631 76.6167 9.08002C76.1523 9.52664 75.9949 10.1918 75.9949 11.0283H76.4894ZM78.9947 8.71024V6.96596H78.5003V8.71024H78.9947ZM78.7475 6.71875C77.1143 6.71875 75.8914 7.03764 75.0779 7.76255C74.2576 8.49335 73.9033 9.591 73.9033 11.0283H74.3978C74.3978 9.66551 74.7329 8.73204 75.4067 8.13168C76.0872 7.52543 77.1628 7.21316 78.7475 7.21316V6.71875ZM73.9033 11.0283V11.9234H74.3978V11.0283H73.9033ZM74.1505 11.6762H72.5186V12.1706H74.1505V11.6762ZM72.2714 11.9234V13.6447H72.7659V11.9234H72.2714ZM72.5186 13.8919H74.1505V13.3975H72.5186V13.8919ZM73.9033 13.6447V24.5006H74.3978V13.6447H73.9033ZM81.3431 24.7478H83.4666V24.2533H81.3431V24.7478ZM83.7138 24.5006V13.4867H83.2194V24.5006H83.7138ZM83.4666 13.2394H81.3431V13.7339H83.4666V13.2394ZM81.0959 13.4867V24.5006H81.5903V13.4867H81.0959ZM49.1896 27.7153C49.2292 27.5975 49.2655 27.4777 49.2987 27.3561L48.8217 27.226C48.791 27.3386 48.7573 27.4492 48.7209 27.558L49.1896 27.7153ZM49.2987 27.3561C49.2981 27.3581 49.3013 27.3481 49.3124 27.3169C49.3222 27.2896 49.3357 27.253 49.3526 27.2078C49.3864 27.1175 49.4327 26.9957 49.4876 26.8526C49.5973 26.5664 49.74 26.1972 49.8827 25.827C50.0253 25.4571 50.1679 25.0863 50.2768 24.7982C50.3311 24.6543 50.3775 24.5301 50.4113 24.4366C50.4282 24.3899 50.4423 24.3499 50.453 24.3182C50.4615 24.2929 50.4734 24.257 50.4789 24.2287L49.994 24.1327C49.9957 24.1236 49.9954 24.1277 49.9844 24.1605C49.9754 24.1871 49.9627 24.2231 49.9464 24.2683C49.9138 24.3585 49.8684 24.4801 49.8143 24.6234C49.706 24.9098 49.5641 25.2791 49.4214 25.6491C49.279 26.0186 49.1359 26.3889 49.026 26.6757C48.971 26.8191 48.924 26.9423 48.8896 27.0345C48.8579 27.1192 48.8305 27.1935 48.8217 27.226L49.2987 27.3561ZM50.4771 24.2372C50.6758 23.3907 50.7466 22.153 50.8275 20.895C50.9093 19.6215 51.0017 18.3158 51.2354 17.2874L50.7533 17.1779C50.5091 18.2519 50.4154 19.5989 50.3341 20.8633C50.2519 22.1431 50.1827 23.3282 49.9958 24.1242L50.4771 24.2372ZM51.2354 17.2874C51.7624 14.9686 53.9558 14.2088 54.9902 14.0295L54.9058 13.5424C53.8201 13.7306 51.3498 14.5526 50.7533 17.1779L51.2354 17.2874ZM54.9902 14.0295C55.476 13.9453 55.9078 14.007 56.2196 14.0909C56.3751 14.1328 56.4993 14.1797 56.5834 14.2156C56.6254 14.2336 56.6572 14.2486 56.6778 14.2588C56.6881 14.2638 56.6956 14.2677 56.7 14.2701C56.7022 14.2712 56.7037 14.272 56.7045 14.2724C56.7048 14.2726 56.705 14.2727 56.705 14.2727C56.7049 14.2727 56.7049 14.2727 56.7048 14.2726C56.7048 14.2726 56.7047 14.2725 56.7046 14.2725L56.7045 14.2724C56.7044 14.2724 56.7043 14.2723 56.8245 14.0563C56.9447 13.8403 56.9446 13.8402 56.9445 13.8402C56.9445 13.8402 56.9444 13.8401 56.9443 13.8401C56.9442 13.8401 56.9441 13.84 56.9439 13.8399C56.9436 13.8397 56.9433 13.8395 56.9428 13.8393C56.9421 13.8388 56.941 13.8383 56.9398 13.8376C56.9374 13.8363 56.9342 13.8346 56.9302 13.8325C56.9222 13.8283 56.911 13.8225 56.8969 13.8156C56.8687 13.8016 56.8284 13.7826 56.7774 13.7609C56.6753 13.7173 56.5291 13.6622 56.348 13.6135C55.9865 13.5163 55.4801 13.4428 54.9058 13.5424L54.9902 14.0295ZM57.0717 14.0563V11.7927H56.5773V14.0563H57.0717ZM56.8245 11.5455C55.7634 11.5455 54.5115 11.7832 53.4284 12.2061C52.3569 12.6244 51.3937 13.2464 50.9847 14.0539L51.4258 14.2773C51.7499 13.6374 52.5676 13.0729 53.6082 12.6666C54.637 12.2649 55.8281 12.04 56.8245 12.04V11.5455ZM51.4524 14.1656V11.0863H50.9581V14.1656H51.4524ZM51.076 10.8755L48.826 12.2549L49.0844 12.6764L51.3345 11.297L51.076 10.8755ZM48.7081 12.4657V27.6367H49.2025V12.4657H48.7081ZM47.5727 12.9402L46.3425 13.6489L46.5892 14.0773L47.8195 13.3686L47.5727 12.9402ZM46.6833 13.7455C45.8809 12.2611 44.0918 11.0294 41.6413 11.0294V11.5238C43.9207 11.5238 45.5371 12.665 46.2484 13.9806L46.6833 13.7455ZM41.6413 11.0294C39.8391 11.0294 38.2358 11.7071 37.084 12.9186C35.9323 14.1298 35.2451 15.8604 35.2451 17.9444H35.7395C35.7395 15.9709 36.3885 14.3675 37.4423 13.2593C38.4957 12.1513 39.967 11.5238 41.6413 11.5238V11.0294ZM35.2451 17.9444C35.2451 22.0975 38.0115 24.9544 41.6413 24.9544V24.4599C38.318 24.4599 35.7395 21.8592 35.7395 17.9444H35.2451ZM41.6413 24.9544C44.0999 24.9544 45.8597 23.6446 46.6818 22.1699L46.2499 21.9292C45.5111 23.2545 43.9125 24.4599 41.6413 24.4599V24.9544ZM46.2186 22.0496V24.7783H46.713V22.0496H46.2186ZM46.2186 24.7783C46.2186 26.114 45.8045 27.1082 45.1415 27.768C44.4775 28.4286 43.5394 28.7786 42.4453 28.7786V29.273C43.6454 29.273 44.7174 28.8874 45.4902 28.1184C46.2639 27.3485 46.713 26.2189 46.713 24.7783H46.2186ZM42.4453 28.7786C40.3998 28.7786 38.9778 27.7593 38.5433 26.3205L38.07 26.4634C38.5815 28.1567 40.2338 29.273 42.4453 29.273V28.7786ZM38.3067 26.1448H36.1781V26.6391H38.3067V26.1448ZM35.9338 26.4294C36.3834 29.3618 38.9575 31.1476 42.4453 31.1476V30.6532C39.1221 30.6532 36.8243 28.9746 36.4225 26.3545L35.9338 26.4294ZM42.4453 31.1476C44.9069 31.1476 46.8213 30.1145 47.9049 28.4049L47.4873 28.1403C46.506 29.6885 44.7604 30.6532 42.4453 30.6532V31.1476ZM47.9433 28.2725V13.1544H47.4489V28.2725H47.9433ZM46.2186 17.9682C46.2186 19.4422 45.73 20.588 44.976 21.3641C44.221 22.1411 43.1865 22.5617 42.067 22.5617V23.056C43.3124 23.056 44.4773 22.5868 45.3305 21.7087C46.1846 20.8297 46.713 19.5552 46.713 17.9682H46.2186ZM42.067 13.3984C44.2888 13.3984 46.2186 15.0843 46.2186 17.9682H46.713C46.713 14.8248 44.5751 12.904 42.067 12.904V13.3984ZM37.9389 17.9444C37.9389 16.4698 38.4219 15.3364 39.1692 14.5729C39.9173 13.8084 40.9457 13.3984 42.067 13.3984V12.904C40.8233 12.904 39.6641 13.3601 38.8158 14.2271C37.9666 15.0948 37.4445 16.358 37.4445 17.9444H37.9389ZM42.067 22.5617C40.9486 22.5617 39.9204 22.136 39.171 21.3535C38.4222 20.5716 37.9389 19.4193 37.9389 17.9444H37.4445C37.4445 19.5305 37.9664 20.8105 38.8139 21.6955C39.661 22.58 40.8203 23.056 42.067 23.056V22.5617Z" fill="#0051BA"/>
<path d="M84.3182 10.6605C84.3183 10.6921 84.187 11.0857 83.9819 11.6686C83.7969 12.1945 83.6436 12.6271 83.6413 12.6298C83.6402 12.6311 83.3531 12.6325 83.0585 12.6335L82.7436 12.6344L82.4287 12.6352H82.1255H81.8223H81.216L80.8775 11.6741C80.6705 11.0864 80.5391 10.693 80.5391 10.6614L82.091 7.10547L82.1132 10.6614C82.1132 10.6614 82.4287 11.0605 82.7436 10.6605V7.10547C83.1584 8.06243 83.883 9.68892 84.3182 10.6605Z" fill="#0051BA"/>
<path d="M84.3187 10.6591L84.4423 10.659C84.4423 10.6416 84.4387 10.6244 84.4316 10.6087L84.3187 10.6591ZM83.9825 11.6672L83.8659 11.6261L83.9825 11.6672ZM80.5396 10.66L80.4263 10.6106C80.4196 10.626 80.4161 10.6427 80.416 10.6597L80.5396 10.66ZM80.8781 11.6727L80.9946 11.6317L80.8781 11.6727ZM81.2166 12.6338L81.1 12.6749C81.1173 12.7244 81.1641 12.7574 81.2166 12.7574V12.6338ZM82.4292 12.6338V12.7574H82.4295L82.4292 12.6338ZM83.6418 12.6285L83.5477 12.5484L83.6418 12.6285ZM83.0591 12.6321L83.0595 12.7557L83.0591 12.6321ZM82.7441 12.633L82.7445 12.7566L82.7441 12.633ZM82.7441 7.10408L82.8575 7.05492C82.8343 7.00116 82.7764 6.97116 82.719 6.98306C82.6617 6.99496 82.6206 7.0455 82.6206 7.10408H82.7441ZM82.0916 7.10408L82.2151 7.10332C82.2148 7.04493 82.1737 6.99476 82.1164 6.98301C82.0593 6.97126 82.0017 7.00113 81.9783 7.05464L82.0916 7.10408ZM82.1138 10.66L81.9902 10.6607C81.9903 10.6883 81.9997 10.715 82.0168 10.7366L82.1138 10.66ZM82.7441 10.6591L82.8412 10.7356C82.8584 10.7139 82.8677 10.6869 82.8677 10.6591H82.7441ZM84.1951 10.6593C84.1951 10.6467 84.1975 10.6384 84.1963 10.6436C84.196 10.6454 84.195 10.6493 84.1933 10.6557C84.1899 10.6684 84.1845 10.687 84.1769 10.7117C84.1618 10.7607 84.1394 10.83 84.1103 10.9173C84.0521 11.0916 83.9682 11.3351 83.8659 11.6261L84.099 11.7082C84.2017 11.4164 84.286 11.1717 84.3447 10.9955C84.3741 10.9075 84.3973 10.8362 84.4132 10.7843C84.4212 10.7585 84.4276 10.7366 84.4322 10.7195C84.4344 10.7111 84.4365 10.7027 84.4382 10.695C84.4391 10.6906 84.4424 10.6755 84.4423 10.659L84.1951 10.6593ZM80.9946 11.6317C80.8912 11.3382 80.8068 11.0936 80.7484 10.9186C80.7192 10.8311 80.6966 10.7617 80.6815 10.7126C80.6739 10.6878 80.6685 10.6693 80.6651 10.6565C80.6634 10.65 80.6624 10.6462 80.6621 10.6445C80.661 10.6393 80.6633 10.6476 80.6632 10.6602L80.416 10.6597C80.416 10.6763 80.4193 10.6914 80.4203 10.6957C80.4219 10.7035 80.424 10.712 80.4262 10.7204C80.4308 10.7375 80.4373 10.7594 80.4452 10.7853C80.4612 10.8372 80.4844 10.9088 80.5139 10.997C80.573 11.1736 80.6578 11.4196 80.7615 11.7138L80.9946 11.6317ZM81.3331 12.5928L80.9946 11.6317L80.7615 11.7138L81.1 12.6749L81.3331 12.5928ZM83.8659 11.6261C83.7734 11.8891 83.6889 12.1286 83.6272 12.3028C83.5963 12.3898 83.5712 12.4604 83.5536 12.5095C83.5449 12.534 83.5381 12.5529 83.5334 12.5657C83.5311 12.5722 83.5294 12.5767 83.5283 12.5795C83.5278 12.581 83.5276 12.5814 83.5277 12.5813C83.5277 12.5812 83.5278 12.5809 83.528 12.5806C83.5281 12.5802 83.5284 12.5795 83.5287 12.5786C83.5291 12.578 83.53 12.576 83.5313 12.5734C83.5319 12.5722 83.5331 12.5697 83.5348 12.5668C83.5357 12.5652 83.5402 12.5572 83.5477 12.5484L83.736 12.7086C83.7436 12.6997 83.7481 12.6917 83.749 12.69C83.7508 12.687 83.752 12.6846 83.7527 12.6833C83.754 12.6806 83.7549 12.6783 83.7554 12.6775C83.7563 12.6753 83.757 12.6736 83.7574 12.6726C83.7582 12.6706 83.759 12.6684 83.7597 12.6664C83.7613 12.6625 83.7633 12.6569 83.7657 12.6502C83.7706 12.6368 83.7776 12.6173 83.7864 12.5927C83.804 12.5434 83.8293 12.4725 83.8602 12.3853C83.9219 12.211 84.0066 11.9713 84.099 11.7082L83.8659 11.6261ZM81.8229 12.5102H81.2166V12.7574H81.8229V12.5102ZM82.4292 12.5102H82.1261V12.7574H82.4292V12.5102ZM82.1261 12.5102H81.8229V12.7574H82.1261V12.5102ZM83.5477 12.5484C83.5687 12.5237 83.5937 12.5146 83.5964 12.5135C83.604 12.5105 83.6104 12.5089 83.6131 12.5082C83.6191 12.5068 83.6239 12.5062 83.6254 12.506C83.629 12.5055 83.6317 12.5053 83.6322 12.5053C83.6338 12.5052 83.6346 12.5052 83.6338 12.5052C83.6327 12.5052 83.6303 12.5053 83.6262 12.5054C83.6183 12.5055 83.6062 12.5057 83.5905 12.5058C83.5591 12.5062 83.5141 12.5065 83.4598 12.5068C83.3512 12.5075 83.2059 12.508 83.0586 12.5085L83.0595 12.7557C83.2068 12.7552 83.3523 12.7547 83.4612 12.754C83.5157 12.7537 83.561 12.7533 83.593 12.753C83.609 12.7529 83.6219 12.7527 83.631 12.7526C83.6354 12.7525 83.6396 12.7523 83.643 12.7522C83.6444 12.7521 83.647 12.752 83.6497 12.7519C83.6507 12.7518 83.6539 12.7516 83.6579 12.751C83.6595 12.7508 83.6644 12.7501 83.6704 12.7488C83.6732 12.7481 83.6796 12.7465 83.6873 12.7434C83.69 12.7423 83.715 12.7333 83.736 12.7086L83.5477 12.5484ZM83.0586 12.5085C82.9501 12.5088 82.8404 12.5092 82.7438 12.5095L82.7445 12.7566C82.8411 12.7564 82.9508 12.756 83.0595 12.7557L83.0586 12.5085ZM82.7438 12.5095C82.6539 12.5097 82.5751 12.5099 82.5189 12.5101C82.4908 12.5101 82.4683 12.5101 82.4528 12.5102C82.4451 12.5102 82.4391 12.5102 82.4351 12.5102C82.433 12.5102 82.4316 12.5102 82.4305 12.5102C82.43 12.5102 82.4296 12.5102 82.4293 12.5102C82.4292 12.5102 82.4291 12.5102 82.429 12.5102C82.429 12.5102 82.429 12.5102 82.429 12.5102C82.429 12.5102 82.429 12.5102 82.4292 12.6338C82.4295 12.7574 82.4295 12.7574 82.4295 12.7574C82.4296 12.7574 82.4296 12.7574 82.4296 12.7574C82.4296 12.7574 82.4297 12.7574 82.4299 12.7574C82.4302 12.7574 82.4305 12.7574 82.431 12.7574C82.4321 12.7574 82.4336 12.7574 82.4356 12.7574C82.4397 12.7574 82.4457 12.7574 82.4534 12.7574C82.4688 12.7573 82.4914 12.7573 82.5195 12.7573C82.5757 12.7571 82.6545 12.7569 82.7445 12.7566L82.7438 12.5095ZM84.4316 10.6087C83.9963 9.63706 83.2721 8.01112 82.8575 7.05492L82.6307 7.15325C83.046 8.11097 83.7707 9.7381 84.206 10.7097L84.4316 10.6087ZM81.9783 7.05464L80.4263 10.6106L80.6529 10.7094L82.2048 7.15353L81.9783 7.05464ZM83.0586 12.5085L82.7437 12.5095L82.7445 12.7566L83.0594 12.7557L83.0586 12.5085ZM82.2374 10.6592L82.2151 7.10332L81.968 7.10486L81.9902 10.6607L82.2374 10.6592ZM82.8677 10.6591C82.8677 10.6565 82.8677 10.6538 82.8677 10.651C82.8677 10.6483 82.8677 10.6456 82.8677 10.6428C82.8677 10.6401 82.8677 10.6374 82.8677 10.6347C82.8677 10.6319 82.8677 10.6292 82.8677 10.6264C82.8677 10.6238 82.8677 10.621 82.8677 10.6183C82.8677 10.6155 82.8677 10.6128 82.8677 10.61C82.8677 10.6073 82.8677 10.6045 82.8677 10.6018C82.8677 10.599 82.8677 10.5963 82.8677 10.5935C82.8677 10.5908 82.8677 10.588 82.8677 10.5852C82.8677 10.5825 82.8677 10.5797 82.8677 10.5769C82.8677 10.5741 82.8677 10.5714 82.8677 10.5686C82.8677 10.5658 82.8677 10.563 82.8677 10.5603C82.8677 10.5575 82.8677 10.5547 82.8677 10.5519C82.8677 10.5492 82.8677 10.5464 82.8677 10.5436C82.8677 10.5408 82.8677 10.538 82.8677 10.5352C82.8677 10.5324 82.8677 10.5296 82.8677 10.5268C82.8677 10.524 82.8677 10.5212 82.8677 10.5184C82.8677 10.5156 82.8677 10.5128 82.8677 10.51C82.8677 10.5072 82.8677 10.5043 82.8677 10.5015C82.8677 10.4987 82.8677 10.4959 82.8677 10.493C82.8677 10.4903 82.8677 10.4874 82.8677 10.4846C82.8677 10.4818 82.8677 10.4789 82.8677 10.4761C82.8677 10.4733 82.8677 10.4705 82.8677 10.4676C82.8677 10.4648 82.8677 10.4619 82.8677 10.4591C82.8677 10.4563 82.8677 10.4534 82.8677 10.4505C82.8677 10.4477 82.8677 10.4449 82.8677 10.442C82.8677 10.4392 82.8677 10.4363 82.8677 10.4335C82.8677 10.4306 82.8677 10.4277 82.8677 10.4249C82.8677 10.422 82.8677 10.4191 82.8677 10.4163C82.8677 10.4134 82.8677 10.4106 82.8677 10.4077C82.8677 10.4048 82.8677 10.402 82.8677 10.3991C82.8677 10.3962 82.8677 10.3933 82.8677 10.3904C82.8677 10.3876 82.8677 10.3847 82.8677 10.3818C82.8677 10.3789 82.8677 10.376 82.8677 10.3732C82.8677 10.3702 82.8677 10.3674 82.8677 10.3645C82.8677 10.3616 82.8677 10.3587 82.8677 10.3557C82.8677 10.3529 82.8677 10.35 82.8677 10.3471C82.8677 10.3442 82.8677 10.3413 82.8677 10.3384C82.8677 10.3354 82.8677 10.3326 82.8677 10.3296C82.8677 10.3268 82.8677 10.3238 82.8677 10.3209C82.8677 10.318 82.8677 10.3151 82.8677 10.3122C82.8677 10.3093 82.8677 10.3063 82.8677 10.3034C82.8677 10.3005 82.8677 10.2975 82.8677 10.2946C82.8677 10.2917 82.8677 10.2888 82.8677 10.2858C82.8677 10.2829 82.8677 10.28 82.8677 10.2771C82.8677 10.2741 82.8677 10.2712 82.8677 10.2682C82.8677 10.2653 82.8677 10.2623 82.8677 10.2594C82.8677 10.2565 82.8677 10.2536 82.8677 10.2506C82.8677 10.2477 82.8677 10.2447 82.8677 10.2418C82.8677 10.2388 82.8677 10.2359 82.8677 10.2329C82.8677 10.23 82.8677 10.2269 82.8677 10.224C82.8677 10.221 82.8677 10.2181 82.8677 10.2151C82.8677 10.2122 82.8677 10.2092 82.8677 10.2063C82.8677 10.2033 82.8677 10.2003 82.8677 10.1974C82.8677 10.1944 82.8677 10.1914 82.8677 10.1884C82.8677 10.1855 82.8677 10.1825 82.8677 10.1795C82.8677 10.1765 82.8677 10.1736 82.8677 10.1706C82.8677 10.1676 82.8677 10.1647 82.8677 10.1616C82.8677 10.1587 82.8677 10.1556 82.8677 10.1527C82.8677 10.1497 82.8677 10.1467 82.8677 10.1438C82.8677 10.1407 82.8677 10.1378 82.8677 10.1347C82.8677 10.1318 82.8677 10.1288 82.8677 10.1258C82.8677 10.1228 82.8677 10.1198 82.8677 10.1168C82.8677 10.1138 82.8677 10.1108 82.8677 10.1078C82.8677 10.1048 82.8677 10.1018 82.8677 10.0987C82.8677 10.0958 82.8677 10.0928 82.8677 10.0897C82.8677 10.0868 82.8677 10.0837 82.8677 10.0807C82.8677 10.0778 82.8677 10.0747 82.8677 10.0717C82.8677 10.0687 82.8677 10.0657 82.8677 10.0627C82.8677 10.0596 82.8677 10.0566 82.8677 10.0536C82.8677 10.0506 82.8677 10.0476 82.8677 10.0445C82.8677 10.0415 82.8677 10.0385 82.8677 10.0354C82.8677 10.0324 82.8677 10.0294 82.8677 10.0264C82.8677 10.0234 82.8677 10.0203 82.8677 10.0173C82.8677 10.0143 82.8677 10.0112 82.8677 10.0082C82.8677 10.0052 82.8677 10.0021 82.8677 9.99909C82.8677 9.99605 82.8677 9.99302 82.8677 9.98998C82.8677 9.98695 82.8677 9.98391 82.8677 9.98087C82.8677 9.97784 82.8677 9.9748 82.8677 9.97177C82.8677 9.96873 82.8677 9.96561 82.8677 9.96257C82.8677 9.95954 82.8677 9.9565 82.8677 9.95347C82.8677 9.95043 82.8677 9.94739 82.8677 9.94427C82.8677 9.94124 82.8677 9.9382 82.8677 9.93517C82.8677 9.93213 82.8677 9.92901 82.8677 9.92597C82.8677 9.92294 82.8677 9.9199 82.8677 9.91678C82.8677 9.91374 82.8677 9.91071 82.8677 9.90767C82.8677 9.90455 82.8677 9.90151 82.8677 9.89848C82.8677 9.89535 82.8677 9.89232 82.8677 9.88928C82.8677 9.88616 82.8677 9.88312 82.8677 9.88009C82.8677 9.87697 82.8677 9.87393 82.8677 9.87089C82.8677 9.86777 82.8677 9.86474 82.8677 9.8617C82.8677 9.85858 82.8677 9.85554 82.8677 9.85242C82.8677 9.84938 82.8677 9.84626 82.8677 9.84323C82.8677 9.84019 82.8677 9.83707 82.8677 9.83403C82.8677 9.83091 82.8677 9.82787 82.8677 9.82475C82.8677 9.82172 82.8677 9.81859 82.8677 9.81556C82.8677 9.81244 82.8677 9.8094 82.8677 9.80628C82.8677 9.80324 82.8677 9.80012 82.8677 9.79708C82.8677 9.79396 82.8677 9.79084 82.8677 9.7878C82.8677 9.78468 82.8677 9.78164 82.8677 9.77852C82.8677 9.77549 82.8677 9.77236 82.8677 9.76924C82.8677 9.76621 82.8677 9.76308 82.8677 9.76005C82.8677 9.75692 82.8677 9.7538 82.8677 9.75077C82.8677 9.74764 82.8677 9.74452 82.8677 9.74149C82.8677 9.73836 82.8677 9.73533 82.8677 9.73221C82.8677 9.72908 82.8677 9.72605 82.8677 9.72292C82.8677 9.7198 82.8677 9.71668 82.8677 9.71364C82.8677 9.71052 82.8677 9.7074 82.8677 9.70436C82.8677 9.70124 82.8677 9.69812 82.8677 9.69508C82.8677 9.69196 82.8677 9.68884 82.8677 9.68572C82.8677 9.68268 82.8677 9.67956 82.8677 9.67643C82.8677 9.67331 82.8677 9.67028 82.8677 9.66716C82.8677 9.66403 82.8677 9.66091 82.8677 9.65787C82.8677 9.65475 82.8677 9.65163 82.8677 9.64851C82.8677 9.64538 82.8677 9.64235 82.8677 9.63923C82.8677 9.6361 82.8677 9.63298 82.8677 9.62995C82.8677 9.62682 82.8677 9.6237 82.8677 9.62058C82.8677 9.61746 82.8677 9.61433 82.8677 9.6113C82.8677 9.60817 82.8677 9.60505 82.8677 9.60193C82.8677 9.59881 82.8677 9.59577 82.8677 9.59265C82.8677 9.58953 82.8677 9.5864 82.8677 9.58328C82.8677 9.58016 82.8677 9.57704 82.8677 9.574C82.8677 9.57088 82.8677 9.56776 82.8677 9.56463C82.8677 9.56151 82.8677 9.55842 82.8677 9.55531C82.8677 9.5522 82.8677 9.54909 82.8677 9.54598C82.8677 9.54286 82.8677 9.53976 82.8677 9.53664C82.8677 9.53353 82.8677 9.53042 82.8677 9.5273C82.8677 9.5242 82.8677 9.52109 82.8677 9.51797C82.8677 9.51486 82.8677 9.51174 82.8677 9.50864C82.8677 9.50552 82.8677 9.50241 82.8677 9.4993C82.8677 9.49618 82.8677 9.49307 82.8677 9.48996C82.8677 9.48684 82.8677 9.48373 82.8677 9.48061C82.8677 9.47751 82.8677 9.4744 82.8677 9.47128C82.8677 9.46817 82.8677 9.46505 82.8677 9.46194C82.8677 9.45883 82.8677 9.45571 82.8677 9.4526C82.8677 9.44948 82.8677 9.44637 82.8677 9.44326C82.8677 9.44014 82.8677 9.43703 82.8677 9.43392C82.8677 9.4308 82.8677 9.42769 82.8677 9.42458C82.8677 9.42146 82.8677 9.41835 82.8677 9.41524C82.8677 9.41213 82.8677 9.40901 82.8677 9.4059C82.8677 9.40279 82.8677 9.39967 82.8677 9.39656C82.8677 9.39345 82.8677 9.39033 82.8677 9.38723C82.8677 9.38411 82.8677 9.381 82.8677 9.37789C82.8677 9.37477 82.8677 9.37166 82.8677 9.36855C82.8677 9.36544 82.8677 9.36233 82.8677 9.35921C82.8677 9.35611 82.8677 9.35299 82.8677 9.34988C82.8677 9.34677 82.8677 9.34366 82.8677 9.34055C82.8677 9.33744 82.8677 9.33433 82.8677 9.33122C82.8677 9.32811 82.8677 9.325 82.8677 9.32189C82.8677 9.31878 82.8677 9.31567 82.8677 9.31257C82.8677 9.30945 82.8677 9.30635 82.8677 9.30324C82.8677 9.30013 82.8677 9.29702 82.8677 9.29392C82.8677 9.29081 82.8677 9.2877 82.8677 9.28459C82.8677 9.28149 82.8677 9.27838 82.8677 9.27528C82.8677 9.27217 82.8677 9.26907 82.8677 9.26596C82.8677 9.26286 82.8677 9.25975 82.8677 9.25665C82.8677 9.25354 82.8677 9.25044 82.8677 9.24733C82.8677 9.24424 82.8677 9.24113 82.8677 9.23803C82.8677 9.23493 82.8677 9.23182 82.8677 9.22873C82.8677 9.22562 82.8677 9.22253 82.8677 9.21942C82.8677 9.21632 82.8677 9.21322 82.8677 9.21012C82.8677 9.20703 82.8677 9.20393 82.8677 9.20083C82.8677 9.19773 82.8677 9.19463 82.8677 9.19154C82.8677 9.18844 82.8677 9.18534 82.8677 9.18225C82.8677 9.17915 82.8677 9.17606 82.8677 9.17297C82.8677 9.16987 82.8677 9.16677 82.8677 9.16369C82.8677 9.16059 82.8677 9.1575 82.8677 9.15441C82.8677 9.15132 82.8677 9.14823 82.8677 9.14513C82.8677 9.14205 82.8677 9.13896 82.8677 9.13587C82.8677 9.13278 82.8677 9.12969 82.8677 9.12661C82.8677 9.12352 82.8677 9.12043 82.8677 9.11734C82.8677 9.11426 82.8677 9.11118 82.8677 9.10809C82.8677 9.10501 82.8677 9.10192 82.8677 9.09884C82.8677 9.09576 82.8677 9.09268 82.8677 9.0896C82.8677 9.08652 82.8677 9.08344 82.8677 9.08036C82.8677 9.07728 82.8677 9.0742 82.8677 9.07112C82.8677 9.06805 82.8677 9.06497 82.8677 9.06189C82.8677 9.05882 82.8677 9.05574 82.8677 9.05267C82.8677 9.0496 82.8677 9.04652 82.8677 9.04345C82.8677 9.04038 82.8677 9.03731 82.8677 9.03424C82.8677 9.03117 82.8677 9.02811 82.8677 9.02504C82.8677 9.02197 82.8677 9.01891 82.8677 9.01584C82.8677 9.01278 82.8677 9.00971 82.8677 9.00664C82.8677 9.00358 82.8677 9.00052 82.8677 8.99746C82.8677 8.9944 82.8677 8.99134 82.8677 8.98827C82.8677 8.98522 82.8677 8.98216 82.8677 8.97911C82.8677 8.97604 82.8677 8.97299 82.8677 8.96994C82.8677 8.96688 82.8677 8.96382 82.8677 8.96077C82.8677 8.95772 82.8677 8.95467 82.8677 8.95162C82.8677 8.94857 82.8677 8.94552 82.8677 8.94247C82.8677 8.93942 82.8677 8.93638 82.8677 8.93334C82.8677 8.93029 82.8677 8.92725 82.8677 8.9242C82.8677 8.92116 82.8677 8.91811 82.8677 8.91508C82.8677 8.91203 82.8677 8.909 82.8677 8.90595C82.8677 8.90292 82.8677 8.89988 82.8677 8.89685C82.8677 8.89381 82.8677 8.89078 82.8677 8.88775C82.8677 8.88471 82.8677 8.88169 82.8677 8.87865C82.8677 8.87562 82.8677 8.8726 82.8677 8.86957C82.8677 8.86654 82.8677 8.86351 82.8677 8.86049C82.8677 8.85747 82.8677 8.85444 82.8677 8.85142C82.8677 8.8484 82.8677 8.84538 82.8677 8.84236C82.8677 8.83934 82.8677 8.83632 82.8677 8.8333C82.8677 8.8303 82.8677 8.82728 82.8677 8.82427C82.8677 8.82125 82.8677 8.81824 82.8677 8.81523C82.8677 8.81222 82.8677 8.80921 82.8677 8.80621C82.8677 8.8032 82.8677 8.80019 82.8677 8.79719C82.8677 8.79419 82.8677 8.79119 82.8677 8.78819C82.8677 8.78518 82.8677 8.78218 82.8677 8.77918C82.8677 8.77619 82.8677 8.77319 82.8677 8.7702C82.8677 8.7672 82.8677 8.76421 82.8677 8.76122C82.8677 8.75823 82.8677 8.75523 82.8677 8.75225C82.8677 8.74927 82.8677 8.74627 82.8677 8.74329C82.8677 8.74031 82.8677 8.73732 82.8677 8.73435C82.8677 8.73137 82.8677 8.72838 82.8677 8.72541C82.8677 8.72243 82.8677 8.71946 82.8677 8.71648C82.8677 8.71351 82.8677 8.71053 82.8677 8.70757C82.8677 8.70459 82.8677 8.70162 82.8677 8.69866C82.8677 8.69569 82.8677 8.69272 82.8677 8.68976C82.8677 8.6868 82.8677 8.68383 82.8677 8.68088C82.8677 8.67792 82.8677 8.67496 82.8677 8.672C82.8677 8.66905 82.8677 8.66609 82.8677 8.66314C82.8677 8.66019 82.8677 8.65723 82.8677 8.65428C82.8677 8.65134 82.8677 8.6484 82.8677 8.64545C82.8677 8.64251 82.8677 8.63956 82.8677 8.63662C82.8677 8.63368 82.8677 8.63074 82.8677 8.6278C82.8677 8.62486 82.8677 8.62193 82.8677 8.619C82.8677 8.61607 82.8677 8.61314 82.8677 8.61021C82.8677 8.60727 82.8677 8.60435 82.8677 8.60143C82.8677 8.5985 82.8677 8.59557 82.8677 8.59266C82.8677 8.58974 82.8677 8.58681 82.8677 8.5839C82.8677 8.58098 82.8677 8.57807 82.8677 8.57516C82.8677 8.57224 82.8677 8.56934 82.8677 8.56642C82.8677 8.56352 82.8677 8.56061 82.8677 8.55771C82.8677 8.5548 82.8677 8.5519 82.8677 8.549C82.8677 8.5461 82.8677 8.5432 82.8677 8.54031C82.8677 8.53741 82.8677 8.53452 82.8677 8.53162C82.8677 8.52874 82.8677 8.52585 82.8677 8.52296C82.8677 8.52007 82.8677 8.51719 82.8677 8.51431C82.8677 8.51142 82.8677 8.50854 82.8677 8.50566C82.8677 8.50279 82.8677 8.49991 82.8677 8.49704C82.8677 8.49417 82.8677 8.4913 82.8677 8.48843C82.8677 8.48556 82.8677 8.4827 82.8677 8.47984C82.8677 8.47697 82.8677 8.47411 82.8677 8.47125C82.8677 8.46839 82.8677 8.46553 82.8677 8.46268C82.8677 8.45983 82.8677 8.45697 82.8677 8.45413C82.8677 8.45127 82.8677 8.44843 82.8677 8.44558C82.8677 8.44274 82.8677 8.43989 82.8677 8.43706C82.8677 8.43421 82.8677 8.43138 82.8677 8.42854C82.8677 8.42571 82.8677 8.42288 82.8677 8.42005C82.8677 8.41722 82.8677 8.41439 82.8677 8.41157C82.8677 8.40874 82.8677 8.40592 82.8677 8.4031C82.8677 8.40028 82.8677 8.39746 82.8677 8.39464C82.8677 8.39183 82.8677 8.38902 82.8677 8.38621C82.8677 8.3834 82.8677 8.38059 82.8677 8.37779C82.8677 8.37498 82.8677 8.37218 82.8677 8.36939C82.8677 8.36659 82.8677 8.36379 82.8677 8.36099C82.8677 8.3582 82.8677 8.35541 82.8677 8.35262C82.8677 8.34983 82.8677 8.34704 82.8677 8.34426C82.8677 8.34148 82.8677 8.3387 82.8677 8.33592C82.8677 8.33314 82.8677 8.33036 82.8677 8.3276C82.8677 8.32482 82.8677 8.32206 82.8677 8.31929C82.8677 8.31652 82.8677 8.31376 82.8677 8.311C82.8677 8.30824 82.8677 8.30547 82.8677 8.30272C82.8677 8.29996 82.8677 8.29721 82.8677 8.29447C82.8677 8.29172 82.8677 8.28897 82.8677 8.28622C82.8677 8.28348 82.8677 8.28073 82.8677 8.27799C82.8677 8.27525 82.8677 8.27252 82.8677 8.26979C82.8677 8.26706 82.8677 8.26432 82.8677 8.2616C82.8677 8.25887 82.8677 8.25615 82.8677 8.25342C82.8677 8.25071 82.8677 8.24798 82.8677 8.24527C82.8677 8.24255 82.8677 8.23984 82.8677 8.23713C82.8677 8.23442 82.8677 8.23171 82.8677 8.22901C82.8677 8.22631 82.8677 8.22361 82.8677 8.22091C82.8677 8.21822 82.8677 8.21552 82.8677 8.21283C82.8677 8.21013 82.8677 8.20744 82.8677 8.20476C82.8677 8.20208 82.8677 8.1994 82.8677 8.19671C82.8677 8.19403 82.8677 8.19136 82.8677 8.18869C82.8677 8.18601 82.8677 8.18335 82.8677 8.18068C82.8677 8.17802 82.8677 8.17535 82.8677 8.17269C82.8677 8.17003 82.8677 8.16737 82.8677 8.16472C82.8677 8.16206 82.8677 8.15941 82.8677 8.15677C82.8677 8.15412 82.8677 8.15147 82.8677 8.14883C82.8677 8.14619 82.8677 8.14355 82.8677 8.14092C82.8677 8.13828 82.8677 8.13565 82.8677 8.13302C82.8677 8.13039 82.8677 8.12777 82.8677 8.12514C82.8677 8.12252 82.8677 8.1199 82.8677 8.11729C82.8677 8.11467 82.8677 8.11206 82.8677 8.10945C82.8677 8.10685 82.8677 8.10424 82.8677 8.10164C82.8677 8.09903 82.8677 8.09644 82.8677 8.09384C82.8677 8.09125 82.8677 8.08865 82.8677 8.08607C82.8677 8.08348 82.8677 8.0809 82.8677 8.07831C82.8677 8.07573 82.8677 8.07315 82.8677 8.07058C82.8677 8.068 82.8677 8.06543 82.8677 8.06287C82.8677 8.0603 82.8677 8.05773 82.8677 8.05517C82.8677 8.05261 82.8677 8.05006 82.8677 8.0475C82.8677 8.04495 82.8677 8.0424 82.8677 8.03985C82.8677 8.0373 82.8677 8.03476 82.8677 8.03221C82.8677 8.02968 82.8677 8.02714 82.8677 8.02461C82.8677 8.02207 82.8677 8.01955 82.8677 8.01702C82.8677 8.01449 82.8677 8.01197 82.8677 8.00946C82.8677 8.00694 82.8677 8.00442 82.8677 8.00191C82.8677 7.9994 82.8677 7.9969 82.8677 7.99439C82.8677 7.99188 82.8677 7.98938 82.8677 7.98689C82.8677 7.98439 82.8677 7.9819 82.8677 7.97941C82.8677 7.97692 82.8677 7.97443 82.8677 7.97195C82.8677 7.96947 82.8677 7.967 82.8677 7.96452C82.8677 7.96205 82.8677 7.95957 82.8677 7.95711C82.8677 7.95464 82.8677 7.95218 82.8677 7.94972C82.8677 7.94726 82.8677 7.9448 82.8677 7.94236C82.8677 7.9399 82.8677 7.93746 82.8677 7.93501C82.8677 7.93257 82.8677 7.93013 82.8677 7.92769C82.8677 7.92525 82.8677 7.92282 82.8677 7.9204C82.8677 7.91797 82.8677 7.91554 82.8677 7.91312C82.8677 7.9107 82.8677 7.90828 82.8677 7.90587C82.8677 7.90346 82.8677 7.90105 82.8677 7.89864C82.8677 7.89624 82.8677 7.89384 82.8677 7.89144C82.8677 7.88904 82.8677 7.88665 82.8677 7.88426C82.8677 7.88187 82.8677 7.87948 82.8677 7.87711C82.8677 7.87472 82.8677 7.87234 82.8677 7.86998C82.8677 7.8676 82.8677 7.86523 82.8677 7.86286C82.8677 7.86051 82.8677 7.85814 82.8677 7.85579C82.8677 7.85343 82.8677 7.85108 82.8677 7.84873C82.8677 7.84638 82.8677 7.84403 82.8677 7.84169C82.8677 7.83935 82.8677 7.83702 82.8677 7.83468C82.8677 7.83235 82.8677 7.83002 82.8677 7.8277C82.8677 7.82538 82.8677 7.82305 82.8677 7.82074C82.8677 7.81842 82.8677 7.81611 82.8677 7.81381C82.8677 7.8115 82.8677 7.80919 82.8677 7.80689C82.8677 7.8046 82.8677 7.80231 82.8677 7.80001C82.8677 7.79772 82.8677 7.79544 82.8677 7.79316C82.8677 7.79088 82.8677 7.78859 82.8677 7.78632C82.8677 7.78405 82.8677 7.78178 82.8677 7.77951C82.8677 7.77725 82.8677 7.77499 82.8677 7.77273C82.8677 7.77047 82.8677 7.76823 82.8677 7.76598C82.8677 7.76374 82.8677 7.76149 82.8677 7.75925C82.8677 7.75701 82.8677 7.75478 82.8677 7.75255C82.8677 7.75032 82.8677 7.74809 82.8677 7.74587C82.8677 7.74365 82.8677 7.74144 82.8677 7.73922C82.8677 7.73701 82.8677 7.7348 82.8677 7.7326C82.8677 7.73039 82.8677 7.7282 82.8677 7.72601C82.8677 7.72381 82.8677 7.72162 82.8677 7.71943C82.8677 7.71725 82.8677 7.71507 82.8677 7.71289C82.8677 7.71071 82.8677 7.70855 82.8677 7.70638C82.8677 7.70421 82.8677 7.70205 82.8677 7.69989C82.8677 7.69773 82.8677 7.69558 82.8677 7.69343C82.8677 7.69129 82.8677 7.68913 82.8677 7.687C82.8677 7.68486 82.8677 7.68273 82.8677 7.68059C82.8677 7.67847 82.8677 7.67634 82.8677 7.67422C82.8677 7.6721 82.8677 7.66998 82.8677 7.66787C82.8677 7.66576 82.8677 7.66365 82.8677 7.66154C82.8677 7.65945 82.8677 7.65735 82.8677 7.65526C82.8677 7.65317 82.8677 7.65108 82.8677 7.64899C82.8677 7.64691 82.8677 7.64483 82.8677 7.64276C82.8677 7.64069 82.8677 7.63861 82.8677 7.63655C82.8677 7.63448 82.8677 7.63243 82.8677 7.63037C82.8677 7.62832 82.8677 7.62627 82.8677 7.62422C82.8677 7.62218 82.8677 7.62014 82.8677 7.61811C82.8677 7.61607 82.8677 7.61404 82.8677 7.61201C82.8677 7.60999 82.8677 7.60797 82.8677 7.60596C82.8677 7.60394 82.8677 7.60192 82.8677 7.59992C82.8677 7.59792 82.8677 7.59591 82.8677 7.59392C82.8677 7.59192 82.8677 7.58993 82.8677 7.58794C82.8677 7.58596 82.8677 7.58398 82.8677 7.582C82.8677 7.58002 82.8677 7.57805 82.8677 7.57609C82.8677 7.57413 82.8677 7.57216 82.8677 7.5702C82.8677 7.56825 82.8677 7.5663 82.8677 7.56436C82.8677 7.56241 82.8677 7.56046 82.8677 7.55853C82.8677 7.5566 82.8677 7.55467 82.8677 7.55274C82.8677 7.55082 82.8677 7.54889 82.8677 7.54698C82.8677 7.54507 82.8677 7.54315 82.8677 7.54125C82.8677 7.53934 82.8677 7.53744 82.8677 7.53555C82.8677 7.53365 82.8677 7.53176 82.8677 7.52988C82.8677 7.528 82.8677 7.52612 82.8677 7.52424C82.8677 7.52237 82.8677 7.52051 82.8677 7.51864C82.8677 7.51678 82.8677 7.51492 82.8677 7.51306C82.8677 7.51122 82.8677 7.50936 82.8677 7.50752C82.8677 7.50568 82.8677 7.50384 82.8677 7.50201C82.8677 7.50017 82.8677 7.49835 82.8677 7.49653C82.8677 7.49471 82.8677 7.4929 82.8677 7.49109C82.8677 7.48927 82.8677 7.48747 82.8677 7.48567C82.8677 7.48387 82.8677 7.48207 82.8677 7.48029C82.8677 7.4785 82.8677 7.47671 82.8677 7.47494C82.8677 7.47316 82.8677 7.47139 82.8677 7.46962C82.8677 7.46785 82.8677 7.46609 82.8677 7.46433C82.8677 7.46258 82.8677 7.46082 82.8677 7.45908C82.8677 7.45734 82.8677 7.45559 82.8677 7.45386C82.8677 7.45212 82.8677 7.4504 82.8677 7.44867C82.8677 7.44695 82.8677 7.44523 82.8677 7.44352C82.8677 7.4418 82.8677 7.44009 82.8677 7.43839C82.8677 7.43669 82.8677 7.435 82.8677 7.43331C82.8677 7.43162 82.8677 7.42994 82.8677 7.42825C82.8677 7.42658 82.8677 7.42491 82.8677 7.42323C82.8677 7.42157 82.8677 7.4199 82.8677 7.41825C82.8677 7.41659 82.8677 7.41494 82.8677 7.41329C82.8677 7.41165 82.8677 7.41001 82.8677 7.40837C82.8677 7.40674 82.8677 7.40511 82.8677 7.40349C82.8677 7.40187 82.8677 7.40026 82.8677 7.39864C82.8677 7.39703 82.8677 7.39543 82.8677 7.39383C82.8677 7.39223 82.8677 7.39064 82.8677 7.38905C82.8677 7.38746 82.8677 7.38588 82.8677 7.38431C82.8677 7.38273 82.8677 7.38116 82.8677 7.37959C82.8677 7.37803 82.8677 7.37647 82.8677 7.37491C82.8677 7.37336 82.8677 7.37182 82.8677 7.37027C82.8677 7.36874 82.8677 7.3672 82.8677 7.36567C82.8677 7.36414 82.8677 7.36261 82.8677 7.3611C82.8677 7.35958 82.8677 7.35807 82.8677 7.35656C82.8677 7.35506 82.8677 7.35356 82.8677 7.35207C82.8677 7.35057 82.8677 7.34908 82.8677 7.3476C82.8677 7.34612 82.8677 7.34464 82.8677 7.34318C82.8677 7.3417 82.8677 7.34024 82.8677 7.33878C82.8677 7.33732 82.8677 7.33587 82.8677 7.33442C82.8677 7.33298 82.8677 7.33154 82.8677 7.33011C82.8677 7.32867 82.8677 7.32724 82.8677 7.32582C82.8677 7.3244 82.8677 7.32298 82.8677 7.32158C82.8677 7.32017 82.8677 7.31877 82.8677 7.31736C82.8677 7.31597 82.8677 7.31458 82.8677 7.31319C82.8677 7.31181 82.8677 7.31043 82.8677 7.30906C82.8677 7.30768 82.8677 7.30632 82.8677 7.30496C82.8677 7.3036 82.8677 7.30225 82.8677 7.3009C82.8677 7.29955 82.8677 7.29821 82.8677 7.29688C82.8677 7.29554 82.8677 7.29421 82.8677 7.29289C82.8677 7.29157 82.8677 7.29025 82.8677 7.28894C82.8677 7.28763 82.8677 7.28633 82.8677 7.28503C82.8677 7.28373 82.8677 7.28244 82.8677 7.28115C82.8677 7.27987 82.8677 7.27859 82.8677 7.27732C82.8677 7.27604 82.8677 7.27479 82.8677 7.27352C82.8677 7.27226 82.8677 7.27101 82.8677 7.26976C82.8677 7.26851 82.8677 7.26728 82.8677 7.26604C82.8677 7.26481 82.8677 7.26358 82.8677 7.26237C82.8677 7.26114 82.8677 7.25993 82.8677 7.25871C82.8677 7.25751 82.8677 7.25631 82.8677 7.25511C82.8677 7.25392 82.8677 7.25273 82.8677 7.25155C82.8677 7.25036 82.8677 7.24919 82.8677 7.24802C82.8677 7.24685 82.8677 7.24569 82.8677 7.24453C82.8677 7.24338 82.8677 7.24223 82.8677 7.24109C82.8677 7.23994 82.8677 7.23881 82.8677 7.23768C82.8677 7.23654 82.8677 7.23543 82.8677 7.23431C82.8677 7.23319 82.8677 7.23209 82.8677 7.23098C82.8677 7.22987 82.8677 7.22878 82.8677 7.22769C82.8677 7.2266 82.8677 7.22552 82.8677 7.22444C82.8677 7.22336 82.8677 7.22229 82.8677 7.22123C82.8677 7.22017 82.8677 7.21911 82.8677 7.21806C82.8677 7.21701 82.8677 7.21597 82.8677 7.21493C82.8677 7.2139 82.8677 7.21287 82.8677 7.21184C82.8677 7.21082 82.8677 7.2098 82.8677 7.2088C82.8677 7.20779 82.8677 7.20679 82.8677 7.20579C82.8677 7.20479 82.8677 7.2038 82.8677 7.20282C82.8677 7.20184 82.8677 7.20087 82.8677 7.1999C82.8677 7.19893 82.8677 7.19797 82.8677 7.19702C82.8677 7.19607 82.8677 7.19511 82.8677 7.19418C82.8677 7.19323 82.8677 7.1923 82.8677 7.19137C82.8677 7.19045 82.8677 7.18953 82.8677 7.18862C82.8677 7.1877 82.8677 7.18679 82.8677 7.18589C82.8677 7.185 82.8677 7.18411 82.8677 7.18322C82.8677 7.18234 82.8677 7.18146 82.8677 7.18058C82.8677 7.17972 82.8677 7.17885 82.8677 7.17799C82.8677 7.17714 82.8677 7.17629 82.8677 7.17545C82.8677 7.1746 82.8677 7.17377 82.8677 7.17293C82.8677 7.17211 82.8677 7.17129 82.8677 7.17047C82.8677 7.16965 82.8677 7.16885 82.8677 7.16805C82.8677 7.16725 82.8677 7.16645 82.8677 7.16567C82.8677 7.16488 82.8677 7.1641 82.8677 7.16333C82.8677 7.16256 82.8677 7.1618 82.8677 7.16104C82.8677 7.16029 82.8677 7.15953 82.8677 7.15879C82.8677 7.15805 82.8677 7.15731 82.8677 7.15658C82.8677 7.15586 82.8677 7.15514 82.8677 7.15442C82.8677 7.1537 82.8677 7.153 82.8677 7.1523C82.8677 7.1516 82.8677 7.15091 82.8677 7.15023C82.8677 7.14954 82.8677 7.14886 82.8677 7.14819C82.8677 7.14752 82.8677 7.14686 82.8677 7.1462C82.8677 7.14554 82.8677 7.1449 82.8677 7.14426C82.8677 7.14362 82.8677 7.14298 82.8677 7.14236C82.8677 7.14173 82.8677 7.14111 82.8677 7.1405C82.8677 7.13989 82.8677 7.13929 82.8677 7.13869C82.8677 7.13809 82.8677 7.1375 82.8677 7.13692C82.8677 7.13634 82.8677 7.13577 82.8677 7.1352C82.8677 7.13463 82.8677 7.13408 82.8677 7.13352C82.8677 7.13297 82.8677 7.13243 82.8677 7.13189C82.8677 7.13135 82.8677 7.13082 82.8677 7.1303C82.8677 7.12978 82.8677 7.12926 82.8677 7.12876C82.8677 7.12826 82.8677 7.12775 82.8677 7.12726C82.8677 7.12677 82.8677 7.12629 82.8677 7.12581C82.8677 7.12533 82.8677 7.12487 82.8677 7.12441C82.8677 7.12395 82.8677 7.12349 82.8677 7.12304C82.8677 7.1226 82.8677 7.12216 82.8677 7.12173C82.8677 7.1213 82.8677 7.12088 82.8677 7.12046C82.8677 7.12005 82.8677 7.11964 82.8677 7.11924C82.8677 7.11885 82.8677 7.11845 82.8677 7.11807C82.8677 7.11768 82.8677 7.1173 82.8677 7.11694C82.8677 7.11656 82.8677 7.11621 82.8677 7.11585C82.8677 7.1155 82.8677 7.11516 82.8677 7.11482C82.8677 7.11448 82.8677 7.11415 82.8677 7.11383C82.8677 7.11351 82.8677 7.11319 82.8677 7.11289C82.8677 7.11258 82.8677 7.11228 82.8677 7.11199C82.8677 7.1117 82.8677 7.11142 82.8677 7.11114C82.8677 7.11087 82.8677 7.11061 82.8677 7.11035C82.8677 7.11009 82.8677 7.10983 82.8677 7.10959C82.8677 7.10935 82.8677 7.10911 82.8677 7.10889C82.8677 7.10866 82.8677 7.10844 82.8677 7.10823C82.8677 7.10802 82.8677 7.10781 82.8677 7.10762C82.8677 7.10742 82.8677 7.10724 82.8677 7.10706C82.8677 7.10688 82.8677 7.10671 82.8677 7.10655C82.8677 7.10638 82.8677 7.10623 82.8677 7.10608C82.8677 7.10593 82.8677 7.10579 82.8677 7.10566C82.8677 7.10553 82.8677 7.10541 82.8677 7.1053C82.8677 7.10518 82.8677 7.10507 82.8677 7.10498C82.8677 7.10487 82.8677 7.10479 82.8677 7.10471C82.8677 7.10462 82.8677 7.10455 82.8677 7.10448C82.8677 7.10441 82.8677 7.10436 82.8677 7.10431C82.8677 7.10426 82.8677 7.10422 82.8677 7.10419C82.8677 7.10415 82.8677 7.10413 82.8677 7.10411C82.8677 7.10409 82.8677 7.10408 82.7441 7.10408C82.6205 7.10408 82.6206 7.10409 82.6206 7.10411C82.6206 7.10413 82.6206 7.10415 82.6206 7.10419C82.6206 7.10422 82.6206 7.10426 82.6206 7.10431C82.6206 7.10436 82.6206 7.10441 82.6206 7.10448C82.6206 7.10455 82.6206 7.10462 82.6206 7.10471C82.6206 7.10479 82.6206 7.10487 82.6206 7.10498C82.6206 7.10507 82.6206 7.10518 82.6206 7.1053C82.6206 7.10541 82.6206 7.10553 82.6206 7.10566C82.6206 7.10579 82.6206 7.10593 82.6206 7.10608C82.6206 7.10623 82.6206 7.10638 82.6206 7.10655C82.6206 7.10671 82.6206 7.10688 82.6206 7.10706C82.6206 7.10724 82.6206 7.10742 82.6206 7.10762C82.6206 7.10781 82.6206 7.10802 82.6206 7.10823C82.6206 7.10844 82.6206 7.10866 82.6206 7.10889C82.6206 7.10911 82.6206 7.10935 82.6206 7.10959C82.6206 7.10983 82.6206 7.11009 82.6206 7.11035C82.6206 7.11061 82.6206 7.11087 82.6206 7.11114C82.6206 7.11142 82.6206 7.1117 82.6206 7.11199C82.6206 7.11228 82.6206 7.11258 82.6206 7.11289C82.6206 7.11319 82.6206 7.11351 82.6206 7.11383C82.6206 7.11415 82.6206 7.11448 82.6206 7.11482C82.6206 7.11516 82.6206 7.1155 82.6206 7.11585C82.6206 7.11621 82.6206 7.11656 82.6206 7.11694C82.6206 7.1173 82.6206 7.11768 82.6206 7.11807C82.6206 7.11845 82.6206 7.11885 82.6206 7.11924C82.6206 7.11964 82.6206 7.12005 82.6206 7.12046C82.6206 7.12088 82.6206 7.1213 82.6206 7.12173C82.6206 7.12216 82.6206 7.1226 82.6206 7.12304C82.6206 7.12349 82.6206 7.12395 82.6206 7.12441C82.6206 7.12487 82.6206 7.12533 82.6206 7.12581C82.6206 7.12629 82.6206 7.12677 82.6206 7.12726C82.6206 7.12775 82.6206 7.12826 82.6206 7.12876C82.6206 7.12926 82.6206 7.12978 82.6206 7.1303C82.6206 7.13082 82.6206 7.13135 82.6206 7.13189C82.6206 7.13243 82.6206 7.13297 82.6206 7.13352C82.6206 7.13408 82.6206 7.13463 82.6206 7.1352C82.6206 7.13577 82.6206 7.13634 82.6206 7.13692C82.6206 7.1375 82.6206 7.13809 82.6206 7.13869C82.6206 7.13929 82.6206 7.13989 82.6206 7.1405C82.6206 7.14111 82.6206 7.14173 82.6206 7.14236C82.6206 7.14298 82.6206 7.14362 82.6206 7.14426C82.6206 7.1449 82.6206 7.14554 82.6206 7.1462C82.6206 7.14686 82.6206 7.14752 82.6206 7.14819C82.6206 7.14886 82.6206 7.14954 82.6206 7.15023C82.6206 7.15091 82.6206 7.1516 82.6206 7.1523C82.6206 7.153 82.6206 7.1537 82.6206 7.15442C82.6206 7.15514 82.6206 7.15586 82.6206 7.15658C82.6206 7.15731 82.6206 7.15805 82.6206 7.15879C82.6206 7.15953 82.6206 7.16029 82.6206 7.16104C82.6206 7.1618 82.6206 7.16256 82.6206 7.16333C82.6206 7.1641 82.6206 7.16488 82.6206 7.16567C82.6206 7.16645 82.6206 7.16725 82.6206 7.16805C82.6206 7.16885 82.6206 7.16965 82.6206 7.17047C82.6206 7.17129 82.6206 7.17211 82.6206 7.17293C82.6206 7.17377 82.6206 7.1746 82.6206 7.17545C82.6206 7.17629 82.6206 7.17714 82.6206 7.17799C82.6206 7.17885 82.6206 7.17972 82.6206 7.18058C82.6206 7.18146 82.6206 7.18234 82.6206 7.18322C82.6206 7.18411 82.6206 7.185 82.6206 7.18589C82.6206 7.18679 82.6206 7.1877 82.6206 7.18862C82.6206 7.18953 82.6206 7.19045 82.6206 7.19137C82.6206 7.1923 82.6206 7.19323 82.6206 7.19418C82.6206 7.19511 82.6206 7.19607 82.6206 7.19702C82.6206 7.19797 82.6206 7.19893 82.6206 7.1999C82.6206 7.20087 82.6206 7.20184 82.6206 7.20282C82.6206 7.2038 82.6206 7.20479 82.6206 7.20579C82.6206 7.20679 82.6206 7.20779 82.6206 7.2088C82.6206 7.2098 82.6206 7.21082 82.6206 7.21184C82.6206 7.21287 82.6206 7.2139 82.6206 7.21493C82.6206 7.21597 82.6206 7.21701 82.6206 7.21806C82.6206 7.21911 82.6206 7.22017 82.6206 7.22123C82.6206 7.22229 82.6206 7.22336 82.6206 7.22444C82.6206 7.22552 82.6206 7.2266 82.6206 7.22769C82.6206 7.22878 82.6206 7.22987 82.6206 7.23098C82.6206 7.23209 82.6206 7.23319 82.6206 7.23431C82.6206 7.23543 82.6206 7.23654 82.6206 7.23768C82.6206 7.23881 82.6206 7.23994 82.6206 7.24109C82.6206 7.24223 82.6206 7.24338 82.6206 7.24453C82.6206 7.24569 82.6206 7.24685 82.6206 7.24802C82.6206 7.24919 82.6206 7.25036 82.6206 7.25155C82.6206 7.25273 82.6206 7.25392 82.6206 7.25511C82.6206 7.25631 82.6206 7.25751 82.6206 7.25871C82.6206 7.25993 82.6206 7.26114 82.6206 7.26237C82.6206 7.26358 82.6206 7.26481 82.6206 7.26604C82.6206 7.26728 82.6206 7.26851 82.6206 7.26976C82.6206 7.27101 82.6206 7.27226 82.6206 7.27352C82.6206 7.27479 82.6206 7.27604 82.6206 7.27732C82.6206 7.27859 82.6206 7.27987 82.6206 7.28115C82.6206 7.28244 82.6206 7.28373 82.6206 7.28503C82.6206 7.28633 82.6206 7.28763 82.6206 7.28894C82.6206 7.29025 82.6206 7.29157 82.6206 7.29289C82.6206 7.29421 82.6206 7.29554 82.6206 7.29688C82.6206 7.29821 82.6206 7.29955 82.6206 7.3009C82.6206 7.30225 82.6206 7.3036 82.6206 7.30496C82.6206 7.30632 82.6206 7.30768 82.6206 7.30906C82.6206 7.31043 82.6206 7.31181 82.6206 7.31319C82.6206 7.31458 82.6206 7.31597 82.6206 7.31736C82.6206 7.31877 82.6206 7.32017 82.6206 7.32158C82.6206 7.32298 82.6206 7.3244 82.6206 7.32582C82.6206 7.32724 82.6206 7.32867 82.6206 7.33011C82.6206 7.33154 82.6206 7.33298 82.6206 7.33442C82.6206 7.33587 82.6206 7.33732 82.6206 7.33878C82.6206 7.34024 82.6206 7.3417 82.6206 7.34318C82.6206 7.34464 82.6206 7.34612 82.6206 7.3476C82.6206 7.34908 82.6206 7.35057 82.6206 7.35207C82.6206 7.35356 82.6206 7.35506 82.6206 7.35656C82.6206 7.35807 82.6206 7.35958 82.6206 7.3611C82.6206 7.36261 82.6206 7.36414 82.6206 7.36567C82.6206 7.3672 82.6206 7.36874 82.6206 7.37027C82.6206 7.37182 82.6206 7.37336 82.6206 7.37491C82.6206 7.37647 82.6206 7.37803 82.6206 7.37959C82.6206 7.38116 82.6206 7.38273 82.6206 7.38431C82.6206 7.38588 82.6206 7.38746 82.6206 7.38905C82.6206 7.39064 82.6206 7.39223 82.6206 7.39383C82.6206 7.39543 82.6206 7.39703 82.6206 7.39864C82.6206 7.40026 82.6206 7.40187 82.6206 7.40349C82.6206 7.40511 82.6206 7.40674 82.6206 7.40837C82.6206 7.41001 82.6206 7.41165 82.6206 7.41329C82.6206 7.41494 82.6206 7.41659 82.6206 7.41825C82.6206 7.4199 82.6206 7.42157 82.6206 7.42323C82.6206 7.42491 82.6206 7.42658 82.6206 7.42825C82.6206 7.42994 82.6206 7.43162 82.6206 7.43331C82.6206 7.435 82.6206 7.43669 82.6206 7.43839C82.6206 7.44009 82.6206 7.4418 82.6206 7.44352C82.6206 7.44523 82.6206 7.44695 82.6206 7.44867C82.6206 7.4504 82.6206 7.45212 82.6206 7.45386C82.6206 7.45559 82.6206 7.45734 82.6206 7.45908C82.6206 7.46082 82.6206 7.46258 82.6206 7.46433C82.6206 7.46609 82.6206 7.46785 82.6206 7.46962C82.6206 7.47139 82.6206 7.47316 82.6206 7.47494C82.6206 7.47671 82.6206 7.4785 82.6206 7.48029C82.6206 7.48207 82.6206 7.48387 82.6206 7.48567C82.6206 7.48747 82.6206 7.48927 82.6206 7.49109C82.6206 7.4929 82.6206 7.49471 82.6206 7.49653C82.6206 7.49835 82.6206 7.50017 82.6206 7.50201C82.6206 7.50384 82.6206 7.50568 82.6206 7.50752C82.6206 7.50936 82.6206 7.51122 82.6206 7.51306C82.6206 7.51492 82.6206 7.51678 82.6206 7.51864C82.6206 7.52051 82.6206 7.52237 82.6206 7.52424C82.6206 7.52612 82.6206 7.528 82.6206 7.52988C82.6206 7.53176 82.6206 7.53365 82.6206 7.53555C82.6206 7.53744 82.6206 7.53934 82.6206 7.54125C82.6206 7.54315 82.6206 7.54507 82.6206 7.54698C82.6206 7.54889 82.6206 7.55082 82.6206 7.55274C82.6206 7.55467 82.6206 7.5566 82.6206 7.55853C82.6206 7.56046 82.6206 7.56241 82.6206 7.56436C82.6206 7.5663 82.6206 7.56825 82.6206 7.5702C82.6206 7.57216 82.6206 7.57413 82.6206 7.57609C82.6206 7.57805 82.6206 7.58002 82.6206 7.582C82.6206 7.58398 82.6206 7.58596 82.6206 7.58794C82.6206 7.58993 82.6206 7.59192 82.6206 7.59392C82.6206 7.59591 82.6206 7.59792 82.6206 7.59992C82.6206 7.60192 82.6206 7.60394 82.6206 7.60596C82.6206 7.60797 82.6206 7.60999 82.6206 7.61201C82.6206 7.61404 82.6206 7.61607 82.6206 7.61811C82.6206 7.62014 82.6206 7.62218 82.6206 7.62422C82.6206 7.62627 82.6206 7.62832 82.6206 7.63037C82.6206 7.63243 82.6206 7.63448 82.6206 7.63655C82.6206 7.63861 82.6206 7.64069 82.6206 7.64276C82.6206 7.64483 82.6206 7.64691 82.6206 7.64899C82.6206 7.65108 82.6206 7.65317 82.6206 7.65526C82.6206 7.65735 82.6206 7.65945 82.6206 7.66154C82.6206 7.66365 82.6206 7.66576 82.6206 7.66787C82.6206 7.66998 82.6206 7.6721 82.6206 7.67422C82.6206 7.67634 82.6206 7.67847 82.6206 7.68059C82.6206 7.68273 82.6206 7.68486 82.6206 7.687C82.6206 7.68913 82.6206 7.69129 82.6206 7.69343C82.6206 7.69558 82.6206 7.69773 82.6206 7.69989C82.6206 7.70205 82.6206 7.70421 82.6206 7.70638C82.6206 7.70855 82.6206 7.71071 82.6206 7.71289C82.6206 7.71507 82.6206 7.71725 82.6206 7.71943C82.6206 7.72162 82.6206 7.72381 82.6206 7.72601C82.6206 7.7282 82.6206 7.73039 82.6206 7.7326C82.6206 7.7348 82.6206 7.73701 82.6206 7.73922C82.6206 7.74144 82.6206 7.74365 82.6206 7.74587C82.6206 7.74809 82.6206 7.75032 82.6206 7.75255C82.6206 7.75478 82.6206 7.75701 82.6206 7.75925C82.6206 7.76149 82.6206 7.76374 82.6206 7.76598C82.6206 7.76823 82.6206 7.77047 82.6206 7.77273C82.6206 7.77499 82.6206 7.77725 82.6206 7.77951C82.6206 7.78178 82.6206 7.78405 82.6206 7.78632C82.6206 7.78859 82.6206 7.79088 82.6206 7.79316C82.6206 7.79544 82.6206 7.79772 82.6206 7.80001C82.6206 7.80231 82.6206 7.8046 82.6206 7.80689C82.6206 7.80919 82.6206 7.8115 82.6206 7.81381C82.6206 7.81611 82.6206 7.81842 82.6206 7.82074C82.6206 7.82305 82.6206 7.82538 82.6206 7.8277C82.6206 7.83002 82.6206 7.83235 82.6206 7.83468C82.6206 7.83702 82.6206 7.83935 82.6206 7.84169C82.6206 7.84403 82.6206 7.84638 82.6206 7.84873C82.6206 7.85108 82.6206 7.85343 82.6206 7.85579C82.6206 7.85814 82.6206 7.86051 82.6206 7.86286C82.6206 7.86523 82.6206 7.8676 82.6206 7.86998C82.6206 7.87234 82.6206 7.87472 82.6206 7.87711C82.6206 7.87948 82.6206 7.88187 82.6206 7.88426C82.6206 7.88665 82.6206 7.88904 82.6206 7.89144C82.6206 7.89384 82.6206 7.89624 82.6206 7.89864C82.6206 7.90105 82.6206 7.90346 82.6206 7.90587C82.6206 7.90828 82.6206 7.9107 82.6206 7.91312C82.6206 7.91554 82.6206 7.91797 82.6206 7.9204C82.6206 7.92282 82.6206 7.92525 82.6206 7.92769C82.6206 7.93013 82.6206 7.93257 82.6206 7.93501C82.6206 7.93746 82.6206 7.9399 82.6206 7.94236C82.6206 7.9448 82.6206 7.94726 82.6206 7.94972C82.6206 7.95218 82.6206 7.95464 82.6206 7.95711C82.6206 7.95957 82.6206 7.96205 82.6206 7.96452C82.6206 7.967 82.6206 7.96947 82.6206 7.97195C82.6206 7.97443 82.6206 7.97692 82.6206 7.97941C82.6206 7.9819 82.6206 7.98439 82.6206 7.98689C82.6206 7.98938 82.6206 7.99188 82.6206 7.99439C82.6206 7.9969 82.6206 7.9994 82.6206 8.00191C82.6206 8.00442 82.6206 8.00694 82.6206 8.00946C82.6206 8.01197 82.6206 8.01449 82.6206 8.01702C82.6206 8.01955 82.6206 8.02207 82.6206 8.02461C82.6206 8.02714 82.6206 8.02968 82.6206 8.03221C82.6206 8.03476 82.6206 8.0373 82.6206 8.03985C82.6206 8.0424 82.6206 8.04495 82.6206 8.0475C82.6206 8.05006 82.6206 8.05261 82.6206 8.05517C82.6206 8.05773 82.6206 8.0603 82.6206 8.06287C82.6206 8.06543 82.6206 8.068 82.6206 8.07058C82.6206 8.07315 82.6206 8.07573 82.6206 8.07831C82.6206 8.0809 82.6206 8.08348 82.6206 8.08607C82.6206 8.08865 82.6206 8.09125 82.6206 8.09384C82.6206 8.09644 82.6206 8.09903 82.6206 8.10164C82.6206 8.10424 82.6206 8.10685 82.6206 8.10945C82.6206 8.11206 82.6206 8.11467 82.6206 8.11729C82.6206 8.1199 82.6206 8.12252 82.6206 8.12514C82.6206 8.12777 82.6206 8.13039 82.6206 8.13302C82.6206 8.13565 82.6206 8.13828 82.6206 8.14092C82.6206 8.14355 82.6206 8.14619 82.6206 8.14883C82.6206 8.15147 82.6206 8.15412 82.6206 8.15677C82.6206 8.15941 82.6206 8.16206 82.6206 8.16472C82.6206 8.16737 82.6206 8.17003 82.6206 8.17269C82.6206 8.17535 82.6206 8.17802 82.6206 8.18068C82.6206 8.18335 82.6206 8.18601 82.6206 8.18869C82.6206 8.19136 82.6206 8.19403 82.6206 8.19671C82.6206 8.1994 82.6206 8.20208 82.6206 8.20476C82.6206 8.20744 82.6206 8.21013 82.6206 8.21283C82.6206 8.21552 82.6206 8.21822 82.6206 8.22091C82.6206 8.22361 82.6206 8.22631 82.6206 8.22901C82.6206 8.23171 82.6206 8.23442 82.6206 8.23713C82.6206 8.23984 82.6206 8.24255 82.6206 8.24527C82.6206 8.24798 82.6206 8.25071 82.6206 8.25342C82.6206 8.25615 82.6206 8.25887 82.6206 8.2616C82.6206 8.26432 82.6206 8.26706 82.6206 8.26979C82.6206 8.27252 82.6206 8.27525 82.6206 8.27799C82.6206 8.28073 82.6206 8.28348 82.6206 8.28622C82.6206 8.28897 82.6206 8.29172 82.6206 8.29447C82.6206 8.29721 82.6206 8.29996 82.6206 8.30272C82.6206 8.30547 82.6206 8.30824 82.6206 8.311C82.6206 8.31376 82.6206 8.31652 82.6206 8.31929C82.6206 8.32206 82.6206 8.32482 82.6206 8.3276C82.6206 8.33036 82.6206 8.33314 82.6206 8.33592C82.6206 8.3387 82.6206 8.34148 82.6206 8.34426C82.6206 8.34704 82.6206 8.34983 82.6206 8.35262C82.6206 8.35541 82.6206 8.3582 82.6206 8.36099C82.6206 8.36379 82.6206 8.36659 82.6206 8.36939C82.6206 8.37218 82.6206 8.37498 82.6206 8.37779C82.6206 8.38059 82.6206 8.3834 82.6206 8.38621C82.6206 8.38902 82.6206 8.39183 82.6206 8.39464C82.6206 8.39746 82.6206 8.40028 82.6206 8.4031C82.6206 8.40592 82.6206 8.40874 82.6206 8.41157C82.6206 8.41439 82.6206 8.41722 82.6206 8.42005C82.6206 8.42288 82.6206 8.42571 82.6206 8.42854C82.6206 8.43138 82.6206 8.43421 82.6206 8.43706C82.6206 8.43989 82.6206 8.44274 82.6206 8.44558C82.6206 8.44843 82.6206 8.45127 82.6206 8.45413C82.6206 8.45697 82.6206 8.45983 82.6206 8.46268C82.6206 8.46553 82.6206 8.46839 82.6206 8.47125C82.6206 8.47411 82.6206 8.47697 82.6206 8.47984C82.6206 8.4827 82.6206 8.48556 82.6206 8.48843C82.6206 8.4913 82.6206 8.49417 82.6206 8.49704C82.6206 8.49991 82.6206 8.50279 82.6206 8.50566C82.6206 8.50854 82.6206 8.51142 82.6206 8.51431C82.6206 8.51719 82.6206 8.52007 82.6206 8.52296C82.6206 8.52585 82.6206 8.52874 82.6206 8.53162C82.6206 8.53452 82.6206 8.53741 82.6206 8.54031C82.6206 8.5432 82.6206 8.5461 82.6206 8.549C82.6206 8.5519 82.6206 8.5548 82.6206 8.55771C82.6206 8.56061 82.6206 8.56352 82.6206 8.56642C82.6206 8.56934 82.6206 8.57224 82.6206 8.57516C82.6206 8.57807 82.6206 8.58098 82.6206 8.5839C82.6206 8.58681 82.6206 8.58974 82.6206 8.59266C82.6206 8.59557 82.6206 8.5985 82.6206 8.60143C82.6206 8.60435 82.6206 8.60727 82.6206 8.61021C82.6206 8.61314 82.6206 8.61607 82.6206 8.619C82.6206 8.62193 82.6206 8.62486 82.6206 8.6278C82.6206 8.63074 82.6206 8.63368 82.6206 8.63662C82.6206 8.63956 82.6206 8.64251 82.6206 8.64545C82.6206 8.6484 82.6206 8.65134 82.6206 8.65428C82.6206 8.65723 82.6206 8.66019 82.6206 8.66314C82.6206 8.66609 82.6206 8.66905 82.6206 8.672C82.6206 8.67496 82.6206 8.67792 82.6206 8.68088C82.6206 8.68383 82.6206 8.6868 82.6206 8.68976C82.6206 8.69272 82.6206 8.69569 82.6206 8.69866C82.6206 8.70162 82.6206 8.70459 82.6206 8.70757C82.6206 8.71053 82.6206 8.71351 82.6206 8.71648C82.6206 8.71946 82.6206 8.72243 82.6206 8.72541C82.6206 8.72838 82.6206 8.73137 82.6206 8.73435C82.6206 8.73732 82.6206 8.74031 82.6206 8.74329C82.6206 8.74627 82.6206 8.74927 82.6206 8.75225C82.6206 8.75523 82.6206 8.75823 82.6206 8.76122C82.6206 8.76421 82.6206 8.7672 82.6206 8.7702C82.6206 8.77319 82.6206 8.77619 82.6206 8.77918C82.6206 8.78218 82.6206 8.78518 82.6206 8.78819C82.6206 8.79119 82.6206 8.79419 82.6206 8.79719C82.6206 8.80019 82.6206 8.8032 82.6206 8.80621C82.6206 8.80921 82.6206 8.81222 82.6206 8.81523C82.6206 8.81824 82.6206 8.82125 82.6206 8.82427C82.6206 8.82728 82.6206 8.8303 82.6206 8.8333C82.6206 8.83632 82.6206 8.83934 82.6206 8.84236C82.6206 8.84538 82.6206 8.8484 82.6206 8.85142C82.6206 8.85444 82.6206 8.85747 82.6206 8.86049C82.6206 8.86351 82.6206 8.86654 82.6206 8.86957C82.6206 8.8726 82.6206 8.87562 82.6206 8.87865C82.6206 8.88169 82.6206 8.88471 82.6206 8.88775C82.6206 8.89078 82.6206 8.89381 82.6206 8.89685C82.6206 8.89988 82.6206 8.90292 82.6206 8.90595C82.6206 8.909 82.6206 8.91203 82.6206 8.91508C82.6206 8.91811 82.6206 8.92116 82.6206 8.9242C82.6206 8.92725 82.6206 8.93029 82.6206 8.93334C82.6206 8.93638 82.6206 8.93942 82.6206 8.94247C82.6206 8.94552 82.6206 8.94857 82.6206 8.95162C82.6206 8.95467 82.6206 8.95772 82.6206 8.96077C82.6206 8.96382 82.6206 8.96688 82.6206 8.96994C82.6206 8.97299 82.6206 8.97604 82.6206 8.97911C82.6206 8.98216 82.6206 8.98522 82.6206 8.98827C82.6206 8.99134 82.6206 8.9944 82.6206 8.99746C82.6206 9.00052 82.6206 9.00358 82.6206 9.00664C82.6206 9.00971 82.6206 9.01278 82.6206 9.01584C82.6206 9.01891 82.6206 9.02197 82.6206 9.02504C82.6206 9.02811 82.6206 9.03117 82.6206 9.03424C82.6206 9.03731 82.6206 9.04038 82.6206 9.04345C82.6206 9.04652 82.6206 9.0496 82.6206 9.05267C82.6206 9.05574 82.6206 9.05882 82.6206 9.06189C82.6206 9.06497 82.6206 9.06805 82.6206 9.07112C82.6206 9.0742 82.6206 9.07728 82.6206 9.08036C82.6206 9.08344 82.6206 9.08652 82.6206 9.0896C82.6206 9.09268 82.6206 9.09576 82.6206 9.09884C82.6206 9.10192 82.6206 9.10501 82.6206 9.10809C82.6206 9.11118 82.6206 9.11426 82.6206 9.11734C82.6206 9.12043 82.6206 9.12352 82.6206 9.12661C82.6206 9.12969 82.6206 9.13278 82.6206 9.13587C82.6206 9.13896 82.6206 9.14205 82.6206 9.14513C82.6206 9.14823 82.6206 9.15132 82.6206 9.15441C82.6206 9.1575 82.6206 9.16059 82.6206 9.16369C82.6206 9.16677 82.6206 9.16987 82.6206 9.17297C82.6206 9.17606 82.6206 9.17915 82.6206 9.18225C82.6206 9.18534 82.6206 9.18844 82.6206 9.19154C82.6206 9.19463 82.6206 9.19773 82.6206 9.20083C82.6206 9.20393 82.6206 9.20703 82.6206 9.21012C82.6206 9.21322 82.6206 9.21632 82.6206 9.21942C82.6206 9.22253 82.6206 9.22562 82.6206 9.22873C82.6206 9.23182 82.6206 9.23493 82.6206 9.23803C82.6206 9.24113 82.6206 9.24424 82.6206 9.24733C82.6206 9.25044 82.6206 9.25354 82.6206 9.25665C82.6206 9.25975 82.6206 9.26286 82.6206 9.26596C82.6206 9.26907 82.6206 9.27217 82.6206 9.27528C82.6206 9.27838 82.6206 9.28149 82.6206 9.28459C82.6206 9.2877 82.6206 9.29081 82.6206 9.29392C82.6206 9.29702 82.6206 9.30013 82.6206 9.30324C82.6206 9.30635 82.6206 9.30945 82.6206 9.31257C82.6206 9.31567 82.6206 9.31878 82.6206 9.32189C82.6206 9.325 82.6206 9.32811 82.6206 9.33122C82.6206 9.33433 82.6206 9.33744 82.6206 9.34055C82.6206 9.34366 82.6206 9.34677 82.6206 9.34988C82.6206 9.35299 82.6206 9.35611 82.6206 9.35921C82.6206 9.36233 82.6206 9.36544 82.6206 9.36855C82.6206 9.37166 82.6206 9.37477 82.6206 9.37789C82.6206 9.381 82.6206 9.38411 82.6206 9.38723C82.6206 9.39033 82.6206 9.39345 82.6206 9.39656C82.6206 9.39967 82.6206 9.40279 82.6206 9.4059C82.6206 9.40901 82.6206 9.41213 82.6206 9.41524C82.6206 9.41835 82.6206 9.42146 82.6206 9.42458C82.6206 9.42769 82.6206 9.4308 82.6206 9.43392C82.6206 9.43703 82.6206 9.44014 82.6206 9.44326C82.6206 9.44637 82.6206 9.44948 82.6206 9.4526C82.6206 9.45571 82.6206 9.45883 82.6206 9.46194C82.6206 9.46505 82.6206 9.46817 82.6206 9.47128C82.6206 9.4744 82.6206 9.47751 82.6206 9.48061C82.6206 9.48373 82.6206 9.48684 82.6206 9.48996C82.6206 9.49307 82.6206 9.49618 82.6206 9.4993C82.6206 9.50241 82.6206 9.50552 82.6206 9.50864C82.6206 9.51174 82.6206 9.51486 82.6206 9.51797C82.6206 9.52109 82.6206 9.5242 82.6206 9.5273C82.6206 9.53042 82.6206 9.53353 82.6206 9.53664C82.6206 9.53976 82.6206 9.54286 82.6206 9.54598C82.6206 9.54909 82.6206 9.5522 82.6206 9.55531C82.6206 9.55842 82.6206 9.56151 82.6206 9.56463C82.6206 9.56776 82.6206 9.57088 82.6206 9.574C82.6206 9.57704 82.6206 9.58016 82.6206 9.58328C82.6206 9.5864 82.6206 9.58953 82.6206 9.59265C82.6206 9.59577 82.6206 9.59881 82.6206 9.60193C82.6206 9.60505 82.6206 9.60817 82.6206 9.6113C82.6206 9.61433 82.6206 9.61746 82.6206 9.62058C82.6206 9.6237 82.6206 9.62682 82.6206 9.62995C82.6206 9.63298 82.6206 9.6361 82.6206 9.63923C82.6206 9.64235 82.6206 9.64538 82.6206 9.64851C82.6206 9.65163 82.6206 9.65475 82.6206 9.65787C82.6206 9.66091 82.6206 9.66403 82.6206 9.66716C82.6206 9.67028 82.6206 9.67331 82.6206 9.67643C82.6206 9.67956 82.6206 9.68268 82.6206 9.68572C82.6206 9.68884 82.6206 9.69196 82.6206 9.69508C82.6206 9.69812 82.6206 9.70124 82.6206 9.70436C82.6206 9.7074 82.6206 9.71052 82.6206 9.71364C82.6206 9.71668 82.6206 9.7198 82.6206 9.72292C82.6206 9.72605 82.6206 9.72908 82.6206 9.73221C82.6206 9.73533 82.6206 9.73836 82.6206 9.74149C82.6206 9.74452 82.6206 9.74764 82.6206 9.75077C82.6206 9.7538 82.6206 9.75692 82.6206 9.76005C82.6206 9.76308 82.6206 9.76621 82.6206 9.76924C82.6206 9.77236 82.6206 9.77549 82.6206 9.77852C82.6206 9.78164 82.6206 9.78468 82.6206 9.7878C82.6206 9.79084 82.6206 9.79396 82.6206 9.79708C82.6206 9.80012 82.6206 9.80324 82.6206 9.80628C82.6206 9.8094 82.6206 9.81244 82.6206 9.81556C82.6206 9.81859 82.6206 9.82172 82.6206 9.82475C82.6206 9.82787 82.6206 9.83091 82.6206 9.83403C82.6206 9.83707 82.6206 9.84019 82.6206 9.84323C82.6206 9.84626 82.6206 9.84938 82.6206 9.85242C82.6206 9.85554 82.6206 9.85858 82.6206 9.8617C82.6206 9.86474 82.6206 9.86777 82.6206 9.87089C82.6206 9.87393 82.6206 9.87697 82.6206 9.88009C82.6206 9.88312 82.6206 9.88616 82.6206 9.88928C82.6206 9.89232 82.6206 9.89535 82.6206 9.89848C82.6206 9.90151 82.6206 9.90455 82.6206 9.90767C82.6206 9.91071 82.6206 9.91374 82.6206 9.91678C82.6206 9.9199 82.6206 9.92294 82.6206 9.92597C82.6206 9.92901 82.6206 9.93213 82.6206 9.93517C82.6206 9.9382 82.6206 9.94124 82.6206 9.94427C82.6206 9.94739 82.6206 9.95043 82.6206 9.95347C82.6206 9.9565 82.6206 9.95954 82.6206 9.96257C82.6206 9.96561 82.6206 9.96873 82.6206 9.97177C82.6206 9.9748 82.6206 9.97784 82.6206 9.98087C82.6206 9.98391 82.6206 9.98695 82.6206 9.98998C82.6206 9.99302 82.6206 9.99605 82.6206 9.99909C82.6206 10.0021 82.6206 10.0052 82.6206 10.0082C82.6206 10.0112 82.6206 10.0143 82.6206 10.0173C82.6206 10.0203 82.6206 10.0234 82.6206 10.0264C82.6206 10.0294 82.6206 10.0324 82.6206 10.0354C82.6206 10.0385 82.6206 10.0415 82.6206 10.0445C82.6206 10.0476 82.6206 10.0506 82.6206 10.0536C82.6206 10.0566 82.6206 10.0596 82.6206 10.0627C82.6206 10.0657 82.6206 10.0687 82.6206 10.0717C82.6206 10.0747 82.6206 10.0778 82.6206 10.0807C82.6206 10.0837 82.6206 10.0868 82.6206 10.0897C82.6206 10.0928 82.6206 10.0958 82.6206 10.0987C82.6206 10.1018 82.6206 10.1048 82.6206 10.1078C82.6206 10.1108 82.6206 10.1138 82.6206 10.1168C82.6206 10.1198 82.6206 10.1228 82.6206 10.1258C82.6206 10.1288 82.6206 10.1318 82.6206 10.1347C82.6206 10.1378 82.6206 10.1407 82.6206 10.1438C82.6206 10.1467 82.6206 10.1497 82.6206 10.1527C82.6206 10.1556 82.6206 10.1587 82.6206 10.1616C82.6206 10.1647 82.6206 10.1676 82.6206 10.1706C82.6206 10.1736 82.6206 10.1765 82.6206 10.1795C82.6206 10.1825 82.6206 10.1855 82.6206 10.1884C82.6206 10.1914 82.6206 10.1944 82.6206 10.1974C82.6206 10.2003 82.6206 10.2033 82.6206 10.2063C82.6206 10.2092 82.6206 10.2122 82.6206 10.2151C82.6206 10.2181 82.6206 10.221 82.6206 10.224C82.6206 10.2269 82.6206 10.23 82.6206 10.2329C82.6206 10.2359 82.6206 10.2388 82.6206 10.2418C82.6206 10.2447 82.6206 10.2477 82.6206 10.2506C82.6206 10.2536 82.6206 10.2565 82.6206 10.2594C82.6206 10.2623 82.6206 10.2653 82.6206 10.2682C82.6206 10.2712 82.6206 10.2741 82.6206 10.2771C82.6206 10.28 82.6206 10.2829 82.6206 10.2858C82.6206 10.2888 82.6206 10.2917 82.6206 10.2946C82.6206 10.2975 82.6206 10.3005 82.6206 10.3034C82.6206 10.3063 82.6206 10.3093 82.6206 10.3122C82.6206 10.3151 82.6206 10.318 82.6206 10.3209C82.6206 10.3238 82.6206 10.3268 82.6206 10.3296C82.6206 10.3326 82.6206 10.3354 82.6206 10.3384C82.6206 10.3413 82.6206 10.3442 82.6206 10.3471C82.6206 10.35 82.6206 10.3529 82.6206 10.3557C82.6206 10.3587 82.6206 10.3616 82.6206 10.3645C82.6206 10.3674 82.6206 10.3702 82.6206 10.3732C82.6206 10.376 82.6206 10.3789 82.6206 10.3818C82.6206 10.3847 82.6206 10.3876 82.6206 10.3904C82.6206 10.3933 82.6206 10.3962 82.6206 10.3991C82.6206 10.402 82.6206 10.4048 82.6206 10.4077C82.6206 10.4106 82.6206 10.4134 82.6206 10.4163C82.6206 10.4191 82.6206 10.422 82.6206 10.4249C82.6206 10.4277 82.6206 10.4306 82.6206 10.4335C82.6206 10.4363 82.6206 10.4392 82.6206 10.442C82.6206 10.4449 82.6206 10.4477 82.6206 10.4505C82.6206 10.4534 82.6206 10.4563 82.6206 10.4591C82.6206 10.4619 82.6206 10.4648 82.6206 10.4676C82.6206 10.4705 82.6206 10.4733 82.6206 10.4761C82.6206 10.4789 82.6206 10.4818 82.6206 10.4846C82.6206 10.4874 82.6206 10.4903 82.6206 10.493C82.6206 10.4959 82.6206 10.4987 82.6206 10.5015C82.6206 10.5043 82.6206 10.5072 82.6206 10.51C82.6206 10.5128 82.6206 10.5156 82.6206 10.5184C82.6206 10.5212 82.6206 10.524 82.6206 10.5268C82.6206 10.5296 82.6206 10.5324 82.6206 10.5352C82.6206 10.538 82.6206 10.5408 82.6206 10.5436C82.6206 10.5464 82.6206 10.5492 82.6206 10.5519C82.6206 10.5547 82.6206 10.5575 82.6206 10.5603C82.6206 10.563 82.6206 10.5658 82.6206 10.5686C82.6206 10.5714 82.6206 10.5741 82.6206 10.5769C82.6206 10.5797 82.6206 10.5825 82.6206 10.5852C82.6206 10.588 82.6206 10.5908 82.6206 10.5935C82.6206 10.5963 82.6206 10.599 82.6206 10.6018C82.6206 10.6045 82.6206 10.6073 82.6206 10.61C82.6206 10.6128 82.6206 10.6155 82.6206 10.6183C82.6206 10.621 82.6206 10.6238 82.6206 10.6264C82.6206 10.6292 82.6206 10.6319 82.6206 10.6347C82.6206 10.6374 82.6206 10.6401 82.6206 10.6428C82.6206 10.6456 82.6206 10.6483 82.6206 10.651C82.6206 10.6538 82.6206 10.6565 82.6206 10.6591H82.8677ZM82.1138 10.66C82.0168 10.7366 82.0168 10.7367 82.0169 10.7367C82.0169 10.7368 82.0169 10.7368 82.017 10.7369C82.017 10.7369 82.0171 10.7369 82.0171 10.737C82.0172 10.7372 82.0174 10.7375 82.0176 10.7376C82.0179 10.7381 82.0184 10.7386 82.0189 10.7393C82.0199 10.7405 82.0213 10.7421 82.0229 10.7441C82.0262 10.748 82.0308 10.7533 82.0366 10.7597C82.048 10.7722 82.0644 10.7892 82.0851 10.8078C82.1256 10.8445 82.1866 10.8913 82.2629 10.9235C82.3402 10.956 82.4372 10.9749 82.5433 10.9478C82.6495 10.9207 82.75 10.8515 82.8412 10.7356L82.647 10.5827C82.5808 10.6668 82.5237 10.6976 82.4822 10.7082C82.4407 10.7188 82.3997 10.7128 82.3588 10.6957C82.3169 10.678 82.2793 10.65 82.2508 10.6244C82.237 10.6119 82.2263 10.6008 82.2192 10.593C82.2158 10.5892 82.2132 10.5863 82.2118 10.5845C82.2111 10.5838 82.2106 10.5832 82.2104 10.583C82.2103 10.5828 82.2103 10.5828 82.2104 10.5829C82.2104 10.5829 82.2104 10.583 82.2105 10.5831C82.2105 10.5831 82.2106 10.5831 82.2106 10.5832C82.2106 10.5832 82.2106 10.5832 82.2106 10.5832C82.2106 10.5832 82.2107 10.5833 82.1138 10.66ZM82.4295 12.7574L82.7444 12.7566L82.7438 12.5095L82.4289 12.5102L82.4295 12.7574ZM82.8677 10.6591V7.10408H82.6206V10.6591H82.8677Z" fill="#0051BA"/>
</g>
<path fill-rule="evenodd" clip-rule="evenodd" d="M16.0794 31.9167C24.5833 31.9167 31.4772 25.0228 31.4772 16.5189C31.4772 8.01492 24.5833 1.12109 16.0794 1.12109C7.57546 1.12109 0.681641 8.01492 0.681641 16.5189C0.681641 25.0228 7.57546 31.9167 16.0794 31.9167ZM17.1698 9.93037C17.2176 9.80183 19.7483 7.25822 19.8943 7.19196C20.0269 7.13176 20.2152 7.12638 20.3209 7.1798C20.433 7.23638 25.1418 11.9378 25.2045 12.0556C25.2701 12.1791 25.2706 12.3427 25.2057 12.4916C25.1409 12.6409 22.5999 15.1725 22.4647 15.2228C22.3197 15.2766 22.1654 15.2695 22.0319 15.2027C21.882 15.1277 17.3734 10.6371 17.2363 10.4262C17.1262 10.2568 17.1055 10.1031 17.1698 9.93037ZM11.1887 13.9527C11.2526 13.8886 12.303 13.3421 13.8787 12.553C15.3006 11.841 16.4722 11.2574 16.4821 11.2564C16.4922 11.2553 17.5456 12.2993 18.8232 13.5764L21.146 15.8983L19.8458 18.4974C19.0507 20.0868 18.5048 21.1372 18.4405 21.2012C18.3584 21.283 17.1548 21.7778 12.9404 23.4623L7.54557 25.6188L7.55307 25.6112L6.95589 25.8531L10.0148 22.6905L14.3836 20.9787C14.523 21.1761 14.7529 21.305 15.0129 21.305C15.4381 21.305 15.7828 20.9603 15.7828 20.5351C15.7828 20.1099 15.4381 19.7652 15.0129 19.7652C14.6441 19.7652 14.3358 20.0246 14.2606 20.3708L11.0162 21.642L12.9912 19.5728L12.9939 19.5699L14.7667 17.6641L16.9372 17.6479C17.0588 17.9129 17.3265 18.0971 17.6373 18.0971C18.0625 18.0971 18.4071 17.7524 18.4071 17.3271C18.4071 16.9019 18.0625 16.5572 17.6373 16.5572C17.3147 16.5572 17.0385 16.7556 16.9239 17.037L14.6304 17.0541L14.4988 17.055L14.4091 17.1515L13.0815 18.5787L13.103 15.683C13.2886 15.5424 13.4085 15.3196 13.4085 15.0688C13.4085 14.6436 13.0638 14.2989 12.6386 14.2989C12.2134 14.2989 11.8687 14.6436 11.8687 15.0688C11.8687 15.4435 12.1364 15.7556 12.491 15.8246L12.4656 19.2385L9.62187 22.218L9.62117 22.2188L6.57152 25.3718L6.79655 24.8152L6.7691 24.8427L8.92652 19.4502C10.6118 15.2378 11.1069 14.0347 11.1887 13.9527Z" fill="#0051BA"/>
</svg>
