<svg width="85" height="32" viewBox="0 0 85 32" fill="none" xmlns="http://www.w3.org/2000/svg">
<mask id="mask0_2023_786" style="mask-type:alpha" maskUnits="userSpaceOnUse" x="34" y="5" width="51" height="26">
<path d="M84.0635 5.21289H34.6248V30.366H84.0635V5.21289Z" fill="white"/>
<path d="M57.4456 17.2813C57.4456 21.1829 60.0428 23.8223 63.3986 23.8223C65.72 23.8223 67.352 22.6288 68.1105 21.2747V23.6158H70.225V11.0385H68.1105V13.3336C67.3749 12.0254 65.766 10.832 63.4216 10.832C60.0428 10.832 57.4456 13.3566 57.4456 17.2813ZM68.1105 17.3042C68.1105 20.2649 66.1338 21.9862 63.8353 21.9862C61.5368 21.9862 59.5831 20.242 59.5831 17.2813C59.5831 14.3206 61.5368 12.6451 63.8353 12.6451C66.1338 12.6451 68.1105 14.3894 68.1105 17.3042Z" fill="black"/>
<path d="M74.1502 23.6147H76.2419V12.7588H78.8852V11.0375H76.2419V10.1424C76.2419 8.51289 76.8625 7.82436 78.7473 7.82436V6.08008C75.5294 6.08008 74.1502 7.34238 74.1502 10.1424V11.0375H72.5183V12.7588H74.1502V23.6147Z" fill="black"/>
<path d="M81.343 23.6155H83.4665V12.6016H81.343V23.6155Z" fill="black"/>
<path d="M48.9551 26.7515C48.9931 26.6382 49.0281 26.523 49.06 26.4059C49.1004 26.2576 50.2058 23.4496 50.2363 23.2955C50.6218 21.6531 50.5163 18.4499 50.9941 16.3475C51.5559 13.8755 53.8878 13.0846 54.9478 12.9008C56.0078 12.717 56.8243 13.1711 56.8243 13.1711V10.9075C54.7668 10.9075 51.9382 11.833 51.2051 13.2804V10.2012L48.9551 11.5805V26.7515Z" fill="black"/>
<path fill-rule="evenodd" clip-rule="evenodd" d="M47.696 12.2684L46.4657 12.9771C45.7089 11.5771 44.0062 10.3906 41.6412 10.3906C38.1647 10.3906 35.4922 13.0008 35.4922 17.0584C35.4922 21.0924 38.1647 23.8212 41.6412 23.8212C44.0062 23.8212 45.6852 22.5636 46.4657 21.1636V23.8924C46.4657 26.6686 44.7392 28.1398 42.4452 28.1398C40.3167 28.1398 38.7795 27.072 38.3066 25.506H36.178C36.6038 28.2823 39.0396 30.0144 42.4452 30.0144C44.8335 30.0144 46.6635 29.0155 47.696 27.3865V12.2684ZM42.0669 21.9229C44.4318 21.9229 46.4657 20.1432 46.4657 17.0822C46.4657 14.0686 44.4318 12.2652 42.0669 12.2652C39.7019 12.2652 37.6916 13.9974 37.6916 17.0584C37.6916 20.1195 39.7019 21.9229 42.0669 21.9229Z" fill="black"/>
</mask>
<g mask="url(#mask0_2023_786)">
<path d="M57.4456 17.2793C57.4456 21.181 60.0428 23.8203 63.3986 23.8203C65.72 23.8203 67.352 22.6269 68.1105 21.2728V23.6138H70.225V11.0366H68.1105V13.3317C67.3749 12.0235 65.766 10.8301 63.4216 10.8301C60.0428 10.8301 57.4456 13.3547 57.4456 17.2793ZM68.1105 17.3022C68.1105 20.2629 66.1338 21.9842 63.8353 21.9842C61.5368 21.9842 59.5831 20.24 59.5831 17.2793C59.5831 14.3186 61.5368 12.6432 63.8353 12.6432C66.1338 12.6432 68.1105 14.3874 68.1105 17.3022Z" fill="url(#paint0_linear_2023_786)"/>
<path d="M74.1505 23.6147H76.2422V12.7588H78.8854V11.0375H76.2422V10.1424C76.2422 8.51289 76.8628 7.82436 78.7475 7.82436V6.08008C75.5296 6.08008 74.1505 7.34238 74.1505 10.1424V11.0375H72.5186V12.7588H74.1505V23.6147Z" fill="url(#paint1_linear_2023_786)"/>
<path d="M81.343 23.6135H83.4665V12.5996H81.343V23.6135Z" fill="url(#paint2_linear_2023_786)"/>
<path d="M48.9551 26.7496C48.9931 26.6362 49.0281 26.521 49.06 26.4039C49.1004 26.2556 50.2058 23.4477 50.2363 23.2936C50.6218 21.6511 50.5163 18.4479 50.9941 16.3456C51.5559 13.8736 53.8878 13.0826 54.9478 12.8988C56.0078 12.715 56.8243 13.1692 56.8243 13.1692V10.9056C54.7668 10.9056 51.9382 11.831 51.2051 13.2785V10.1992L48.9551 11.5786V26.7496Z" fill="url(#paint3_linear_2023_786)"/>
<path fill-rule="evenodd" clip-rule="evenodd" d="M47.696 12.2684L46.4657 12.9771C45.7089 11.5771 44.0062 10.3906 41.6412 10.3906C38.1647 10.3906 35.4922 13.0008 35.4922 17.0584C35.4922 21.0924 38.1647 23.8212 41.6412 23.8212C44.0062 23.8212 45.6852 22.5636 46.4657 21.1636V23.8924C46.4657 26.6686 44.7392 28.1398 42.4452 28.1398C40.3167 28.1398 38.7795 27.072 38.3066 25.506H36.178C36.6038 28.2823 39.0396 30.0144 42.4452 30.0144C44.8335 30.0144 46.6635 29.0155 47.696 27.3865V12.2684ZM42.0669 21.9229C44.4318 21.9229 46.4657 20.1432 46.4657 17.0822C46.4657 14.0686 44.4318 12.2652 42.0669 12.2652C39.7019 12.2652 37.6916 13.9974 37.6916 17.0584C37.6916 20.1195 39.7019 21.9229 42.0669 21.9229Z" fill="url(#paint4_linear_2023_786)"/>
<path d="M68.1103 21.2728H68.3575C68.3575 21.1603 68.2816 21.0621 68.1727 21.0336C68.0639 21.0053 67.9496 21.0539 67.8947 21.152L68.1103 21.2728ZM68.1103 23.6139H67.8631C67.8631 23.7504 67.9738 23.8611 68.1103 23.8611V23.6139ZM70.2249 23.6139V23.8611C70.3615 23.8611 70.4722 23.7504 70.4722 23.6139H70.2249ZM70.2249 11.0367H70.4722C70.4722 10.9001 70.3615 10.7895 70.2249 10.7895V11.0367ZM68.1103 11.0367V10.7895C67.9738 10.7895 67.8631 10.9001 67.8631 11.0367H68.1103ZM68.1103 13.3318L67.8948 13.4529C67.9499 13.5509 68.0642 13.5994 68.1729 13.5709C68.2817 13.5424 68.3575 13.4442 68.3575 13.3318H68.1103ZM74.1502 23.6139H73.903C73.903 23.7504 74.0137 23.8611 74.1502 23.8611V23.6139ZM76.2419 23.6139V23.8611C76.3785 23.8611 76.4891 23.7504 76.4891 23.6139H76.2419ZM76.2419 12.758V12.5108C76.1053 12.5108 75.9947 12.6215 75.9947 12.758H76.2419ZM78.8852 12.758V13.0052C79.0217 13.0052 79.1324 12.8945 79.1324 12.758H78.8852ZM78.8852 11.0367H79.1324C79.1324 10.9001 79.0217 10.7895 78.8852 10.7895V11.0367ZM76.2419 11.0367H75.9947C75.9947 11.1732 76.1053 11.2839 76.2419 11.2839V11.0367ZM78.7473 7.82352V8.07073C78.8838 8.07073 78.9945 7.96005 78.9945 7.82352H78.7473ZM78.7473 6.07924H78.9945C78.9945 5.94271 78.8838 5.83203 78.7473 5.83203V6.07924ZM74.1502 11.0367V11.2839C74.2868 11.2839 74.3975 11.1732 74.3975 11.0367H74.1502ZM72.5183 11.0367V10.7895C72.3818 10.7895 72.2711 10.9001 72.2711 11.0367H72.5183ZM72.5183 12.758H72.2711C72.2711 12.8945 72.3818 13.0052 72.5183 13.0052V12.758ZM74.1502 12.758H74.3975C74.3975 12.6215 74.2868 12.5108 74.1502 12.5108V12.758ZM81.3429 23.6139H81.0957C81.0957 23.7504 81.2064 23.8611 81.3429 23.8611V23.6139ZM83.4663 23.6139V23.8611C83.6029 23.8611 83.7135 23.7504 83.7135 23.6139H83.4663ZM83.4663 12.6H83.7135C83.7135 12.4635 83.6029 12.3527 83.4663 12.3527V12.6ZM81.3429 12.6V12.3527C81.2064 12.3527 81.0957 12.4635 81.0957 12.6H81.3429ZM48.955 26.75H48.7078C48.7078 26.8711 48.7956 26.9743 48.9152 26.9939C49.0347 27.0135 49.1509 26.9434 49.1894 26.8285L48.955 26.75ZM49.06 26.4043L48.8215 26.3393L49.06 26.4043ZM50.2363 23.2939L49.9954 23.2375L49.9938 23.246L50.2363 23.2939ZM50.9941 16.346L50.753 16.2911L50.9941 16.346ZM56.8243 13.1696L56.7041 13.3856C56.7807 13.4282 56.8741 13.4271 56.9495 13.3827C57.0251 13.3383 57.0715 13.2572 57.0715 13.1696H56.8243ZM56.8243 10.906H57.0715C57.0715 10.7694 56.9608 10.6588 56.8243 10.6588V10.906ZM51.205 13.2788H50.9578C50.9578 13.3932 51.0363 13.4927 51.1476 13.5193C51.2589 13.5459 51.3739 13.4926 51.4256 13.3906L51.205 13.2788ZM51.205 10.1996H51.4522C51.4522 10.1101 51.4039 10.0276 51.3257 9.98388C51.2477 9.94017 51.1521 9.94208 51.0758 9.98883L51.205 10.1996ZM48.955 11.5789L48.8258 11.3682C48.7525 11.4131 48.7078 11.493 48.7078 11.5789H48.955ZM47.6959 12.2677H47.9431C47.9431 12.1794 47.896 12.0979 47.8196 12.0537C47.7432 12.0095 47.649 12.0094 47.5725 12.0535L47.6959 12.2677ZM46.4656 12.9763L46.2481 13.0939C46.2799 13.1526 46.3339 13.196 46.3982 13.2141C46.4624 13.2324 46.5311 13.2239 46.589 13.1906L46.4656 12.9763ZM46.4656 21.1629H46.7128C46.7128 21.0503 46.6367 20.9519 46.5278 20.9236C46.4188 20.8953 46.3045 20.9441 46.2497 21.0425L46.4656 21.1629ZM38.3064 25.5052L38.543 25.4338C38.5116 25.3294 38.4154 25.258 38.3064 25.258V25.5052ZM36.1779 25.5052V25.258C36.1058 25.258 36.0373 25.2895 35.9904 25.3442C35.9433 25.3989 35.9226 25.4714 35.9335 25.5427L36.1779 25.5052ZM47.6959 27.3858L47.9047 27.5182C47.9297 27.4786 47.9431 27.4327 47.9431 27.3858H47.6959ZM57.1982 17.2794C57.1982 21.3007 59.8898 24.0676 63.3984 24.0676V23.5732C60.1954 23.5732 57.6926 21.0614 57.6926 17.2794H57.1982ZM63.3984 24.0676C65.8104 24.0676 67.5243 22.825 68.326 21.3937L67.8947 21.152C67.1794 22.429 65.6294 23.5732 63.3984 23.5732V24.0676ZM67.8631 21.2728V23.6139H68.3575V21.2728H67.8631ZM68.1103 23.8611H70.2249V23.3666H68.1103V23.8611ZM70.4722 23.6139V11.0367H69.9777V23.6139H70.4722ZM70.2249 10.7895H68.1103V11.2839H70.2249V10.7895ZM67.8631 11.0367V13.3318H68.3575V11.0367H67.8631ZM68.3258 13.2106C67.5468 11.825 65.8557 10.5829 63.4214 10.5829V11.0773C65.6761 11.0773 67.2029 12.2222 67.8948 13.4529L68.3258 13.2106ZM63.4214 10.5829C61.6685 10.5829 60.1086 11.2388 58.9876 12.4122C57.8668 13.5855 57.1982 15.2614 57.1982 17.2794H57.6926C57.6926 15.3727 58.3226 13.8241 59.3451 12.7538C60.3674 11.6837 61.7956 11.0773 63.4214 11.0773V10.5829ZM67.8631 17.3023C67.8631 18.7258 67.3891 19.8318 66.6578 20.5809C65.9255 21.3309 64.9218 21.7371 63.8351 21.7371V22.2315C65.047 22.2315 66.1808 21.7771 67.0115 20.9262C67.8432 20.0744 68.3575 18.8395 68.3575 17.3023H67.8631ZM63.8351 21.7371C62.7497 21.7371 61.752 21.326 61.0253 20.5707C60.2991 19.816 59.8302 18.7038 59.8302 17.2794H59.3358C59.3358 18.8156 59.8437 20.0559 60.669 20.9135C61.4937 21.7705 62.6222 22.2315 63.8351 22.2315V21.7371ZM59.8302 17.2794C59.8302 15.8552 60.2988 14.7612 61.0234 14.0243C61.7489 13.2865 62.7467 12.8904 63.8351 12.8904V12.3961C62.6251 12.3961 61.4968 12.8377 60.6709 13.6777C59.844 14.5187 59.3358 15.7428 59.3358 17.2794H59.8302ZM63.8351 12.8904C65.9915 12.8904 67.8631 14.5185 67.8631 17.3023H68.3575C68.3575 14.2566 66.2757 12.3961 63.8351 12.3961V12.8904ZM74.1502 23.8611H76.2419V23.3666H74.1502V23.8611ZM76.4891 23.6139V12.758H75.9947V23.6139H76.4891ZM76.2419 13.0052H78.8852V12.5108H76.2419V13.0052ZM79.1324 12.758V11.0367H78.6379V12.758H79.1324ZM78.8852 10.7895H76.2419V11.2839H78.8852V10.7895ZM76.4891 11.0367V10.1416H75.9947V11.0367H76.4891ZM76.4891 10.1416C76.4891 9.34855 76.642 8.85468 76.9591 8.54965C77.2793 8.24171 77.8238 8.07073 78.7473 8.07073V7.57632C77.7859 7.57632 77.0777 7.7496 76.6165 8.1933C76.1521 8.63992 75.9947 9.3051 75.9947 10.1416H76.4891ZM78.9945 7.82352V6.07924H78.5001V7.82352H78.9945ZM78.7473 5.83203C77.1141 5.83203 75.8912 6.15092 75.0776 6.87583C74.2574 7.60663 73.903 8.70429 73.903 10.1416H74.3975C74.3975 8.77879 74.7327 7.84533 75.4065 7.24497C76.0869 6.63872 77.1625 6.32645 78.7473 6.32645V5.83203ZM73.903 10.1416V11.0367H74.3975V10.1416H73.903ZM74.1502 10.7895H72.5183V11.2839H74.1502V10.7895ZM72.2711 11.0367V12.758H72.7656V11.0367H72.2711ZM72.5183 13.0052H74.1502V12.5108H72.5183V13.0052ZM73.903 12.758V23.6139H74.3975V12.758H73.903ZM81.3429 23.8611H83.4663V23.3666H81.3429V23.8611ZM83.7135 23.6139V12.6H83.2191V23.6139H83.7135ZM83.4663 12.3527H81.3429V12.8472H83.4663V12.3527ZM81.0957 12.6V23.6139H81.5901V12.6H81.0957ZM49.1894 26.8285C49.2289 26.7108 49.2653 26.591 49.2984 26.4694L48.8215 26.3393C48.7908 26.4519 48.7571 26.5625 48.7207 26.6713L49.1894 26.8285ZM49.2984 26.4694C49.2979 26.4714 49.301 26.4614 49.3121 26.4302C49.3219 26.4029 49.3354 26.3663 49.3524 26.3211C49.3862 26.2308 49.4325 26.109 49.4874 25.9659C49.597 25.6797 49.7397 25.3105 49.8825 24.9402C50.0251 24.5704 50.1677 24.1996 50.2765 23.9115C50.3309 23.7676 50.3772 23.6434 50.411 23.5499C50.428 23.5032 50.4421 23.4631 50.4528 23.4315C50.4613 23.4062 50.4731 23.3703 50.4787 23.342L49.9938 23.246C49.9955 23.2369 49.9951 23.241 49.9841 23.2738C49.9752 23.3003 49.9624 23.3364 49.9461 23.3816C49.9135 23.4718 49.8682 23.5934 49.814 23.7367C49.7058 24.0231 49.5638 24.3924 49.4211 24.7623C49.2787 25.1319 49.1356 25.5022 49.0257 25.7889C48.9707 25.9324 48.9238 26.0556 48.8894 26.1478C48.8576 26.2325 48.8303 26.3067 48.8215 26.3393L49.2984 26.4694ZM50.4769 23.3505C50.6756 22.5039 50.7464 21.2662 50.8273 20.0082C50.9091 18.7348 51.0014 17.4291 51.2351 16.4007L50.753 16.2911C50.5089 17.3652 50.4151 18.7122 50.3338 19.9766C50.2516 21.2564 50.1824 22.4415 49.9956 23.2375L50.4769 23.3505ZM51.2351 16.4007C51.7621 14.0819 53.9555 13.3221 54.9899 13.1428L54.9055 12.6557C53.8199 12.8439 51.3496 13.6659 50.753 16.2911L51.2351 16.4007ZM54.9899 13.1428C55.4757 13.0585 55.9075 13.1203 56.2193 13.2042C56.3748 13.2461 56.499 13.293 56.5832 13.3289C56.6251 13.3468 56.657 13.3619 56.6775 13.3721C56.6879 13.3771 56.6953 13.381 56.6997 13.3834C56.702 13.3845 56.7035 13.3853 56.7043 13.3857C56.7046 13.3859 56.7048 13.386 56.7048 13.386C56.7047 13.386 56.7047 13.386 56.7046 13.3859C56.7045 13.3859 56.7044 13.3858 56.7043 13.3858L56.7043 13.3857C56.7042 13.3857 56.7041 13.3856 56.8243 13.1696C56.9444 12.9536 56.9443 12.9535 56.9443 12.9535C56.9443 12.9535 56.9442 12.9534 56.9441 12.9534C56.944 12.9533 56.9438 12.9532 56.9436 12.9532C56.9434 12.953 56.943 12.9528 56.9426 12.9525C56.9418 12.9521 56.9408 12.9516 56.9396 12.9509C56.9371 12.9496 56.9339 12.9479 56.9299 12.9458C56.922 12.9415 56.9108 12.9358 56.8966 12.9289C56.8684 12.9149 56.8282 12.8959 56.7771 12.8741C56.675 12.8306 56.5289 12.7755 56.3478 12.7268C55.9863 12.6296 55.4798 12.5561 54.9055 12.6557L54.9899 13.1428ZM57.0715 13.1696V10.906H56.5771V13.1696H57.0715ZM56.8243 10.6588C55.7632 10.6588 54.5113 10.8965 53.4281 11.3193C52.3567 11.7377 51.3935 12.3596 50.9844 13.1671L51.4256 13.3906C51.7497 12.7506 52.5674 12.1862 53.6079 11.7799C54.6368 11.3782 55.8279 11.1532 56.8243 11.1532V10.6588ZM51.4522 13.2788V10.1996H50.9578V13.2788H51.4522ZM51.0758 9.98883L48.8258 11.3682L49.0842 11.7897L51.3342 10.4103L51.0758 9.98883ZM48.7078 11.5789V26.75H49.2022V11.5789H48.7078ZM47.5725 12.0535L46.3422 12.7622L46.589 13.1906L47.8192 12.4819L47.5725 12.0535ZM46.683 12.8588C45.8806 11.3744 44.0916 10.1427 41.641 10.1427V10.6371C43.9204 10.6371 45.5369 11.7782 46.2481 13.0939L46.683 12.8588ZM41.641 10.1427C39.8389 10.1427 38.2356 10.8204 37.0837 12.0319C35.9321 13.2431 35.2449 14.9736 35.2449 17.0577H35.7393C35.7393 15.0842 36.3883 13.4808 37.442 12.3726C38.4954 11.2646 39.9667 10.6371 41.641 10.6371V10.1427ZM35.2449 17.0577C35.2449 21.2108 38.0113 24.0677 41.641 24.0677V23.5732C38.3178 23.5732 35.7393 20.9725 35.7393 17.0577H35.2449ZM41.641 24.0677C44.0997 24.0677 45.8595 22.7579 46.6815 21.2832L46.2497 21.0425C45.5109 22.3678 43.9123 23.5732 41.641 23.5732V24.0677ZM46.2184 21.1629V23.8916H46.7128V21.1629H46.2184ZM46.2184 23.8916C46.2184 25.2273 45.8043 26.2215 45.1412 26.8813C44.4773 27.5419 43.5391 27.8919 42.4451 27.8919V28.3863C43.6451 28.3863 44.7172 28.0007 45.49 27.2317C46.2636 26.4618 46.7128 25.3322 46.7128 23.8916H46.2184ZM42.4451 27.8919C40.3996 27.8919 38.9776 26.8726 38.543 25.4338L38.0697 25.5767C38.5812 27.27 40.2336 28.3863 42.4451 28.3863V27.8919ZM38.3064 25.258H36.1779V25.7524H38.3064V25.258ZM35.9335 25.5427C36.3832 28.4751 38.9573 30.2609 42.4451 30.2609V29.7665C39.1218 29.7665 36.8241 28.0878 36.4223 25.4678L35.9335 25.5427ZM42.4451 30.2609C44.9067 30.2609 46.8211 29.2278 47.9047 27.5182L47.487 27.2535C46.5057 28.8018 44.7602 29.7665 42.4451 29.7665V30.2609ZM47.9431 27.3858V12.2677H47.4487V27.3858H47.9431ZM46.2184 17.0815C46.2184 18.5554 45.7298 19.7013 44.9757 20.4774C44.2208 21.2544 43.1862 21.6749 42.0667 21.6749V22.1693C43.3122 22.1693 44.4771 21.7001 45.3303 20.822C46.1844 19.9429 46.7128 18.6685 46.7128 17.0815H46.2184ZM42.0667 12.5117C44.2885 12.5117 46.2184 14.1976 46.2184 17.0815H46.7128C46.7128 13.9381 44.5748 12.0173 42.0667 12.0173V12.5117ZM37.9387 17.0577C37.9387 15.583 38.4217 14.4497 39.1689 13.6862C39.917 12.9217 40.9454 12.5117 42.0667 12.5117V12.0173C40.823 12.0173 39.6638 12.4734 38.8156 13.3403C37.9663 14.2081 37.4443 15.4713 37.4443 17.0577H37.9387ZM42.0667 21.6749C40.9484 21.6749 39.9201 21.2493 39.1707 20.4668C38.422 19.6849 37.9387 18.5326 37.9387 17.0577H37.4443C37.4443 18.6438 37.9662 19.9238 38.8137 20.8088C39.6607 21.6933 40.8201 22.1693 42.0667 22.1693V21.6749Z" fill="url(#paint5_linear_2023_786)"/>
<path d="M84.3182 9.77381C84.3183 9.80538 84.187 10.199 83.9819 10.7818C83.7969 11.3078 83.6436 11.7404 83.6413 11.7431C83.6402 11.7444 83.3531 11.7458 83.0585 11.7468L82.7436 11.7477L82.4287 11.7485H82.1255H81.8223H81.216L80.8775 10.7874C80.6705 10.1997 80.5391 9.80624 80.5391 9.77467L82.091 6.21875L82.1132 9.77467C82.1132 9.77467 82.4287 10.1738 82.7436 9.77381V6.21875C83.1584 7.17571 83.883 8.8022 84.3182 9.77381Z" fill="url(#paint6_linear_2023_786)"/>
<path d="M84.3182 9.77242L84.4418 9.77225C84.4418 9.7549 84.4382 9.73773 84.4311 9.72194L84.3182 9.77242ZM83.982 10.7805L83.8654 10.7394L83.982 10.7805ZM80.5391 9.77329L80.4259 9.72385C80.4191 9.73929 80.4156 9.75603 80.4155 9.77303L80.5391 9.77329ZM80.8776 10.786L80.9941 10.745L80.8776 10.786ZM81.2161 11.7471L81.0995 11.7882C81.1169 11.8377 81.1636 11.8707 81.2161 11.8707V11.7471ZM82.4287 11.7471V11.8707H82.429L82.4287 11.7471ZM83.6414 11.7417L83.5473 11.6617L83.6414 11.7417ZM83.0586 11.7454L83.059 11.869L83.0586 11.7454ZM82.7437 11.7463L82.744 11.8699L82.7437 11.7463ZM82.7437 6.21736L82.857 6.1682C82.8338 6.11445 82.7759 6.08444 82.7185 6.09634C82.6612 6.10824 82.6201 6.15878 82.6201 6.21736H82.7437ZM82.0911 6.21736L82.2147 6.2166C82.2143 6.15821 82.1732 6.10804 82.116 6.09629C82.0588 6.08454 82.0012 6.11441 81.9778 6.16793L82.0911 6.21736ZM82.1133 9.77329L81.9897 9.77398C81.9898 9.80156 81.9992 9.82828 82.0163 9.84987L82.1133 9.77329ZM82.7437 9.77242L82.8407 9.84892C82.8579 9.82715 82.8673 9.80018 82.8673 9.77242H82.7437ZM84.1946 9.77259C84.1946 9.76002 84.197 9.75169 84.1959 9.7569C84.1955 9.75872 84.1946 9.76253 84.1928 9.76895C84.1894 9.7817 84.184 9.80026 84.1764 9.82498C84.1613 9.87399 84.1389 9.94329 84.1098 10.0305C84.0516 10.2049 83.9677 10.4483 83.8654 10.7394L84.0985 10.8215C84.2012 10.5297 84.2855 10.2849 84.3443 10.1088C84.3736 10.0208 84.3968 9.94945 84.4127 9.89758C84.4207 9.87182 84.4271 9.84987 84.4317 9.83279C84.4339 9.82437 84.436 9.81596 84.4377 9.80824C84.4386 9.80391 84.4419 9.78881 84.4418 9.77225L84.1946 9.77259ZM80.9941 10.745C80.8907 10.4515 80.8064 10.2069 80.7479 10.0319C80.7187 9.94442 80.6961 9.87494 80.681 9.82585C80.6734 9.80113 80.668 9.78257 80.6646 9.76982C80.6629 9.76331 80.6619 9.7595 80.6616 9.75776C80.6605 9.75256 80.6628 9.76088 80.6627 9.77346L80.4155 9.77303C80.4155 9.78959 80.4188 9.80469 80.4198 9.80902C80.4214 9.81674 80.4235 9.82524 80.4258 9.83366C80.4304 9.85074 80.4368 9.87269 80.4448 9.89853C80.4607 9.95049 80.484 10.022 80.5135 10.1103C80.5725 10.2869 80.6573 10.5329 80.761 10.8271L80.9941 10.745ZM81.3327 11.7061L80.9941 10.745L80.761 10.8271L81.0995 11.7882L81.3327 11.7061ZM83.8654 10.7394C83.7729 11.0024 83.6884 11.2419 83.6267 11.416C83.5958 11.5031 83.5707 11.5737 83.5532 11.6227C83.5444 11.6473 83.5376 11.6662 83.5329 11.6789C83.5306 11.6854 83.5289 11.69 83.5278 11.6928C83.5273 11.6943 83.5271 11.6947 83.5272 11.6945C83.5272 11.6945 83.5273 11.6942 83.5275 11.6939C83.5276 11.6935 83.5279 11.6928 83.5283 11.6919C83.5286 11.6913 83.5295 11.6893 83.5308 11.6867C83.5314 11.6854 83.5326 11.683 83.5343 11.6801C83.5352 11.6785 83.5397 11.6705 83.5473 11.6617L83.7356 11.8219C83.7431 11.8129 83.7476 11.805 83.7486 11.8033C83.7503 11.8003 83.7515 11.7978 83.7522 11.7965C83.7535 11.7939 83.7545 11.7916 83.7549 11.7907C83.7558 11.7886 83.7565 11.7868 83.7569 11.7859C83.7577 11.7839 83.7585 11.7817 83.7592 11.7797C83.7608 11.7757 83.7628 11.7702 83.7652 11.7635C83.7702 11.7501 83.7771 11.7306 83.7859 11.706C83.8036 11.6566 83.8288 11.5858 83.8597 11.4986C83.9214 11.3243 84.0061 11.0845 84.0985 10.8215L83.8654 10.7394ZM81.8224 11.6235H81.2161V11.8707H81.8224V11.6235ZM82.4287 11.6235H82.1256V11.8707H82.4287V11.6235ZM82.1256 11.6235H81.8224V11.8707H82.1256V11.6235ZM83.5473 11.6617C83.5682 11.637 83.5932 11.6278 83.5959 11.6268C83.6035 11.6238 83.6099 11.6222 83.6126 11.6215C83.6186 11.6201 83.6234 11.6194 83.6249 11.6193C83.6285 11.6188 83.6312 11.6186 83.6317 11.6186C83.6333 11.6185 83.6341 11.6185 83.6333 11.6185C83.6322 11.6185 83.6298 11.6186 83.6258 11.6187C83.6178 11.6188 83.6057 11.619 83.59 11.6191C83.5586 11.6194 83.5136 11.6198 83.4593 11.62C83.3507 11.6207 83.2054 11.6213 83.0582 11.6218L83.059 11.869C83.2063 11.8685 83.3518 11.8679 83.4607 11.8673C83.5152 11.867 83.5605 11.8666 83.5925 11.8663C83.6085 11.8662 83.6214 11.866 83.6305 11.8658C83.6349 11.8658 83.6391 11.8656 83.6425 11.8655C83.644 11.8654 83.6465 11.8653 83.6492 11.8652C83.6502 11.8651 83.6534 11.8649 83.6574 11.8643C83.6591 11.8641 83.6639 11.8634 83.6699 11.862C83.6728 11.8613 83.6791 11.8598 83.6868 11.8567C83.6895 11.8556 83.7145 11.8466 83.7356 11.8219L83.5473 11.6617ZM83.0582 11.6218C82.9496 11.6221 82.8399 11.6225 82.7433 11.6227L82.744 11.8699C82.8406 11.8697 82.9503 11.8693 83.059 11.869L83.0582 11.6218ZM82.7433 11.6227C82.6534 11.623 82.5746 11.6232 82.5184 11.6233C82.4903 11.6234 82.4678 11.6234 82.4523 11.6235C82.4446 11.6235 82.4386 11.6235 82.4346 11.6235C82.4325 11.6235 82.4311 11.6235 82.43 11.6235C82.4295 11.6235 82.4291 11.6235 82.4288 11.6235C82.4287 11.6235 82.4286 11.6235 82.4286 11.6235C82.4285 11.6235 82.4285 11.6235 82.4285 11.6235C82.4285 11.6235 82.4285 11.6235 82.4287 11.7471C82.429 11.8707 82.429 11.8707 82.429 11.8707C82.4291 11.8707 82.4291 11.8707 82.4291 11.8707C82.4292 11.8707 82.4292 11.8707 82.4294 11.8707C82.4297 11.8707 82.43 11.8707 82.4305 11.8707C82.4316 11.8707 82.4331 11.8707 82.4351 11.8707C82.4392 11.8707 82.4452 11.8707 82.4529 11.8707C82.4684 11.8706 82.4909 11.8706 82.519 11.8705C82.5752 11.8704 82.654 11.8702 82.744 11.8699L82.7433 11.6227ZM84.4311 9.72194C83.9958 8.75034 83.2716 7.1244 82.857 6.1682L82.6302 6.26653C83.0455 7.22425 83.7702 8.85138 84.2055 9.82299L84.4311 9.72194ZM81.9778 6.16793L80.4259 9.72385L80.6524 9.82273L82.2043 6.26681L81.9778 6.16793ZM83.0582 11.6218L82.7432 11.6227L82.744 11.8699L83.0589 11.869L83.0582 11.6218ZM82.2369 9.77251L82.2147 6.2166L81.9675 6.21814L81.9897 9.77398L82.2369 9.77251ZM82.8673 9.77242C82.8673 9.76973 82.8673 9.76704 82.8673 9.76427C82.8673 9.76158 82.8673 9.75889 82.8673 9.75611C82.8673 9.75343 82.8673 9.75065 82.8673 9.74796C82.8673 9.74519 82.8673 9.7425 82.8673 9.73972C82.8673 9.73703 82.8673 9.73426 82.8673 9.73157C82.8673 9.72879 82.8673 9.7261 82.8673 9.72333C82.8673 9.72055 82.8673 9.71778 82.8673 9.71509C82.8673 9.71231 82.8673 9.70954 82.8673 9.70676C82.8673 9.70407 82.8673 9.7013 82.8673 9.69852C82.8673 9.69575 82.8673 9.69297 82.8673 9.6902C82.8673 9.68742 82.8673 9.68465 82.8673 9.68187C82.8673 9.67909 82.8673 9.67632 82.8673 9.67354C82.8673 9.67077 82.8673 9.66799 82.8673 9.66522C82.8673 9.66244 82.8673 9.65967 82.8673 9.65689C82.8673 9.65411 82.8673 9.65125 82.8673 9.64848C82.8673 9.6457 82.8673 9.64293 82.8673 9.64006C82.8673 9.63729 82.8673 9.63451 82.8673 9.63165C82.8673 9.62887 82.8673 9.6261 82.8673 9.62324C82.8673 9.62046 82.8673 9.6176 82.8673 9.61482C82.8673 9.61196 82.8673 9.60919 82.8673 9.60632C82.8673 9.60355 82.8673 9.60069 82.8673 9.59791C82.8673 9.59505 82.8673 9.59219 82.8673 9.58941C82.8673 9.58655 82.8673 9.58377 82.8673 9.58091C82.8673 9.57805 82.8673 9.57519 82.8673 9.57241C82.8673 9.56955 82.8673 9.56669 82.8673 9.56382C82.8673 9.56096 82.8673 9.55819 82.8673 9.55532C82.8673 9.55246 82.8673 9.5496 82.8673 9.54674C82.8673 9.54388 82.8673 9.54101 82.8673 9.53815C82.8673 9.53529 82.8673 9.53243 82.8673 9.52956C82.8673 9.5267 82.8673 9.52384 82.8673 9.52098C82.8673 9.51811 82.8673 9.51525 82.8673 9.51239C82.8673 9.50944 82.8673 9.50658 82.8673 9.50372C82.8673 9.50085 82.8673 9.49799 82.8673 9.49504C82.8673 9.49218 82.8673 9.48932 82.8673 9.48646C82.8673 9.48351 82.8673 9.48065 82.8673 9.47778C82.8673 9.47483 82.8673 9.47197 82.8673 9.46902C82.8673 9.46616 82.8673 9.4633 82.8673 9.46035C82.8673 9.45749 82.8673 9.45454 82.8673 9.45168C82.8673 9.44873 82.8673 9.44586 82.8673 9.44292C82.8673 9.44005 82.8673 9.4371 82.8673 9.43415C82.8673 9.43129 82.8673 9.42834 82.8673 9.42548C82.8673 9.42253 82.8673 9.41958 82.8673 9.41672C82.8673 9.41377 82.8673 9.41082 82.8673 9.40788C82.8673 9.40501 82.8673 9.40206 82.8673 9.39911C82.8673 9.39617 82.8673 9.3933 82.8673 9.39035C82.8673 9.38741 82.8673 9.38446 82.8673 9.38151C82.8673 9.37856 82.8673 9.37561 82.8673 9.37266C82.8673 9.3698 82.8673 9.36685 82.8673 9.3639C82.8673 9.36095 82.8673 9.358 82.8673 9.35505C82.8673 9.3521 82.8673 9.34916 82.8673 9.34621C82.8673 9.34326 82.8673 9.34022 82.8673 9.33727C82.8673 9.33432 82.8673 9.33137 82.8673 9.32843C82.8673 9.32548 82.8673 9.32253 82.8673 9.31958C82.8673 9.31654 82.8673 9.31359 82.8673 9.31065C82.8673 9.3077 82.8673 9.30466 82.8673 9.30171C82.8673 9.29876 82.8673 9.29581 82.8673 9.29278C82.8673 9.28983 82.8673 9.28688 82.8673 9.28384C82.8673 9.28089 82.8673 9.27795 82.8673 9.27491C82.8673 9.27196 82.8673 9.26893 82.8673 9.26598C82.8673 9.26303 82.8673 9.25999 82.8673 9.25704C82.8673 9.25401 82.8673 9.25106 82.8673 9.24802C82.8673 9.24507 82.8673 9.24204 82.8673 9.23909C82.8673 9.23605 82.8673 9.2331 82.8673 9.23007C82.8673 9.22712 82.8673 9.22408 82.8673 9.22105C82.8673 9.2181 82.8673 9.21506 82.8673 9.21203C82.8673 9.20908 82.8673 9.20604 82.8673 9.20301C82.8673 9.20006 82.8673 9.19702 82.8673 9.19399C82.8673 9.19104 82.8673 9.188 82.8673 9.18497C82.8673 9.18193 82.8673 9.17898 82.8673 9.17595C82.8673 9.17291 82.8673 9.16987 82.8673 9.16684C82.8673 9.16389 82.8673 9.16085 82.8673 9.15782C82.8673 9.15478 82.8673 9.15175 82.8673 9.14871C82.8673 9.14568 82.8673 9.14273 82.8673 9.13969C82.8673 9.13666 82.8673 9.13362 82.8673 9.13058C82.8673 9.12755 82.8673 9.12451 82.8673 9.12148C82.8673 9.11844 82.8673 9.11541 82.8673 9.11237C82.8673 9.10933 82.8673 9.1063 82.8673 9.10326C82.8673 9.10023 82.8673 9.09719 82.8673 9.09416C82.8673 9.09112 82.8673 9.08808 82.8673 9.08505C82.8673 9.08201 82.8673 9.07889 82.8673 9.07585C82.8673 9.07282 82.8673 9.06978 82.8673 9.06675C82.8673 9.06371 82.8673 9.06068 82.8673 9.05755C82.8673 9.05452 82.8673 9.05148 82.8673 9.04845C82.8673 9.04541 82.8673 9.04229 82.8673 9.03925C82.8673 9.03622 82.8673 9.03318 82.8673 9.03006C82.8673 9.02702 82.8673 9.02399 82.8673 9.02095C82.8673 9.01783 82.8673 9.01479 82.8673 9.01176C82.8673 9.00864 82.8673 9.0056 82.8673 9.00256C82.8673 8.99944 82.8673 8.99641 82.8673 8.99337C82.8673 8.99025 82.8673 8.98721 82.8673 8.98418C82.8673 8.98105 82.8673 8.97802 82.8673 8.97498C82.8673 8.97186 82.8673 8.96882 82.8673 8.9657C82.8673 8.96267 82.8673 8.95954 82.8673 8.95651C82.8673 8.95347 82.8673 8.95035 82.8673 8.94731C82.8673 8.94419 82.8673 8.94116 82.8673 8.93803C82.8673 8.935 82.8673 8.93187 82.8673 8.92884C82.8673 8.92572 82.8673 8.92268 82.8673 8.91956C82.8673 8.91652 82.8673 8.9134 82.8673 8.91036C82.8673 8.90724 82.8673 8.90412 82.8673 8.90108C82.8673 8.89796 82.8673 8.89493 82.8673 8.8918C82.8673 8.88877 82.8673 8.88565 82.8673 8.88252C82.8673 8.87949 82.8673 8.87636 82.8673 8.87333C82.8673 8.87021 82.8673 8.86708 82.8673 8.86405C82.8673 8.86093 82.8673 8.8578 82.8673 8.85477C82.8673 8.85165 82.8673 8.84861 82.8673 8.84549C82.8673 8.84236 82.8673 8.83933 82.8673 8.83621C82.8673 8.83308 82.8673 8.82996 82.8673 8.82693C82.8673 8.8238 82.8673 8.82068 82.8673 8.81765C82.8673 8.81452 82.8673 8.8114 82.8673 8.80836C82.8673 8.80524 82.8673 8.80212 82.8673 8.799C82.8673 8.79596 82.8673 8.79284 82.8673 8.78972C82.8673 8.78659 82.8673 8.78356 82.8673 8.78044C82.8673 8.77731 82.8673 8.77419 82.8673 8.77116C82.8673 8.76803 82.8673 8.76491 82.8673 8.76179C82.8673 8.75867 82.8673 8.75563 82.8673 8.75251C82.8673 8.74939 82.8673 8.74626 82.8673 8.74323C82.8673 8.7401 82.8673 8.73698 82.8673 8.73386C82.8673 8.73074 82.8673 8.72761 82.8673 8.72458C82.8673 8.72146 82.8673 8.71833 82.8673 8.71521C82.8673 8.71209 82.8673 8.70905 82.8673 8.70593C82.8673 8.70281 82.8673 8.69969 82.8673 8.69656C82.8673 8.69344 82.8673 8.69032 82.8673 8.68728C82.8673 8.68416 82.8673 8.68104 82.8673 8.67792C82.8673 8.67479 82.8673 8.67171 82.8673 8.66859C82.8673 8.66548 82.8673 8.66237 82.8673 8.65926C82.8673 8.65615 82.8673 8.65304 82.8673 8.64993C82.8673 8.64681 82.8673 8.6437 82.8673 8.64058C82.8673 8.63748 82.8673 8.63437 82.8673 8.63125C82.8673 8.62814 82.8673 8.62502 82.8673 8.62192C82.8673 8.61881 82.8673 8.61569 82.8673 8.61258C82.8673 8.60946 82.8673 8.60635 82.8673 8.60324C82.8673 8.60012 82.8673 8.59701 82.8673 8.5939C82.8673 8.59079 82.8673 8.58768 82.8673 8.58456C82.8673 8.58145 82.8673 8.57834 82.8673 8.57522C82.8673 8.57211 82.8673 8.56899 82.8673 8.56588C82.8673 8.56277 82.8673 8.55965 82.8673 8.55654C82.8673 8.55343 82.8673 8.55031 82.8673 8.5472C82.8673 8.54408 82.8673 8.54097 82.8673 8.53786C82.8673 8.53474 82.8673 8.53163 82.8673 8.52852C82.8673 8.52541 82.8673 8.5223 82.8673 8.51918C82.8673 8.51607 82.8673 8.51295 82.8673 8.50984C82.8673 8.50673 82.8673 8.50361 82.8673 8.50051C82.8673 8.49739 82.8673 8.49428 82.8673 8.49117C82.8673 8.48805 82.8673 8.48494 82.8673 8.48183C82.8673 8.47872 82.8673 8.47561 82.8673 8.47249C82.8673 8.46939 82.8673 8.46627 82.8673 8.46316C82.8673 8.46006 82.8673 8.45694 82.8673 8.45383C82.8673 8.45072 82.8673 8.44761 82.8673 8.4445C82.8673 8.44139 82.8673 8.43828 82.8673 8.43517C82.8673 8.43207 82.8673 8.42895 82.8673 8.42585C82.8673 8.42273 82.8673 8.41963 82.8673 8.41652C82.8673 8.41341 82.8673 8.4103 82.8673 8.4072C82.8673 8.40409 82.8673 8.40098 82.8673 8.39788C82.8673 8.39477 82.8673 8.39167 82.8673 8.38856C82.8673 8.38546 82.8673 8.38235 82.8673 8.37924C82.8673 8.37614 82.8673 8.37303 82.8673 8.36993C82.8673 8.36682 82.8673 8.36372 82.8673 8.36061C82.8673 8.35752 82.8673 8.35441 82.8673 8.35131C82.8673 8.34821 82.8673 8.34511 82.8673 8.34201C82.8673 8.3389 82.8673 8.33581 82.8673 8.3327C82.8673 8.32961 82.8673 8.3265 82.8673 8.32341C82.8673 8.32031 82.8673 8.31721 82.8673 8.31411C82.8673 8.31101 82.8673 8.30791 82.8673 8.30482C82.8673 8.30172 82.8673 8.29862 82.8673 8.29553C82.8673 8.29243 82.8673 8.28934 82.8673 8.28625C82.8673 8.28315 82.8673 8.28006 82.8673 8.27697C82.8673 8.27387 82.8673 8.27078 82.8673 8.26769C82.8673 8.2646 82.8673 8.26151 82.8673 8.25841C82.8673 8.25533 82.8673 8.25224 82.8673 8.24915C82.8673 8.24606 82.8673 8.24298 82.8673 8.23989C82.8673 8.2368 82.8673 8.23371 82.8673 8.23062C82.8673 8.22755 82.8673 8.22446 82.8673 8.22137C82.8673 8.21829 82.8673 8.2152 82.8673 8.21212C82.8673 8.20904 82.8673 8.20596 82.8673 8.20288C82.8673 8.1998 82.8673 8.19672 82.8673 8.19364C82.8673 8.19056 82.8673 8.18748 82.8673 8.1844C82.8673 8.18133 82.8673 8.17825 82.8673 8.17518C82.8673 8.1721 82.8673 8.16903 82.8673 8.16596C82.8673 8.16289 82.8673 8.15981 82.8673 8.15674C82.8673 8.15366 82.8673 8.15059 82.8673 8.14752C82.8673 8.14445 82.8673 8.14139 82.8673 8.13832C82.8673 8.13525 82.8673 8.13219 82.8673 8.12912C82.8673 8.12606 82.8673 8.12299 82.8673 8.11993C82.8673 8.11686 82.8673 8.1138 82.8673 8.11074C82.8673 8.10768 82.8673 8.10462 82.8673 8.10155C82.8673 8.0985 82.8673 8.09544 82.8673 8.09239C82.8673 8.08932 82.8673 8.08627 82.8673 8.08322C82.8673 8.08016 82.8673 8.0771 82.8673 8.07405C82.8673 8.071 82.8673 8.06795 82.8673 8.0649C82.8673 8.06185 82.8673 8.0588 82.8673 8.05575C82.8673 8.05271 82.8673 8.04966 82.8673 8.04662C82.8673 8.04357 82.8673 8.04053 82.8673 8.03748C82.8673 8.03444 82.8673 8.03139 82.8673 8.02836C82.8673 8.02531 82.8673 8.02228 82.8673 8.01923C82.8673 8.0162 82.8673 8.01316 82.8673 8.01013C82.8673 8.00709 82.8673 8.00406 82.8673 8.00103C82.8673 7.99799 82.8673 7.99497 82.8673 7.99193C82.8673 7.9889 82.8673 7.98588 82.8673 7.98285C82.8673 7.97982 82.8673 7.9768 82.8673 7.97377C82.8673 7.97075 82.8673 7.96772 82.8673 7.9647C82.8673 7.96168 82.8673 7.95866 82.8673 7.95564C82.8673 7.95262 82.8673 7.9496 82.8673 7.94659C82.8673 7.94358 82.8673 7.94056 82.8673 7.93755C82.8673 7.93453 82.8673 7.93152 82.8673 7.92851C82.8673 7.9255 82.8673 7.92249 82.8673 7.91949C82.8673 7.91648 82.8673 7.91347 82.8673 7.91047C82.8673 7.90747 82.8673 7.90447 82.8673 7.90147C82.8673 7.89847 82.8673 7.89546 82.8673 7.89246C82.8673 7.88947 82.8673 7.88647 82.8673 7.88348C82.8673 7.88049 82.8673 7.87749 82.8673 7.8745C82.8673 7.87151 82.8673 7.86852 82.8673 7.86553C82.8673 7.86255 82.8673 7.85956 82.8673 7.85657C82.8673 7.85359 82.8673 7.85061 82.8673 7.84763C82.8673 7.84465 82.8673 7.84166 82.8673 7.83869C82.8673 7.83571 82.8673 7.83274 82.8673 7.82976C82.8673 7.82679 82.8673 7.82381 82.8673 7.82085C82.8673 7.81787 82.8673 7.81491 82.8673 7.81194C82.8673 7.80897 82.8673 7.80601 82.8673 7.80304C82.8673 7.80008 82.8673 7.79712 82.8673 7.79416C82.8673 7.7912 82.8673 7.78824 82.8673 7.78529C82.8673 7.78233 82.8673 7.77937 82.8673 7.77642C82.8673 7.77347 82.8673 7.77051 82.8673 7.76757C82.8673 7.76462 82.8673 7.76168 82.8673 7.75873C82.8673 7.75579 82.8673 7.75284 82.8673 7.7499C82.8673 7.74696 82.8673 7.74402 82.8673 7.74109C82.8673 7.73815 82.8673 7.73521 82.8673 7.73228C82.8673 7.72935 82.8673 7.72642 82.8673 7.72349C82.8673 7.72056 82.8673 7.71763 82.8673 7.71471C82.8673 7.71178 82.8673 7.70885 82.8673 7.70594C82.8673 7.70302 82.8673 7.70009 82.8673 7.69718C82.8673 7.69427 82.8673 7.69135 82.8673 7.68844C82.8673 7.68552 82.8673 7.68262 82.8673 7.6797C82.8673 7.6768 82.8673 7.67389 82.8673 7.67099C82.8673 7.66808 82.8673 7.66518 82.8673 7.66228C82.8673 7.65938 82.8673 7.65648 82.8673 7.65359C82.8673 7.65069 82.8673 7.6478 82.8673 7.64491C82.8673 7.64202 82.8673 7.63913 82.8673 7.63624C82.8673 7.63335 82.8673 7.63047 82.8673 7.62759C82.8673 7.6247 82.8673 7.62182 82.8673 7.61895C82.8673 7.61607 82.8673 7.61319 82.8673 7.61032C82.8673 7.60745 82.8673 7.60458 82.8673 7.60171C82.8673 7.59884 82.8673 7.59598 82.8673 7.59312C82.8673 7.59025 82.8673 7.58739 82.8673 7.58453C82.8673 7.58167 82.8673 7.57881 82.8673 7.57596C82.8673 7.57311 82.8673 7.57025 82.8673 7.56741C82.8673 7.56455 82.8673 7.56171 82.8673 7.55886C82.8673 7.55602 82.8673 7.55317 82.8673 7.55034C82.8673 7.54749 82.8673 7.54466 82.8673 7.54182C82.8673 7.53899 82.8673 7.53616 82.8673 7.53333C82.8673 7.5305 82.8673 7.52767 82.8673 7.52485C82.8673 7.52202 82.8673 7.5192 82.8673 7.51638C82.8673 7.51356 82.8673 7.51074 82.8673 7.50792C82.8673 7.50511 82.8673 7.5023 82.8673 7.49949C82.8673 7.49668 82.8673 7.49387 82.8673 7.49107C82.8673 7.48826 82.8673 7.48546 82.8673 7.48267C82.8673 7.47987 82.8673 7.47707 82.8673 7.47427C82.8673 7.47148 82.8673 7.46869 82.8673 7.4659C82.8673 7.46311 82.8673 7.46033 82.8673 7.45754C82.8673 7.45477 82.8673 7.45198 82.8673 7.44921C82.8673 7.44642 82.8673 7.44365 82.8673 7.44088C82.8673 7.4381 82.8673 7.43534 82.8673 7.43257C82.8673 7.4298 82.8673 7.42704 82.8673 7.42428C82.8673 7.42152 82.8673 7.41875 82.8673 7.416C82.8673 7.41325 82.8673 7.4105 82.8673 7.40775C82.8673 7.405 82.8673 7.40225 82.8673 7.3995C82.8673 7.39676 82.8673 7.39402 82.8673 7.39128C82.8673 7.38853 82.8673 7.3858 82.8673 7.38307C82.8673 7.38034 82.8673 7.37761 82.8673 7.37488C82.8673 7.37215 82.8673 7.36943 82.8673 7.3667C82.8673 7.36399 82.8673 7.36127 82.8673 7.35855C82.8673 7.35584 82.8673 7.35312 82.8673 7.35041C82.8673 7.3477 82.8673 7.34499 82.8673 7.3423C82.8673 7.33959 82.8673 7.33689 82.8673 7.3342C82.8673 7.3315 82.8673 7.3288 82.8673 7.32611C82.8673 7.32341 82.8673 7.32073 82.8673 7.31805C82.8673 7.31536 82.8673 7.31268 82.8673 7.31C82.8673 7.30732 82.8673 7.30464 82.8673 7.30197C82.8673 7.29929 82.8673 7.29663 82.8673 7.29396C82.8673 7.2913 82.8673 7.28863 82.8673 7.28597C82.8673 7.28331 82.8673 7.28065 82.8673 7.278C82.8673 7.27535 82.8673 7.27269 82.8673 7.27005C82.8673 7.2674 82.8673 7.26476 82.8673 7.26211C82.8673 7.25947 82.8673 7.25683 82.8673 7.2542C82.8673 7.25156 82.8673 7.24893 82.8673 7.2463C82.8673 7.24367 82.8673 7.24105 82.8673 7.23842C82.8673 7.2358 82.8673 7.23318 82.8673 7.23057C82.8673 7.22795 82.8673 7.22534 82.8673 7.22273C82.8673 7.22013 82.8673 7.21752 82.8673 7.21492C82.8673 7.21232 82.8673 7.20972 82.8673 7.20712C82.8673 7.20453 82.8673 7.20193 82.8673 7.19935C82.8673 7.19676 82.8673 7.19418 82.8673 7.19159C82.8673 7.18901 82.8673 7.18643 82.8673 7.18386C82.8673 7.18128 82.8673 7.17871 82.8673 7.17615C82.8673 7.17358 82.8673 7.17101 82.8673 7.16845C82.8673 7.1659 82.8673 7.16334 82.8673 7.16078C82.8673 7.15823 82.8673 7.15568 82.8673 7.15313C82.8673 7.15058 82.8673 7.14804 82.8673 7.1455C82.8673 7.14296 82.8673 7.14042 82.8673 7.13789C82.8673 7.13536 82.8673 7.13283 82.8673 7.1303C82.8673 7.12778 82.8673 7.12525 82.8673 7.12274C82.8673 7.12022 82.8673 7.11771 82.8673 7.11519C82.8673 7.11268 82.8673 7.11018 82.8673 7.10767C82.8673 7.10516 82.8673 7.10267 82.8673 7.10017C82.8673 7.09767 82.8673 7.09518 82.8673 7.09269C82.8673 7.0902 82.8673 7.08771 82.8673 7.08523C82.8673 7.08275 82.8673 7.08028 82.8673 7.0778C82.8673 7.07533 82.8673 7.07285 82.8673 7.07039C82.8673 7.06792 82.8673 7.06546 82.8673 7.063C82.8673 7.06054 82.8673 7.05808 82.8673 7.05564C82.8673 7.05318 82.8673 7.05074 82.8673 7.04829C82.8673 7.04585 82.8673 7.04341 82.8673 7.04097C82.8673 7.03853 82.8673 7.03611 82.8673 7.03368C82.8673 7.03125 82.8673 7.02882 82.8673 7.0264C82.8673 7.02398 82.8673 7.02156 82.8673 7.01915C82.8673 7.01674 82.8673 7.01433 82.8673 7.01192C82.8673 7.00952 82.8673 7.00712 82.8673 7.00473C82.8673 7.00232 82.8673 6.99993 82.8673 6.99754C82.8673 6.99515 82.8673 6.99276 82.8673 6.99039C82.8673 6.988 82.8673 6.98563 82.8673 6.98326C82.8673 6.98088 82.8673 6.97851 82.8673 6.97615C82.8673 6.97379 82.8673 6.97142 82.8673 6.96907C82.8673 6.96671 82.8673 6.96436 82.8673 6.96201C82.8673 6.95966 82.8673 6.95732 82.8673 6.95497C82.8673 6.95263 82.8673 6.9503 82.8673 6.94797C82.8673 6.94563 82.8673 6.9433 82.8673 6.94098C82.8673 6.93866 82.8673 6.93633 82.8673 6.93402C82.8673 6.9317 82.8673 6.9294 82.8673 6.92709C82.8673 6.92478 82.8673 6.92247 82.8673 6.92018C82.8673 6.91788 82.8673 6.91559 82.8673 6.91329C82.8673 6.911 82.8673 6.90872 82.8673 6.90644C82.8673 6.90416 82.8673 6.90187 82.8673 6.8996C82.8673 6.89733 82.8673 6.89506 82.8673 6.89279C82.8673 6.89053 82.8673 6.88828 82.8673 6.88601C82.8673 6.88376 82.8673 6.88151 82.8673 6.87926C82.8673 6.87702 82.8673 6.87477 82.8673 6.87253C82.8673 6.87029 82.8673 6.86806 82.8673 6.86583C82.8673 6.8636 82.8673 6.86137 82.8673 6.85915C82.8673 6.85693 82.8673 6.85472 82.8673 6.85251C82.8673 6.85029 82.8673 6.84808 82.8673 6.84588C82.8673 6.84368 82.8673 6.84148 82.8673 6.83929C82.8673 6.83709 82.8673 6.8349 82.8673 6.83271C82.8673 6.83053 82.8673 6.82835 82.8673 6.82617C82.8673 6.824 82.8673 6.82183 82.8673 6.81966C82.8673 6.81749 82.8673 6.81533 82.8673 6.81317C82.8673 6.81101 82.8673 6.80886 82.8673 6.80671C82.8673 6.80457 82.8673 6.80242 82.8673 6.80028C82.8673 6.79814 82.8673 6.79601 82.8673 6.79387C82.8673 6.79175 82.8673 6.78962 82.8673 6.7875C82.8673 6.78538 82.8673 6.78327 82.8673 6.78115C82.8673 6.77904 82.8673 6.77693 82.8673 6.77483C82.8673 6.77273 82.8673 6.77063 82.8673 6.76854C82.8673 6.76645 82.8673 6.76436 82.8673 6.76228C82.8673 6.76019 82.8673 6.75811 82.8673 6.75604C82.8673 6.75397 82.8673 6.75189 82.8673 6.74983C82.8673 6.74776 82.8673 6.74571 82.8673 6.74365C82.8673 6.7416 82.8673 6.73955 82.8673 6.7375C82.8673 6.73546 82.8673 6.73342 82.8673 6.73139C82.8673 6.72935 82.8673 6.72732 82.8673 6.72529C82.8673 6.72327 82.8673 6.72125 82.8673 6.71924C82.8673 6.71722 82.8673 6.7152 82.8673 6.7132C82.8673 6.7112 82.8673 6.70919 82.8673 6.7072C82.8673 6.7052 82.8673 6.70321 82.8673 6.70122C82.8673 6.69924 82.8673 6.69726 82.8673 6.69528C82.8673 6.6933 82.8673 6.69134 82.8673 6.68938C82.8673 6.68741 82.8673 6.68545 82.8673 6.68349C82.8673 6.68153 82.8673 6.67958 82.8673 6.67764C82.8673 6.67569 82.8673 6.67375 82.8673 6.67181C82.8673 6.66988 82.8673 6.66795 82.8673 6.66603C82.8673 6.6641 82.8673 6.66217 82.8673 6.66026C82.8673 6.65835 82.8673 6.65643 82.8673 6.65453C82.8673 6.65263 82.8673 6.65073 82.8673 6.64884C82.8673 6.64694 82.8673 6.64504 82.8673 6.64316C82.8673 6.64128 82.8673 6.6394 82.8673 6.63753C82.8673 6.63565 82.8673 6.63379 82.8673 6.63192C82.8673 6.63006 82.8673 6.6282 82.8673 6.62635C82.8673 6.6245 82.8673 6.62264 82.8673 6.6208C82.8673 6.61896 82.8673 6.61713 82.8673 6.61529C82.8673 6.61346 82.8673 6.61163 82.8673 6.60981C82.8673 6.60799 82.8673 6.60618 82.8673 6.60437C82.8673 6.60255 82.8673 6.60075 82.8673 6.59895C82.8673 6.59715 82.8673 6.59535 82.8673 6.59357C82.8673 6.59178 82.8673 6.58999 82.8673 6.58822C82.8673 6.58644 82.8673 6.58467 82.8673 6.5829C82.8673 6.58113 82.8673 6.57937 82.8673 6.57761C82.8673 6.57586 82.8673 6.5741 82.8673 6.57236C82.8673 6.57062 82.8673 6.56887 82.8673 6.56714C82.8673 6.56541 82.8673 6.56368 82.8673 6.56195C82.8673 6.56023 82.8673 6.55851 82.8673 6.5568C82.8673 6.55508 82.8673 6.55338 82.8673 6.55168C82.8673 6.54998 82.8673 6.54828 82.8673 6.54659C82.8673 6.5449 82.8673 6.54322 82.8673 6.54154C82.8673 6.53986 82.8673 6.53819 82.8673 6.53651C82.8673 6.53485 82.8673 6.53318 82.8673 6.53153C82.8673 6.52987 82.8673 6.52822 82.8673 6.52657C82.8673 6.52493 82.8673 6.5233 82.8673 6.52166C82.8673 6.52003 82.8673 6.51839 82.8673 6.51677C82.8673 6.51515 82.8673 6.51354 82.8673 6.51192C82.8673 6.51031 82.8673 6.50871 82.8673 6.50711C82.8673 6.50551 82.8673 6.50392 82.8673 6.50233C82.8673 6.50074 82.8673 6.49916 82.8673 6.49759C82.8673 6.49601 82.8673 6.49444 82.8673 6.49287C82.8673 6.49131 82.8673 6.48975 82.8673 6.48819C82.8673 6.48664 82.8673 6.4851 82.8673 6.48355C82.8673 6.48202 82.8673 6.48048 82.8673 6.47895C82.8673 6.47742 82.8673 6.4759 82.8673 6.47438C82.8673 6.47286 82.8673 6.47135 82.8673 6.46984C82.8673 6.46834 82.8673 6.46684 82.8673 6.46535C82.8673 6.46385 82.8673 6.46236 82.8673 6.46088C82.8673 6.4594 82.8673 6.45792 82.8673 6.45646C82.8673 6.45498 82.8673 6.45352 82.8673 6.45206C82.8673 6.4506 82.8673 6.44915 82.8673 6.44771C82.8673 6.44626 82.8673 6.44482 82.8673 6.44339C82.8673 6.44196 82.8673 6.44052 82.8673 6.4391C82.8673 6.43768 82.8673 6.43627 82.8673 6.43486C82.8673 6.43345 82.8673 6.43205 82.8673 6.43065C82.8673 6.42925 82.8673 6.42786 82.8673 6.42647C82.8673 6.42509 82.8673 6.42372 82.8673 6.42234C82.8673 6.42097 82.8673 6.4196 82.8673 6.41824C82.8673 6.41688 82.8673 6.41553 82.8673 6.41418C82.8673 6.41283 82.8673 6.41149 82.8673 6.41016C82.8673 6.40882 82.8673 6.4075 82.8673 6.40617C82.8673 6.40485 82.8673 6.40353 82.8673 6.40222C82.8673 6.40091 82.8673 6.39961 82.8673 6.39831C82.8673 6.39701 82.8673 6.39572 82.8673 6.39443C82.8673 6.39315 82.8673 6.39188 82.8673 6.3906C82.8673 6.38933 82.8673 6.38807 82.8673 6.3868C82.8673 6.38554 82.8673 6.38429 82.8673 6.38305C82.8673 6.3818 82.8673 6.38056 82.8673 6.37932C82.8673 6.37809 82.8673 6.37686 82.8673 6.37565C82.8673 6.37442 82.8673 6.37321 82.8673 6.372C82.8673 6.37079 82.8673 6.36959 82.8673 6.3684C82.8673 6.3672 82.8673 6.36601 82.8673 6.36483C82.8673 6.36364 82.8673 6.36247 82.8673 6.3613C82.8673 6.36013 82.8673 6.35897 82.8673 6.35781C82.8673 6.35666 82.8673 6.35551 82.8673 6.35437C82.8673 6.35323 82.8673 6.35209 82.8673 6.35096C82.8673 6.34983 82.8673 6.34871 82.8673 6.34759C82.8673 6.34647 82.8673 6.34537 82.8673 6.34426C82.8673 6.34316 82.8673 6.34206 82.8673 6.34097C82.8673 6.33988 82.8673 6.3388 82.8673 6.33772C82.8673 6.33664 82.8673 6.33558 82.8673 6.33451C82.8673 6.33345 82.8673 6.33239 82.8673 6.33134C82.8673 6.33029 82.8673 6.32925 82.8673 6.32821C82.8673 6.32718 82.8673 6.32615 82.8673 6.32512C82.8673 6.3241 82.8673 6.32309 82.8673 6.32208C82.8673 6.32107 82.8673 6.32007 82.8673 6.31907C82.8673 6.31807 82.8673 6.31708 82.8673 6.3161C82.8673 6.31512 82.8673 6.31415 82.8673 6.31318C82.8673 6.31221 82.8673 6.31125 82.8673 6.3103C82.8673 6.30935 82.8673 6.30839 82.8673 6.30746C82.8673 6.30651 82.8673 6.30558 82.8673 6.30465C82.8673 6.30373 82.8673 6.30281 82.8673 6.3019C82.8673 6.30099 82.8673 6.30008 82.8673 6.29917C82.8673 6.29828 82.8673 6.29739 82.8673 6.2965C82.8673 6.29562 82.8673 6.29474 82.8673 6.29386C82.8673 6.293 82.8673 6.29213 82.8673 6.29127C82.8673 6.29042 82.8673 6.28957 82.8673 6.28873C82.8673 6.28788 82.8673 6.28705 82.8673 6.28621C82.8673 6.28539 82.8673 6.28457 82.8673 6.28375C82.8673 6.28294 82.8673 6.28213 82.8673 6.28133C82.8673 6.28053 82.8673 6.27974 82.8673 6.27895C82.8673 6.27817 82.8673 6.27739 82.8673 6.27661C82.8673 6.27584 82.8673 6.27508 82.8673 6.27432C82.8673 6.27357 82.8673 6.27281 82.8673 6.27207C82.8673 6.27133 82.8673 6.27059 82.8673 6.26987C82.8673 6.26914 82.8673 6.26842 82.8673 6.2677C82.8673 6.26699 82.8673 6.26628 82.8673 6.26558C82.8673 6.26488 82.8673 6.26419 82.8673 6.26351C82.8673 6.26282 82.8673 6.26215 82.8673 6.26147C82.8673 6.2608 82.8673 6.26014 82.8673 6.25948C82.8673 6.25882 82.8673 6.25818 82.8673 6.25754C82.8673 6.2569 82.8673 6.25627 82.8673 6.25564C82.8673 6.25501 82.8673 6.25439 82.8673 6.25378C82.8673 6.25317 82.8673 6.25257 82.8673 6.25197C82.8673 6.25137 82.8673 6.25078 82.8673 6.2502C82.8673 6.24962 82.8673 6.24905 82.8673 6.24848C82.8673 6.24791 82.8673 6.24736 82.8673 6.2468C82.8673 6.24625 82.8673 6.24571 82.8673 6.24517C82.8673 6.24463 82.8673 6.2441 82.8673 6.24358C82.8673 6.24306 82.8673 6.24254 82.8673 6.24204C82.8673 6.24154 82.8673 6.24103 82.8673 6.24054C82.8673 6.24005 82.8673 6.23957 82.8673 6.23909C82.8673 6.23861 82.8673 6.23815 82.8673 6.23769C82.8673 6.23723 82.8673 6.23678 82.8673 6.23632C82.8673 6.23588 82.8673 6.23544 82.8673 6.23502C82.8673 6.23458 82.8673 6.23416 82.8673 6.23374C82.8673 6.23333 82.8673 6.23293 82.8673 6.23253C82.8673 6.23213 82.8673 6.23173 82.8673 6.23135C82.8673 6.23096 82.8673 6.23058 82.8673 6.23022C82.8673 6.22985 82.8673 6.22949 82.8673 6.22913C82.8673 6.22878 82.8673 6.22844 82.8673 6.2281C82.8673 6.22776 82.8673 6.22743 82.8673 6.22711C82.8673 6.22679 82.8673 6.22647 82.8673 6.22617C82.8673 6.22586 82.8673 6.22556 82.8673 6.22527C82.8673 6.22498 82.8673 6.2247 82.8673 6.22442C82.8673 6.22415 82.8673 6.22389 82.8673 6.22363C82.8673 6.22337 82.8673 6.22312 82.8673 6.22287C82.8673 6.22263 82.8673 6.2224 82.8673 6.22217C82.8673 6.22194 82.8673 6.22172 82.8673 6.22151C82.8673 6.2213 82.8673 6.22109 82.8673 6.2209C82.8673 6.2207 82.8673 6.22052 82.8673 6.22034C82.8673 6.22016 82.8673 6.21999 82.8673 6.21983C82.8673 6.21966 82.8673 6.21951 82.8673 6.21936C82.8673 6.21921 82.8673 6.21907 82.8673 6.21894C82.8673 6.21881 82.8673 6.21869 82.8673 6.21858C82.8673 6.21846 82.8673 6.21835 82.8673 6.21826C82.8673 6.21815 82.8673 6.21807 82.8673 6.21799C82.8673 6.2179 82.8673 6.21783 82.8673 6.21776C82.8673 6.21769 82.8673 6.21764 82.8673 6.21759C82.8673 6.21754 82.8673 6.2175 82.8673 6.21747C82.8673 6.21743 82.8673 6.21741 82.8673 6.21739C82.8673 6.21737 82.8673 6.21736 82.7437 6.21736C82.6201 6.21736 82.6201 6.21737 82.6201 6.21739C82.6201 6.21741 82.6201 6.21743 82.6201 6.21747C82.6201 6.2175 82.6201 6.21754 82.6201 6.21759C82.6201 6.21764 82.6201 6.21769 82.6201 6.21776C82.6201 6.21783 82.6201 6.2179 82.6201 6.21799C82.6201 6.21807 82.6201 6.21815 82.6201 6.21826C82.6201 6.21835 82.6201 6.21846 82.6201 6.21858C82.6201 6.21869 82.6201 6.21881 82.6201 6.21894C82.6201 6.21907 82.6201 6.21921 82.6201 6.21936C82.6201 6.21951 82.6201 6.21966 82.6201 6.21983C82.6201 6.21999 82.6201 6.22016 82.6201 6.22034C82.6201 6.22052 82.6201 6.2207 82.6201 6.2209C82.6201 6.22109 82.6201 6.2213 82.6201 6.22151C82.6201 6.22172 82.6201 6.22194 82.6201 6.22217C82.6201 6.2224 82.6201 6.22263 82.6201 6.22287C82.6201 6.22312 82.6201 6.22337 82.6201 6.22363C82.6201 6.22389 82.6201 6.22415 82.6201 6.22442C82.6201 6.2247 82.6201 6.22498 82.6201 6.22527C82.6201 6.22556 82.6201 6.22586 82.6201 6.22617C82.6201 6.22647 82.6201 6.22679 82.6201 6.22711C82.6201 6.22743 82.6201 6.22776 82.6201 6.2281C82.6201 6.22844 82.6201 6.22878 82.6201 6.22913C82.6201 6.22949 82.6201 6.22985 82.6201 6.23022C82.6201 6.23058 82.6201 6.23096 82.6201 6.23135C82.6201 6.23173 82.6201 6.23213 82.6201 6.23253C82.6201 6.23293 82.6201 6.23333 82.6201 6.23374C82.6201 6.23416 82.6201 6.23458 82.6201 6.23502C82.6201 6.23544 82.6201 6.23588 82.6201 6.23632C82.6201 6.23678 82.6201 6.23723 82.6201 6.23769C82.6201 6.23815 82.6201 6.23861 82.6201 6.23909C82.6201 6.23957 82.6201 6.24005 82.6201 6.24054C82.6201 6.24103 82.6201 6.24154 82.6201 6.24204C82.6201 6.24254 82.6201 6.24306 82.6201 6.24358C82.6201 6.2441 82.6201 6.24463 82.6201 6.24517C82.6201 6.24571 82.6201 6.24625 82.6201 6.2468C82.6201 6.24736 82.6201 6.24791 82.6201 6.24848C82.6201 6.24905 82.6201 6.24962 82.6201 6.2502C82.6201 6.25078 82.6201 6.25137 82.6201 6.25197C82.6201 6.25257 82.6201 6.25317 82.6201 6.25378C82.6201 6.25439 82.6201 6.25501 82.6201 6.25564C82.6201 6.25627 82.6201 6.2569 82.6201 6.25754C82.6201 6.25818 82.6201 6.25882 82.6201 6.25948C82.6201 6.26014 82.6201 6.2608 82.6201 6.26147C82.6201 6.26215 82.6201 6.26282 82.6201 6.26351C82.6201 6.26419 82.6201 6.26488 82.6201 6.26558C82.6201 6.26628 82.6201 6.26699 82.6201 6.2677C82.6201 6.26842 82.6201 6.26914 82.6201 6.26987C82.6201 6.27059 82.6201 6.27133 82.6201 6.27207C82.6201 6.27281 82.6201 6.27357 82.6201 6.27432C82.6201 6.27508 82.6201 6.27584 82.6201 6.27661C82.6201 6.27739 82.6201 6.27817 82.6201 6.27895C82.6201 6.27974 82.6201 6.28053 82.6201 6.28133C82.6201 6.28213 82.6201 6.28294 82.6201 6.28375C82.6201 6.28457 82.6201 6.28539 82.6201 6.28621C82.6201 6.28705 82.6201 6.28788 82.6201 6.28873C82.6201 6.28957 82.6201 6.29042 82.6201 6.29127C82.6201 6.29213 82.6201 6.293 82.6201 6.29386C82.6201 6.29474 82.6201 6.29562 82.6201 6.2965C82.6201 6.29739 82.6201 6.29828 82.6201 6.29917C82.6201 6.30008 82.6201 6.30099 82.6201 6.3019C82.6201 6.30281 82.6201 6.30373 82.6201 6.30465C82.6201 6.30558 82.6201 6.30651 82.6201 6.30746C82.6201 6.30839 82.6201 6.30935 82.6201 6.3103C82.6201 6.31125 82.6201 6.31221 82.6201 6.31318C82.6201 6.31415 82.6201 6.31512 82.6201 6.3161C82.6201 6.31708 82.6201 6.31807 82.6201 6.31907C82.6201 6.32007 82.6201 6.32107 82.6201 6.32208C82.6201 6.32309 82.6201 6.3241 82.6201 6.32512C82.6201 6.32615 82.6201 6.32718 82.6201 6.32821C82.6201 6.32925 82.6201 6.33029 82.6201 6.33134C82.6201 6.33239 82.6201 6.33345 82.6201 6.33451C82.6201 6.33558 82.6201 6.33664 82.6201 6.33772C82.6201 6.3388 82.6201 6.33988 82.6201 6.34097C82.6201 6.34206 82.6201 6.34316 82.6201 6.34426C82.6201 6.34537 82.6201 6.34647 82.6201 6.34759C82.6201 6.34871 82.6201 6.34983 82.6201 6.35096C82.6201 6.35209 82.6201 6.35323 82.6201 6.35437C82.6201 6.35551 82.6201 6.35666 82.6201 6.35781C82.6201 6.35897 82.6201 6.36013 82.6201 6.3613C82.6201 6.36247 82.6201 6.36364 82.6201 6.36483C82.6201 6.36601 82.6201 6.3672 82.6201 6.3684C82.6201 6.36959 82.6201 6.37079 82.6201 6.372C82.6201 6.37321 82.6201 6.37442 82.6201 6.37565C82.6201 6.37686 82.6201 6.37809 82.6201 6.37932C82.6201 6.38056 82.6201 6.3818 82.6201 6.38305C82.6201 6.38429 82.6201 6.38554 82.6201 6.3868C82.6201 6.38807 82.6201 6.38933 82.6201 6.3906C82.6201 6.39188 82.6201 6.39315 82.6201 6.39443C82.6201 6.39572 82.6201 6.39701 82.6201 6.39831C82.6201 6.39961 82.6201 6.40091 82.6201 6.40222C82.6201 6.40353 82.6201 6.40485 82.6201 6.40617C82.6201 6.4075 82.6201 6.40882 82.6201 6.41016C82.6201 6.41149 82.6201 6.41283 82.6201 6.41418C82.6201 6.41553 82.6201 6.41688 82.6201 6.41824C82.6201 6.4196 82.6201 6.42097 82.6201 6.42234C82.6201 6.42372 82.6201 6.42509 82.6201 6.42647C82.6201 6.42786 82.6201 6.42925 82.6201 6.43065C82.6201 6.43205 82.6201 6.43345 82.6201 6.43486C82.6201 6.43627 82.6201 6.43768 82.6201 6.4391C82.6201 6.44052 82.6201 6.44196 82.6201 6.44339C82.6201 6.44482 82.6201 6.44626 82.6201 6.44771C82.6201 6.44915 82.6201 6.4506 82.6201 6.45206C82.6201 6.45352 82.6201 6.45498 82.6201 6.45646C82.6201 6.45792 82.6201 6.4594 82.6201 6.46088C82.6201 6.46236 82.6201 6.46385 82.6201 6.46535C82.6201 6.46684 82.6201 6.46834 82.6201 6.46984C82.6201 6.47135 82.6201 6.47286 82.6201 6.47438C82.6201 6.4759 82.6201 6.47742 82.6201 6.47895C82.6201 6.48048 82.6201 6.48202 82.6201 6.48355C82.6201 6.4851 82.6201 6.48664 82.6201 6.48819C82.6201 6.48975 82.6201 6.49131 82.6201 6.49287C82.6201 6.49444 82.6201 6.49601 82.6201 6.49759C82.6201 6.49916 82.6201 6.50074 82.6201 6.50233C82.6201 6.50392 82.6201 6.50551 82.6201 6.50711C82.6201 6.50871 82.6201 6.51031 82.6201 6.51192C82.6201 6.51354 82.6201 6.51515 82.6201 6.51677C82.6201 6.51839 82.6201 6.52003 82.6201 6.52166C82.6201 6.5233 82.6201 6.52493 82.6201 6.52657C82.6201 6.52822 82.6201 6.52987 82.6201 6.53153C82.6201 6.53318 82.6201 6.53485 82.6201 6.53651C82.6201 6.53819 82.6201 6.53986 82.6201 6.54154C82.6201 6.54322 82.6201 6.5449 82.6201 6.54659C82.6201 6.54828 82.6201 6.54998 82.6201 6.55168C82.6201 6.55338 82.6201 6.55508 82.6201 6.5568C82.6201 6.55851 82.6201 6.56023 82.6201 6.56195C82.6201 6.56368 82.6201 6.56541 82.6201 6.56714C82.6201 6.56887 82.6201 6.57062 82.6201 6.57236C82.6201 6.5741 82.6201 6.57586 82.6201 6.57761C82.6201 6.57937 82.6201 6.58113 82.6201 6.5829C82.6201 6.58467 82.6201 6.58644 82.6201 6.58822C82.6201 6.58999 82.6201 6.59178 82.6201 6.59357C82.6201 6.59535 82.6201 6.59715 82.6201 6.59895C82.6201 6.60075 82.6201 6.60255 82.6201 6.60437C82.6201 6.60618 82.6201 6.60799 82.6201 6.60981C82.6201 6.61163 82.6201 6.61346 82.6201 6.61529C82.6201 6.61713 82.6201 6.61896 82.6201 6.6208C82.6201 6.62264 82.6201 6.6245 82.6201 6.62635C82.6201 6.6282 82.6201 6.63006 82.6201 6.63192C82.6201 6.63379 82.6201 6.63565 82.6201 6.63753C82.6201 6.6394 82.6201 6.64128 82.6201 6.64316C82.6201 6.64504 82.6201 6.64694 82.6201 6.64884C82.6201 6.65073 82.6201 6.65263 82.6201 6.65453C82.6201 6.65643 82.6201 6.65835 82.6201 6.66026C82.6201 6.66217 82.6201 6.6641 82.6201 6.66603C82.6201 6.66795 82.6201 6.66988 82.6201 6.67181C82.6201 6.67375 82.6201 6.67569 82.6201 6.67764C82.6201 6.67958 82.6201 6.68153 82.6201 6.68349C82.6201 6.68545 82.6201 6.68741 82.6201 6.68938C82.6201 6.69134 82.6201 6.6933 82.6201 6.69528C82.6201 6.69726 82.6201 6.69924 82.6201 6.70122C82.6201 6.70321 82.6201 6.7052 82.6201 6.7072C82.6201 6.70919 82.6201 6.7112 82.6201 6.7132C82.6201 6.7152 82.6201 6.71722 82.6201 6.71924C82.6201 6.72125 82.6201 6.72327 82.6201 6.72529C82.6201 6.72732 82.6201 6.72935 82.6201 6.73139C82.6201 6.73342 82.6201 6.73546 82.6201 6.7375C82.6201 6.73955 82.6201 6.7416 82.6201 6.74365C82.6201 6.74571 82.6201 6.74776 82.6201 6.74983C82.6201 6.75189 82.6201 6.75397 82.6201 6.75604C82.6201 6.75811 82.6201 6.76019 82.6201 6.76228C82.6201 6.76436 82.6201 6.76645 82.6201 6.76854C82.6201 6.77063 82.6201 6.77273 82.6201 6.77483C82.6201 6.77693 82.6201 6.77904 82.6201 6.78115C82.6201 6.78327 82.6201 6.78538 82.6201 6.7875C82.6201 6.78962 82.6201 6.79175 82.6201 6.79387C82.6201 6.79601 82.6201 6.79814 82.6201 6.80028C82.6201 6.80242 82.6201 6.80457 82.6201 6.80671C82.6201 6.80886 82.6201 6.81101 82.6201 6.81317C82.6201 6.81533 82.6201 6.81749 82.6201 6.81966C82.6201 6.82183 82.6201 6.824 82.6201 6.82617C82.6201 6.82835 82.6201 6.83053 82.6201 6.83271C82.6201 6.8349 82.6201 6.83709 82.6201 6.83929C82.6201 6.84148 82.6201 6.84368 82.6201 6.84588C82.6201 6.84808 82.6201 6.85029 82.6201 6.85251C82.6201 6.85472 82.6201 6.85693 82.6201 6.85915C82.6201 6.86137 82.6201 6.8636 82.6201 6.86583C82.6201 6.86806 82.6201 6.87029 82.6201 6.87253C82.6201 6.87477 82.6201 6.87702 82.6201 6.87926C82.6201 6.88151 82.6201 6.88376 82.6201 6.88601C82.6201 6.88828 82.6201 6.89053 82.6201 6.89279C82.6201 6.89506 82.6201 6.89733 82.6201 6.8996C82.6201 6.90187 82.6201 6.90416 82.6201 6.90644C82.6201 6.90872 82.6201 6.911 82.6201 6.91329C82.6201 6.91559 82.6201 6.91788 82.6201 6.92018C82.6201 6.92247 82.6201 6.92478 82.6201 6.92709C82.6201 6.9294 82.6201 6.9317 82.6201 6.93402C82.6201 6.93633 82.6201 6.93866 82.6201 6.94098C82.6201 6.9433 82.6201 6.94563 82.6201 6.94797C82.6201 6.9503 82.6201 6.95263 82.6201 6.95497C82.6201 6.95732 82.6201 6.95966 82.6201 6.96201C82.6201 6.96436 82.6201 6.96671 82.6201 6.96907C82.6201 6.97142 82.6201 6.97379 82.6201 6.97615C82.6201 6.97851 82.6201 6.98088 82.6201 6.98326C82.6201 6.98563 82.6201 6.988 82.6201 6.99039C82.6201 6.99276 82.6201 6.99515 82.6201 6.99754C82.6201 6.99993 82.6201 7.00232 82.6201 7.00473C82.6201 7.00712 82.6201 7.00952 82.6201 7.01192C82.6201 7.01433 82.6201 7.01674 82.6201 7.01915C82.6201 7.02156 82.6201 7.02398 82.6201 7.0264C82.6201 7.02882 82.6201 7.03125 82.6201 7.03368C82.6201 7.03611 82.6201 7.03853 82.6201 7.04097C82.6201 7.04341 82.6201 7.04585 82.6201 7.04829C82.6201 7.05074 82.6201 7.05318 82.6201 7.05564C82.6201 7.05808 82.6201 7.06054 82.6201 7.063C82.6201 7.06546 82.6201 7.06792 82.6201 7.07039C82.6201 7.07285 82.6201 7.07533 82.6201 7.0778C82.6201 7.08028 82.6201 7.08275 82.6201 7.08523C82.6201 7.08771 82.6201 7.0902 82.6201 7.09269C82.6201 7.09518 82.6201 7.09767 82.6201 7.10017C82.6201 7.10267 82.6201 7.10516 82.6201 7.10767C82.6201 7.11018 82.6201 7.11268 82.6201 7.11519C82.6201 7.11771 82.6201 7.12022 82.6201 7.12274C82.6201 7.12525 82.6201 7.12778 82.6201 7.1303C82.6201 7.13283 82.6201 7.13536 82.6201 7.13789C82.6201 7.14042 82.6201 7.14296 82.6201 7.1455C82.6201 7.14804 82.6201 7.15058 82.6201 7.15313C82.6201 7.15568 82.6201 7.15823 82.6201 7.16078C82.6201 7.16334 82.6201 7.1659 82.6201 7.16845C82.6201 7.17101 82.6201 7.17358 82.6201 7.17615C82.6201 7.17871 82.6201 7.18128 82.6201 7.18386C82.6201 7.18643 82.6201 7.18901 82.6201 7.19159C82.6201 7.19418 82.6201 7.19676 82.6201 7.19935C82.6201 7.20193 82.6201 7.20453 82.6201 7.20712C82.6201 7.20972 82.6201 7.21232 82.6201 7.21492C82.6201 7.21752 82.6201 7.22013 82.6201 7.22273C82.6201 7.22534 82.6201 7.22795 82.6201 7.23057C82.6201 7.23318 82.6201 7.2358 82.6201 7.23842C82.6201 7.24105 82.6201 7.24367 82.6201 7.2463C82.6201 7.24893 82.6201 7.25156 82.6201 7.2542C82.6201 7.25683 82.6201 7.25947 82.6201 7.26211C82.6201 7.26476 82.6201 7.2674 82.6201 7.27005C82.6201 7.27269 82.6201 7.27535 82.6201 7.278C82.6201 7.28065 82.6201 7.28331 82.6201 7.28597C82.6201 7.28863 82.6201 7.2913 82.6201 7.29396C82.6201 7.29663 82.6201 7.29929 82.6201 7.30197C82.6201 7.30464 82.6201 7.30732 82.6201 7.31C82.6201 7.31268 82.6201 7.31536 82.6201 7.31805C82.6201 7.32073 82.6201 7.32341 82.6201 7.32611C82.6201 7.3288 82.6201 7.3315 82.6201 7.3342C82.6201 7.33689 82.6201 7.33959 82.6201 7.3423C82.6201 7.34499 82.6201 7.3477 82.6201 7.35041C82.6201 7.35312 82.6201 7.35584 82.6201 7.35855C82.6201 7.36127 82.6201 7.36399 82.6201 7.3667C82.6201 7.36943 82.6201 7.37215 82.6201 7.37488C82.6201 7.37761 82.6201 7.38034 82.6201 7.38307C82.6201 7.3858 82.6201 7.38853 82.6201 7.39128C82.6201 7.39402 82.6201 7.39676 82.6201 7.3995C82.6201 7.40225 82.6201 7.405 82.6201 7.40775C82.6201 7.4105 82.6201 7.41325 82.6201 7.416C82.6201 7.41875 82.6201 7.42152 82.6201 7.42428C82.6201 7.42704 82.6201 7.4298 82.6201 7.43257C82.6201 7.43534 82.6201 7.4381 82.6201 7.44088C82.6201 7.44365 82.6201 7.44642 82.6201 7.44921C82.6201 7.45198 82.6201 7.45477 82.6201 7.45754C82.6201 7.46033 82.6201 7.46311 82.6201 7.4659C82.6201 7.46869 82.6201 7.47148 82.6201 7.47427C82.6201 7.47707 82.6201 7.47987 82.6201 7.48267C82.6201 7.48546 82.6201 7.48826 82.6201 7.49107C82.6201 7.49387 82.6201 7.49668 82.6201 7.49949C82.6201 7.5023 82.6201 7.50511 82.6201 7.50792C82.6201 7.51074 82.6201 7.51356 82.6201 7.51638C82.6201 7.5192 82.6201 7.52202 82.6201 7.52485C82.6201 7.52767 82.6201 7.5305 82.6201 7.53333C82.6201 7.53616 82.6201 7.53899 82.6201 7.54182C82.6201 7.54466 82.6201 7.54749 82.6201 7.55034C82.6201 7.55317 82.6201 7.55602 82.6201 7.55886C82.6201 7.56171 82.6201 7.56455 82.6201 7.56741C82.6201 7.57025 82.6201 7.57311 82.6201 7.57596C82.6201 7.57881 82.6201 7.58167 82.6201 7.58453C82.6201 7.58739 82.6201 7.59025 82.6201 7.59312C82.6201 7.59598 82.6201 7.59884 82.6201 7.60171C82.6201 7.60458 82.6201 7.60745 82.6201 7.61032C82.6201 7.61319 82.6201 7.61607 82.6201 7.61895C82.6201 7.62182 82.6201 7.6247 82.6201 7.62759C82.6201 7.63047 82.6201 7.63335 82.6201 7.63624C82.6201 7.63913 82.6201 7.64202 82.6201 7.64491C82.6201 7.6478 82.6201 7.65069 82.6201 7.65359C82.6201 7.65648 82.6201 7.65938 82.6201 7.66228C82.6201 7.66518 82.6201 7.66808 82.6201 7.67099C82.6201 7.67389 82.6201 7.6768 82.6201 7.6797C82.6201 7.68262 82.6201 7.68552 82.6201 7.68844C82.6201 7.69135 82.6201 7.69427 82.6201 7.69718C82.6201 7.70009 82.6201 7.70302 82.6201 7.70594C82.6201 7.70885 82.6201 7.71178 82.6201 7.71471C82.6201 7.71763 82.6201 7.72056 82.6201 7.72349C82.6201 7.72642 82.6201 7.72935 82.6201 7.73228C82.6201 7.73521 82.6201 7.73815 82.6201 7.74109C82.6201 7.74402 82.6201 7.74696 82.6201 7.7499C82.6201 7.75284 82.6201 7.75579 82.6201 7.75873C82.6201 7.76168 82.6201 7.76462 82.6201 7.76757C82.6201 7.77051 82.6201 7.77347 82.6201 7.77642C82.6201 7.77937 82.6201 7.78233 82.6201 7.78529C82.6201 7.78824 82.6201 7.7912 82.6201 7.79416C82.6201 7.79712 82.6201 7.80008 82.6201 7.80304C82.6201 7.80601 82.6201 7.80897 82.6201 7.81194C82.6201 7.81491 82.6201 7.81787 82.6201 7.82085C82.6201 7.82381 82.6201 7.82679 82.6201 7.82976C82.6201 7.83274 82.6201 7.83571 82.6201 7.83869C82.6201 7.84166 82.6201 7.84465 82.6201 7.84763C82.6201 7.85061 82.6201 7.85359 82.6201 7.85657C82.6201 7.85956 82.6201 7.86255 82.6201 7.86553C82.6201 7.86852 82.6201 7.87151 82.6201 7.8745C82.6201 7.87749 82.6201 7.88049 82.6201 7.88348C82.6201 7.88647 82.6201 7.88947 82.6201 7.89246C82.6201 7.89546 82.6201 7.89847 82.6201 7.90147C82.6201 7.90447 82.6201 7.90747 82.6201 7.91047C82.6201 7.91347 82.6201 7.91648 82.6201 7.91949C82.6201 7.92249 82.6201 7.9255 82.6201 7.92851C82.6201 7.93152 82.6201 7.93453 82.6201 7.93755C82.6201 7.94056 82.6201 7.94358 82.6201 7.94659C82.6201 7.9496 82.6201 7.95262 82.6201 7.95564C82.6201 7.95866 82.6201 7.96168 82.6201 7.9647C82.6201 7.96772 82.6201 7.97075 82.6201 7.97377C82.6201 7.9768 82.6201 7.97982 82.6201 7.98285C82.6201 7.98588 82.6201 7.9889 82.6201 7.99193C82.6201 7.99497 82.6201 7.99799 82.6201 8.00103C82.6201 8.00406 82.6201 8.00709 82.6201 8.01013C82.6201 8.01316 82.6201 8.0162 82.6201 8.01923C82.6201 8.02228 82.6201 8.02531 82.6201 8.02836C82.6201 8.03139 82.6201 8.03444 82.6201 8.03748C82.6201 8.04053 82.6201 8.04357 82.6201 8.04662C82.6201 8.04966 82.6201 8.05271 82.6201 8.05575C82.6201 8.0588 82.6201 8.06185 82.6201 8.0649C82.6201 8.06795 82.6201 8.071 82.6201 8.07405C82.6201 8.0771 82.6201 8.08016 82.6201 8.08322C82.6201 8.08627 82.6201 8.08932 82.6201 8.09239C82.6201 8.09544 82.6201 8.0985 82.6201 8.10155C82.6201 8.10462 82.6201 8.10768 82.6201 8.11074C82.6201 8.1138 82.6201 8.11686 82.6201 8.11993C82.6201 8.12299 82.6201 8.12606 82.6201 8.12912C82.6201 8.13219 82.6201 8.13525 82.6201 8.13832C82.6201 8.14139 82.6201 8.14445 82.6201 8.14752C82.6201 8.15059 82.6201 8.15366 82.6201 8.15674C82.6201 8.15981 82.6201 8.16289 82.6201 8.16596C82.6201 8.16903 82.6201 8.1721 82.6201 8.17518C82.6201 8.17825 82.6201 8.18133 82.6201 8.1844C82.6201 8.18748 82.6201 8.19056 82.6201 8.19364C82.6201 8.19672 82.6201 8.1998 82.6201 8.20288C82.6201 8.20596 82.6201 8.20904 82.6201 8.21212C82.6201 8.2152 82.6201 8.21829 82.6201 8.22137C82.6201 8.22446 82.6201 8.22755 82.6201 8.23062C82.6201 8.23371 82.6201 8.2368 82.6201 8.23989C82.6201 8.24298 82.6201 8.24606 82.6201 8.24915C82.6201 8.25224 82.6201 8.25533 82.6201 8.25841C82.6201 8.26151 82.6201 8.2646 82.6201 8.26769C82.6201 8.27078 82.6201 8.27387 82.6201 8.27697C82.6201 8.28006 82.6201 8.28315 82.6201 8.28625C82.6201 8.28934 82.6201 8.29243 82.6201 8.29553C82.6201 8.29862 82.6201 8.30172 82.6201 8.30482C82.6201 8.30791 82.6201 8.31101 82.6201 8.31411C82.6201 8.31721 82.6201 8.32031 82.6201 8.32341C82.6201 8.3265 82.6201 8.32961 82.6201 8.3327C82.6201 8.33581 82.6201 8.3389 82.6201 8.34201C82.6201 8.34511 82.6201 8.34821 82.6201 8.35131C82.6201 8.35441 82.6201 8.35752 82.6201 8.36061C82.6201 8.36372 82.6201 8.36682 82.6201 8.36993C82.6201 8.37303 82.6201 8.37614 82.6201 8.37924C82.6201 8.38235 82.6201 8.38546 82.6201 8.38856C82.6201 8.39167 82.6201 8.39477 82.6201 8.39788C82.6201 8.40098 82.6201 8.40409 82.6201 8.4072C82.6201 8.4103 82.6201 8.41341 82.6201 8.41652C82.6201 8.41963 82.6201 8.42273 82.6201 8.42585C82.6201 8.42895 82.6201 8.43207 82.6201 8.43517C82.6201 8.43828 82.6201 8.44139 82.6201 8.4445C82.6201 8.44761 82.6201 8.45072 82.6201 8.45383C82.6201 8.45694 82.6201 8.46006 82.6201 8.46316C82.6201 8.46627 82.6201 8.46939 82.6201 8.47249C82.6201 8.47561 82.6201 8.47872 82.6201 8.48183C82.6201 8.48494 82.6201 8.48805 82.6201 8.49117C82.6201 8.49428 82.6201 8.49739 82.6201 8.50051C82.6201 8.50361 82.6201 8.50673 82.6201 8.50984C82.6201 8.51295 82.6201 8.51607 82.6201 8.51918C82.6201 8.5223 82.6201 8.52541 82.6201 8.52852C82.6201 8.53163 82.6201 8.53474 82.6201 8.53786C82.6201 8.54097 82.6201 8.54408 82.6201 8.5472C82.6201 8.55031 82.6201 8.55343 82.6201 8.55654C82.6201 8.55965 82.6201 8.56277 82.6201 8.56588C82.6201 8.56899 82.6201 8.57211 82.6201 8.57522C82.6201 8.57834 82.6201 8.58145 82.6201 8.58456C82.6201 8.58768 82.6201 8.59079 82.6201 8.5939C82.6201 8.59701 82.6201 8.60012 82.6201 8.60324C82.6201 8.60635 82.6201 8.60946 82.6201 8.61258C82.6201 8.61569 82.6201 8.61881 82.6201 8.62192C82.6201 8.62502 82.6201 8.62814 82.6201 8.63125C82.6201 8.63437 82.6201 8.63748 82.6201 8.64058C82.6201 8.6437 82.6201 8.64681 82.6201 8.64993C82.6201 8.65304 82.6201 8.65615 82.6201 8.65926C82.6201 8.66237 82.6201 8.66548 82.6201 8.66859C82.6201 8.67171 82.6201 8.67479 82.6201 8.67792C82.6201 8.68104 82.6201 8.68416 82.6201 8.68728C82.6201 8.69032 82.6201 8.69344 82.6201 8.69656C82.6201 8.69969 82.6201 8.70281 82.6201 8.70593C82.6201 8.70905 82.6201 8.71209 82.6201 8.71521C82.6201 8.71833 82.6201 8.72146 82.6201 8.72458C82.6201 8.72761 82.6201 8.73074 82.6201 8.73386C82.6201 8.73698 82.6201 8.7401 82.6201 8.74323C82.6201 8.74626 82.6201 8.74939 82.6201 8.75251C82.6201 8.75563 82.6201 8.75867 82.6201 8.76179C82.6201 8.76491 82.6201 8.76803 82.6201 8.77116C82.6201 8.77419 82.6201 8.77731 82.6201 8.78044C82.6201 8.78356 82.6201 8.78659 82.6201 8.78972C82.6201 8.79284 82.6201 8.79596 82.6201 8.799C82.6201 8.80212 82.6201 8.80524 82.6201 8.80836C82.6201 8.8114 82.6201 8.81452 82.6201 8.81765C82.6201 8.82068 82.6201 8.8238 82.6201 8.82693C82.6201 8.82996 82.6201 8.83308 82.6201 8.83621C82.6201 8.83933 82.6201 8.84236 82.6201 8.84549C82.6201 8.84861 82.6201 8.85165 82.6201 8.85477C82.6201 8.8578 82.6201 8.86093 82.6201 8.86405C82.6201 8.86708 82.6201 8.87021 82.6201 8.87333C82.6201 8.87636 82.6201 8.87949 82.6201 8.88252C82.6201 8.88565 82.6201 8.88877 82.6201 8.8918C82.6201 8.89493 82.6201 8.89796 82.6201 8.90108C82.6201 8.90412 82.6201 8.90724 82.6201 8.91036C82.6201 8.9134 82.6201 8.91652 82.6201 8.91956C82.6201 8.92268 82.6201 8.92572 82.6201 8.92884C82.6201 8.93187 82.6201 8.935 82.6201 8.93803C82.6201 8.94116 82.6201 8.94419 82.6201 8.94731C82.6201 8.95035 82.6201 8.95347 82.6201 8.95651C82.6201 8.95954 82.6201 8.96267 82.6201 8.9657C82.6201 8.96882 82.6201 8.97186 82.6201 8.97498C82.6201 8.97802 82.6201 8.98105 82.6201 8.98418C82.6201 8.98721 82.6201 8.99025 82.6201 8.99337C82.6201 8.99641 82.6201 8.99944 82.6201 9.00256C82.6201 9.0056 82.6201 9.00864 82.6201 9.01176C82.6201 9.01479 82.6201 9.01783 82.6201 9.02095C82.6201 9.02399 82.6201 9.02702 82.6201 9.03006C82.6201 9.03318 82.6201 9.03622 82.6201 9.03925C82.6201 9.04229 82.6201 9.04541 82.6201 9.04845C82.6201 9.05148 82.6201 9.05452 82.6201 9.05755C82.6201 9.06068 82.6201 9.06371 82.6201 9.06675C82.6201 9.06978 82.6201 9.07282 82.6201 9.07585C82.6201 9.07889 82.6201 9.08201 82.6201 9.08505C82.6201 9.08808 82.6201 9.09112 82.6201 9.09416C82.6201 9.09719 82.6201 9.10023 82.6201 9.10326C82.6201 9.1063 82.6201 9.10933 82.6201 9.11237C82.6201 9.11541 82.6201 9.11844 82.6201 9.12148C82.6201 9.12451 82.6201 9.12755 82.6201 9.13058C82.6201 9.13362 82.6201 9.13666 82.6201 9.13969C82.6201 9.14273 82.6201 9.14568 82.6201 9.14871C82.6201 9.15175 82.6201 9.15478 82.6201 9.15782C82.6201 9.16085 82.6201 9.16389 82.6201 9.16684C82.6201 9.16987 82.6201 9.17291 82.6201 9.17595C82.6201 9.17898 82.6201 9.18193 82.6201 9.18497C82.6201 9.188 82.6201 9.19104 82.6201 9.19399C82.6201 9.19702 82.6201 9.20006 82.6201 9.20301C82.6201 9.20604 82.6201 9.20908 82.6201 9.21203C82.6201 9.21506 82.6201 9.2181 82.6201 9.22105C82.6201 9.22408 82.6201 9.22712 82.6201 9.23007C82.6201 9.2331 82.6201 9.23605 82.6201 9.23909C82.6201 9.24204 82.6201 9.24507 82.6201 9.24802C82.6201 9.25106 82.6201 9.25401 82.6201 9.25704C82.6201 9.25999 82.6201 9.26303 82.6201 9.26598C82.6201 9.26893 82.6201 9.27196 82.6201 9.27491C82.6201 9.27795 82.6201 9.28089 82.6201 9.28384C82.6201 9.28688 82.6201 9.28983 82.6201 9.29278C82.6201 9.29581 82.6201 9.29876 82.6201 9.30171C82.6201 9.30466 82.6201 9.3077 82.6201 9.31065C82.6201 9.31359 82.6201 9.31654 82.6201 9.31958C82.6201 9.32253 82.6201 9.32548 82.6201 9.32843C82.6201 9.33137 82.6201 9.33432 82.6201 9.33727C82.6201 9.34022 82.6201 9.34326 82.6201 9.34621C82.6201 9.34916 82.6201 9.3521 82.6201 9.35505C82.6201 9.358 82.6201 9.36095 82.6201 9.3639C82.6201 9.36685 82.6201 9.3698 82.6201 9.37266C82.6201 9.37561 82.6201 9.37856 82.6201 9.38151C82.6201 9.38446 82.6201 9.38741 82.6201 9.39035C82.6201 9.3933 82.6201 9.39617 82.6201 9.39911C82.6201 9.40206 82.6201 9.40501 82.6201 9.40788C82.6201 9.41082 82.6201 9.41377 82.6201 9.41672C82.6201 9.41958 82.6201 9.42253 82.6201 9.42548C82.6201 9.42834 82.6201 9.43129 82.6201 9.43415C82.6201 9.4371 82.6201 9.44005 82.6201 9.44292C82.6201 9.44586 82.6201 9.44873 82.6201 9.45168C82.6201 9.45454 82.6201 9.45749 82.6201 9.46035C82.6201 9.4633 82.6201 9.46616 82.6201 9.46902C82.6201 9.47197 82.6201 9.47483 82.6201 9.47778C82.6201 9.48065 82.6201 9.48351 82.6201 9.48646C82.6201 9.48932 82.6201 9.49218 82.6201 9.49504C82.6201 9.49799 82.6201 9.50085 82.6201 9.50372C82.6201 9.50658 82.6201 9.50944 82.6201 9.51239C82.6201 9.51525 82.6201 9.51811 82.6201 9.52098C82.6201 9.52384 82.6201 9.5267 82.6201 9.52956C82.6201 9.53243 82.6201 9.53529 82.6201 9.53815C82.6201 9.54101 82.6201 9.54388 82.6201 9.54674C82.6201 9.5496 82.6201 9.55246 82.6201 9.55532C82.6201 9.55819 82.6201 9.56096 82.6201 9.56382C82.6201 9.56669 82.6201 9.56955 82.6201 9.57241C82.6201 9.57519 82.6201 9.57805 82.6201 9.58091C82.6201 9.58377 82.6201 9.58655 82.6201 9.58941C82.6201 9.59219 82.6201 9.59505 82.6201 9.59791C82.6201 9.60069 82.6201 9.60355 82.6201 9.60632C82.6201 9.60919 82.6201 9.61196 82.6201 9.61482C82.6201 9.6176 82.6201 9.62046 82.6201 9.62324C82.6201 9.6261 82.6201 9.62887 82.6201 9.63165C82.6201 9.63451 82.6201 9.63729 82.6201 9.64006C82.6201 9.64293 82.6201 9.6457 82.6201 9.64848C82.6201 9.65125 82.6201 9.65411 82.6201 9.65689C82.6201 9.65967 82.6201 9.66244 82.6201 9.66522C82.6201 9.66799 82.6201 9.67077 82.6201 9.67354C82.6201 9.67632 82.6201 9.67909 82.6201 9.68187C82.6201 9.68465 82.6201 9.68742 82.6201 9.6902C82.6201 9.69297 82.6201 9.69575 82.6201 9.69852C82.6201 9.7013 82.6201 9.70407 82.6201 9.70676C82.6201 9.70954 82.6201 9.71231 82.6201 9.71509C82.6201 9.71778 82.6201 9.72055 82.6201 9.72333C82.6201 9.7261 82.6201 9.72879 82.6201 9.73157C82.6201 9.73426 82.6201 9.73703 82.6201 9.73972C82.6201 9.7425 82.6201 9.74519 82.6201 9.74796C82.6201 9.75065 82.6201 9.75343 82.6201 9.75611C82.6201 9.75889 82.6201 9.76158 82.6201 9.76427C82.6201 9.76704 82.6201 9.76973 82.6201 9.77242H82.8673ZM82.1133 9.77329C82.0163 9.84988 82.0163 9.84996 82.0164 9.84996C82.0164 9.85005 82.0164 9.85005 82.0165 9.85013C82.0165 9.85013 82.0166 9.85022 82.0166 9.85031C82.0167 9.85048 82.0169 9.85074 82.0171 9.85092C82.0174 9.85135 82.0179 9.85187 82.0184 9.85256C82.0194 9.85378 82.0208 9.85543 82.0225 9.85742C82.0258 9.86132 82.0304 9.86661 82.0361 9.87295C82.0475 9.88544 82.0639 9.90244 82.0846 9.92108C82.1252 9.95777 82.1861 10.0046 82.2624 10.0368C82.3397 10.0693 82.4367 10.0881 82.5428 10.0611C82.649 10.034 82.7496 9.9648 82.8407 9.84892L82.6465 9.69601C82.5803 9.78005 82.5232 9.81093 82.4817 9.82151C82.4402 9.83209 82.3992 9.82611 82.3583 9.80894C82.3164 9.79124 82.2788 9.76331 82.2503 9.73764C82.2365 9.72515 82.2258 9.71405 82.2187 9.70633C82.2153 9.70251 82.2128 9.69956 82.2113 9.69783C82.2106 9.69705 82.2101 9.69644 82.2099 9.69627C82.2098 9.69609 82.2098 9.69609 82.2099 9.69618C82.2099 9.69618 82.2099 9.69627 82.21 9.69635C82.21 9.69635 82.2101 9.69635 82.2101 9.69644C82.2102 9.69644 82.2102 9.69653 82.2102 9.69653C82.2102 9.69653 82.2102 9.69661 82.1133 9.77329ZM82.429 11.8707L82.7439 11.8699L82.7433 11.6227L82.4284 11.6235L82.429 11.8707ZM82.8673 9.77242V6.21736H82.6201V9.77242H82.8673Z" fill="url(#paint7_linear_2023_786)"/>
</g>
<path fill-rule="evenodd" clip-rule="evenodd" d="M16.0792 31.0299C24.5831 31.0299 31.4769 24.1361 31.4769 15.6322C31.4769 7.1282 24.5831 0.234375 16.0792 0.234375C7.57521 0.234375 0.681396 7.1282 0.681396 15.6322C0.681396 24.1361 7.57521 31.0299 16.0792 31.0299ZM17.1695 9.04365C17.2173 8.91511 19.7481 6.37151 19.894 6.30524C20.0267 6.24504 20.215 6.23966 20.3207 6.29308C20.4328 6.34967 25.1416 11.051 25.2043 11.1689C25.2699 11.2923 25.2704 11.456 25.2055 11.6049C25.1406 11.7542 22.5996 14.2858 22.4644 14.336C22.3194 14.3899 22.1651 14.3828 22.0316 14.316C21.8817 14.241 17.3732 9.75037 17.2361 9.53952C17.1259 9.37004 17.1053 9.21643 17.1695 9.04365ZM11.1885 13.066C11.2523 13.0019 12.3028 12.4554 13.8785 11.6663C15.3004 10.9542 16.4719 10.3707 16.4819 10.3697C16.492 10.3686 17.5454 11.4126 18.823 12.6896L21.1458 15.0116L19.8456 17.6107C19.0505 19.2001 18.5046 20.2505 18.4403 20.3145C18.3581 20.3963 17.1545 20.8911 12.9402 22.5756L7.54532 24.7321L7.55283 24.7245L6.95564 24.9664L10.0145 21.8038L14.3834 20.092C14.5227 20.2894 14.7527 20.4183 15.0126 20.4183C15.4379 20.4183 15.7826 20.0736 15.7826 19.6484C15.7826 19.2232 15.4379 18.8785 15.0126 18.8785C14.6438 18.8785 14.3356 19.1378 14.2604 19.4841L11.016 20.7553L12.9909 18.686L12.9936 18.6832L14.7665 16.7774L16.9369 16.7611C17.0585 17.0262 17.3263 17.2103 17.637 17.2103C18.0622 17.2103 18.4069 16.8656 18.4069 16.4404C18.4069 16.0152 18.0622 15.6705 17.637 15.6705C17.3145 15.6705 17.0382 15.8689 16.9236 16.1503L14.6302 16.1673L14.4985 16.1683L14.4089 16.2648L13.0812 17.692L13.1027 14.7962C13.2883 14.6556 13.4083 14.4329 13.4083 14.1821C13.4083 13.7569 13.0636 13.4122 12.6383 13.4122C12.2132 13.4122 11.8685 13.7569 11.8685 14.1821C11.8685 14.5568 12.1361 14.8689 12.4907 14.9379L12.4653 18.3518L9.62162 21.3313L9.62093 21.3321L6.57128 24.485L6.79631 23.9285L6.76886 23.9559L8.92627 18.5635C10.6115 14.3511 11.1066 13.148 11.1885 13.066Z" fill="url(#paint8_linear_2023_786)"/>
<defs>
<linearGradient id="paint0_linear_2023_786" x1="83.4665" y1="6.07917" x2="36.2651" y2="31.4514" gradientUnits="userSpaceOnUse">
<stop stop-color="#353BD7"/>
<stop offset="1" stop-color="#ED4751"/>
</linearGradient>
<linearGradient id="paint1_linear_2023_786" x1="83.4666" y1="6.08008" x2="36.2652" y2="31.4524" gradientUnits="userSpaceOnUse">
<stop stop-color="#353BD7"/>
<stop offset="1" stop-color="#ED4751"/>
</linearGradient>
<linearGradient id="paint2_linear_2023_786" x1="83.4665" y1="6.07888" x2="36.265" y2="31.4512" gradientUnits="userSpaceOnUse">
<stop stop-color="#353BD7"/>
<stop offset="1" stop-color="#ED4751"/>
</linearGradient>
<linearGradient id="paint3_linear_2023_786" x1="83.4664" y1="6.07887" x2="36.265" y2="31.4511" gradientUnits="userSpaceOnUse">
<stop stop-color="#353BD7"/>
<stop offset="1" stop-color="#ED4751"/>
</linearGradient>
<linearGradient id="paint4_linear_2023_786" x1="83.4664" y1="6.07998" x2="36.2651" y2="31.4522" gradientUnits="userSpaceOnUse">
<stop stop-color="#353BD7"/>
<stop offset="1" stop-color="#ED4751"/>
</linearGradient>
<linearGradient id="paint5_linear_2023_786" x1="83.4663" y1="6.07924" x2="36.265" y2="31.4515" gradientUnits="userSpaceOnUse">
<stop stop-color="#353BD7"/>
<stop offset="1" stop-color="#ED4751"/>
</linearGradient>
<linearGradient id="paint6_linear_2023_786" x1="84.3182" y1="6.21875" x2="79.6813" y2="7.06857" gradientUnits="userSpaceOnUse">
<stop stop-color="#353BD7"/>
<stop offset="1" stop-color="#ED4751"/>
</linearGradient>
<linearGradient id="paint7_linear_2023_786" x1="84.3182" y1="6.21736" x2="79.6814" y2="7.06719" gradientUnits="userSpaceOnUse">
<stop stop-color="#353BD7"/>
<stop offset="1" stop-color="#ED4751"/>
</linearGradient>
<linearGradient id="paint8_linear_2023_786" x1="31.4769" y1="0.234373" x2="-4.95697" y2="10.0051" gradientUnits="userSpaceOnUse">
<stop stop-color="#353BD7"/>
<stop offset="1" stop-color="#ED4751"/>
</linearGradient>
</defs>
</svg>
