<svg width="14" height="13" viewBox="0 0 14 13" fill="none" xmlns="http://www.w3.org/2000/svg">
<path d="M8.02953 5.46966C7.48346 4.92382 6.74297 4.61719 5.97087 4.61719C5.19877 4.61719 4.45827 4.92382 3.9122 5.46966L1.85287 7.52833C1.30678 8.07441 1 8.81506 1 9.58733C1 10.3596 1.30678 11.1003 1.85287 11.6463C2.39895 12.1924 3.13959 12.4992 3.91187 12.4992C4.68414 12.4992 5.42479 12.1924 5.97087 11.6463L7.0002 10.617" stroke="black" stroke-linecap="round" stroke-linejoin="round"/>
<path d="M5.9707 7.52953C6.51677 8.07538 7.25727 8.38201 8.02937 8.38201C8.80147 8.38201 9.54197 8.07538 10.088 7.52953L12.1474 5.47087C12.6935 4.92479 13.0002 4.18414 13.0002 3.41187C13.0002 2.63959 12.6935 1.89895 12.1474 1.35287C11.6013 0.806785 10.8606 0.5 10.0884 0.5C9.31609 0.5 8.57545 0.806785 8.02937 1.35287L7.00004 2.3822" stroke="black" stroke-linecap="round" stroke-linejoin="round"/>
</svg>
