<svg id="etG28746Ygb1" xmlns="http://www.w3.org/2000/svg" xmlns:xlink="http://www.w3.org/1999/xlink" viewBox="0 0 43.176 43.176" shape-rendering="geometricPrecision" text-rendering="geometricPrecision">
    <style>
        #etG28746Ygb6_to {
            animation: etG28746Ygb6_to__to 3000ms linear infinite normal forwards
        }
        
        @keyframes etG28746Ygb6_to__to {
            0% {
                transform: translate(0px, 43.176px)
            }
            100% {
                transform: translate(0px, 0px)
            }
        }
        
        #etG28746Ygb10_to {
            animation: etG28746Ygb10_to__to 3000ms linear infinite normal forwards
        }
        
        @keyframes etG28746Ygb10_to__to {
            0% {
                transform: translate(0px, 43.176px)
            }
            100% {
                transform: translate(0px, 0px)
            }
        }
    </style>
    <g transform="translate(-282.874-1237.63)">
        <path d="M43.1,21.83c0,8.630597-5.199053,16.411333-13.172763,19.713933s-17.151721,1.476644-23.254189-4.626396-7.927563-15.281222-4.624215-23.254622s11.08457-13.171724,19.715167-13.170915C33.547871,0.493104,43.1,10.046129,43.1,21.83Z" transform="translate(282.574 1237.51)" fill="rgba(0,0,0,0)" stroke="#0051BA" stroke-width="0.5" />
        <path d="M36.172,15.985l.007.008c.055491.133286.052954.283662-.007.415v0l-.03.038c-.028.034-.069.08-.122.138-.1.115-.25.27-.425.451-.348.362-.807.826-1.27,1.287s-.927.916-1.288,1.261c-.181.173-.334.316-.447.418-.057.051-.1.091-.135.118l-.032.025c-.13752.048843-.28873.041659-.421-.02l-.01-.008-.065-.056c-.056-.05-.133-.122-.229-.213-.192-.182-.456-.437-.769-.741-.625-.609-1.44-1.414-2.255-2.226s-1.629-1.629-2.251-2.262c-.311-.316-.574-.586-.765-.786-.1-.1-.172-.181-.227-.242l-.065-.073c-.054608-.089881-.097617-.186315-.128-.287-.00977-.079774-.000165-.160727.028-.236l.024-.031c.027-.033.363-.4.535-.58.344-.36.8-.824,1.259-1.287s.924-.921,1.285-1.27c.181-.175.335-.321.45-.426.058-.053.1-.094.138-.122L29,9.248v0c.072278-.028883.14918-.044467.227-.046.059666-.003434.119432.004716.176.024h.005l.064.058c.056.051.133.125.231.219.195.187.465.451.786.767.642.631,1.484,1.467,2.325,2.306s1.678,1.681,2.312,2.322c.317.321.582.592.77.787.094.1.169.176.221.232ZM29.391,9.213v0v0ZM19.081,31.694L11.53,34.712v-.005l-.474.192l3.987-4.122l5.935-2.325c.330635.532397.998339.746794,1.577112.506405s.898109-.864744.754268-1.474724-.708483-1.025882-1.33368-.982358-1.126765.53365-1.1847,1.157677l-4.425,1.734l2.846-2.982v0v0v0l2.493-2.68l2.829-.021c.20902.591632.816359.944265,1.433792.832488s1.062599-.654951,1.050938-1.282312-.476705-1.153616-1.097865-1.242371-1.214976.286204-1.401865.885195l-2.994.022h-.174l-.059.063-.06.064v0l-1.9,2.048.029-3.868c.546153-.305942.790599-.962242.577656-1.550917s-.820689-.93671-1.436179-.822448-1.057826.657236-1.045295,1.283117.476248,1.150715,1.095818,1.240248l-.034,4.59-3.999,4.182v0v0l-3.947,4.081.156-.386-.018-.012l3-7.51c1.181-2.953,1.945-4.85,2.428-6.024.242-.587.412-.991.529-1.255.059-.132.1-.227.135-.292.016-.032.028-.055.037-.069v0l.055-.035q.075-.045.213-.121c.183-.1.443-.239.77-.409.654-.34,1.574-.808,2.678-1.361c1-.5,1.906-.953,2.567-1.282l.786-.391.171-.084.163.159c.168.165.41.4.707.7.595.589,1.411,1.4,2.307,2.3l3.155,3.153-1.755,3.514.179.09-.179-.09c-.557,1.114-1.027,2.038-1.368,2.695-.171.329-.309.589-.41.773q-.076.138-.121.213c-.015.025-.035.056-.036.056s-.037.021-.069.037c-.064.032-.159.077-.292.135-.264.117-.668.287-1.256.529-1.172.482-3.07,1.245-6.024,2.426Z" transform="translate(280.94 1237.29)" fill="none" stroke="#0051BA" stroke-width="0.5" />
    </g>
    <g clip-path="url(#etG28746Ygb7)">
        <g id="etG28746Ygb6_to" transform="translate(0,43.176)">
            <rect width="43.176" height="43.176" rx="0" ry="0" transform="translate(0,0)" fill="#0051BA" stroke-width="0.5" />
        </g>
        <clipPath id="etG28746Ygb7">
            <path d="M43.603431,22.081737c0,8.732418-5.260383,16.604948-13.328155,19.946511s-17.35405,1.494065-23.528505-4.680977-8.02108-15.461504-4.678764-23.528971s11.215328-13.327119,19.947735-13.3263c11.922879.001117,21.587689,9.666845,21.587689,21.589737Z" transform="translate(-.427432-.496001)" fill="rgba(0,0,0,0)" stroke="#0051BA" stroke-width="0.5" />
        </clipPath>
    </g>
    <g clip-path="url(#etG28746Ygb11)">
        <g id="etG28746Ygb10_to" transform="translate(0,43.176)">
            <rect width="43.176" height="43.176" rx="0" ry="0" transform="translate(0,0)" fill="#fff" stroke-width="0" />
        </g>
        <clipPath id="etG28746Ygb11">
            <path d="M36.172,15.985l.007.008c.055491.133286.052954.283662-.007.415v0l-.03.038c-.028.034-.069.08-.122.138-.1.115-.25.27-.425.451-.348.362-.807.826-1.27,1.287s-.927.916-1.288,1.261c-.181.173-.334.316-.447.418-.057.051-.1.091-.135.118l-.032.025c-.13752.048843-.28873.041659-.421-.02l-.01-.008-.065-.056c-.056-.05-.133-.122-.229-.213-.192-.182-.456-.437-.769-.741-.625-.609-1.44-1.414-2.255-2.226s-1.629-1.629-2.251-2.262c-.311-.316-.574-.586-.765-.786-.1-.1-.172-.181-.227-.242l-.065-.073c-.054608-.089881-.097617-.186315-.128-.287-.00977-.079774-.000165-.160727.028-.236l.024-.031c.027-.033.363-.4.535-.58.344-.36.8-.824,1.259-1.287s.924-.921,1.285-1.27c.181-.175.335-.321.45-.426.058-.053.1-.094.138-.122L29,9.248v0c.072278-.028883.14918-.044467.227-.046.059666-.003434.119432.004716.176.024h.005l.064.058c.056.051.133.125.231.219.195.187.465.451.786.767.642.631,1.484,1.467,2.325,2.306s1.678,1.681,2.312,2.322c.317.321.582.592.77.787.094.1.169.176.221.232ZM29.391,9.213v0v0ZM19.081,31.694L11.53,34.712v-.005l-.474.192l3.987-4.122l5.935-2.325c.330635.532397.998339.746794,1.577112.506405s.898109-.864744.754268-1.474724-.708483-1.025882-1.33368-.982358-1.126765.53365-1.1847,1.157677l-4.425,1.734l2.846-2.982v0v0v0l2.493-2.68l2.829-.021c.20902.591632.816359.944265,1.433792.832488s1.062599-.654951,1.050938-1.282312-.476705-1.153616-1.097865-1.242371-1.214976.286204-1.401865.885195l-2.994.022h-.174l-.059.063-.06.064v0l-1.9,2.048.029-3.868c.546153-.305942.790599-.962242.577656-1.550917s-.820689-.93671-1.436179-.822448-1.057826.657236-1.045295,1.283117.476248,1.150715,1.095818,1.240248l-.034,4.59-3.999,4.182v0v0l-3.947,4.081.156-.386-.018-.012l3-7.51c1.181-2.953,1.945-4.85,2.428-6.024.242-.587.412-.991.529-1.255.059-.132.1-.227.135-.292.016-.032.028-.055.037-.069v0l.055-.035q.075-.045.213-.121c.183-.1.443-.239.77-.409.654-.34,1.574-.808,2.678-1.361c1-.5,1.906-.953,2.567-1.282l.786-.391.171-.084.163.159c.168.165.41.4.707.7.595.589,1.411,1.4,2.307,2.3l3.155,3.153-1.755,3.514.179.09-.179-.09c-.557,1.114-1.027,2.038-1.368,2.695-.171.329-.309.589-.41.773q-.076.138-.121.213c-.015.025-.035.056-.036.056s-.037.021-.069.037c-.064.032-.159.077-.292.135-.264.117-.668.287-1.256.529-1.172.482-3.07,1.245-6.024,2.426Z" transform="translate(-1.80992-.464121)" fill="none" stroke="#0051BA" stroke-width="0.5" />
        </clipPath>
    </g>
</svg>