<svg width="73" height="74" viewBox="0 0 73 74" fill="none" xmlns="http://www.w3.org/2000/svg">
<rect x="0.710449" y="1.40234" width="71.6199" height="72.0959" rx="35.8099" stroke="white" stroke-dasharray="6 6"/>
<path d="M35.1247 27.9336H27.2408C26.6434 27.9336 26.0705 28.1709 25.648 28.5933C25.2256 29.0158 24.9883 29.5887 24.9883 30.1861V45.9539C24.9883 46.5513 25.2256 47.1243 25.648 47.5467C26.0705 47.9692 26.6434 48.2065 27.2408 48.2065H43.0086C43.606 48.2065 44.179 47.9692 44.6014 47.5467C45.0238 47.1243 45.2612 46.5513 45.2612 45.9539V38.07" stroke="white" stroke-width="2.2" stroke-linecap="round" stroke-linejoin="round"/>
<path d="M43.5719 26.2427C44.02 25.7947 44.6277 25.543 45.2614 25.543C45.895 25.543 46.5027 25.7947 46.9508 26.2427C47.3988 26.6908 47.6505 27.2985 47.6505 27.9322C47.6505 28.5658 47.3988 29.1735 46.9508 29.6216L36.2512 40.3211L31.7461 41.4474L32.8724 36.9423L43.5719 26.2427Z" stroke="white" stroke-width="2.2" stroke-linecap="round" stroke-linejoin="round"/>
</svg>
