<svg id="Notification_Info" data-name="Notification Info" xmlns="http://www.w3.org/2000/svg" width="40" height="40" viewBox="0 0 40 40">
  <defs>
    <style>
      #Notification_Info .cls-1 {
        fill: #c7deff;
      }

      #Notification_Info .cls-2 {
        fill: #fff;
      }

      #Notification_Info .cls-3 {
        fill: #6396d8;
      }
    </style>
  </defs>
  <circle id="Ellipse_2766" data-name="Ellipse 2766" class="cls-1" cx="20" cy="20" r="20"/>
  <circle id="Ellipse_2767" data-name="Ellipse 2767" class="cls-2" cx="13.171" cy="13.171" r="13.171" transform="translate(6.829 6.829)"/>
  <path id="Path_30617" data-name="Path 30617" class="cls-3" d="M14.252,0A14.252,14.252,0,1,0,28.5,14.252,14.253,14.253,0,0,0,14.252,0Zm2.179,22.034a2.172,2.172,0,0,1-4.345,0V12.568a2.172,2.172,0,0,1,4.345,0ZM14.252,8.617a2.386,2.386,0,1,1,2.387-2.386A2.387,2.387,0,0,1,14.252,8.617Z" transform="translate(5.853 5.854)"/>
</svg>
