<svg id="Notification_Warning_Medium" data-name="Notification Warning Medium" xmlns="http://www.w3.org/2000/svg" width="40" height="40" viewBox="0 0 40 40">
  <defs>
    <style>
      #Notification_Warning_Medium .cls-1 {
        fill: #fff0d1;
      }

      #Notification_Warning_Medium .cls-2 {
        fill: #fff;
      }

      #Notification_Warning_Medium .cls-3 {
        fill: #ffcc67;
      }
    </style>
  </defs>
  <circle id="Ellipse_2770" data-name="Ellipse 2770" class="cls-1" cx="20" cy="20" r="20"/>
  <circle id="Ellipse_2771" data-name="Ellipse 2771" class="cls-2" cx="13.171" cy="13.171" r="13.171" transform="translate(6.829 6.829)"/>
  <path id="Path_30619" data-name="Path 30619" class="cls-3" d="M14.267.039h-.025a14.242,14.242,0,0,0,0,28.484h.025a14.242,14.242,0,0,0,0-28.484Zm0,24.407h-.025a2.331,2.331,0,1,1,0-4.661h.025a2.331,2.331,0,1,1,0,4.661ZM17.61,6.682c-.152,2.326-1.216,9.244-1.216,9.244a2.12,2.12,0,0,1-2.122,2.112h-.036a2.121,2.121,0,0,1-2.122-2.112S11.051,9.008,10.9,6.682a3.233,3.233,0,0,1,3.337-3.327h.036A3.233,3.233,0,0,1,17.61,6.682Z" transform="translate(5.853 5.828)"/>
</svg>
