<svg id="Notification_Warning_High" data-name="Notification Warning High" xmlns="http://www.w3.org/2000/svg" width="40" height="37.694" viewBox="0 0 40 37.694">
  <defs>
    <style>
      #Notification_Warning_High .cls-1 {
        fill: #feeff1;
      }

      #Notification_Warning_High .cls-2 {
        fill: #f36273;
      }
    </style>
  </defs>
  <path id="Path_31920" data-name="Path 31920" class="cls-1" d="M39.169,43.6,25.039,17.627a5.86,5.86,0,0,0-10.078,0L.832,43.6A5.857,5.857,0,0,0,5.87,52.453H34.13A5.858,5.858,0,0,0,39.169,43.6Z" transform="translate(0 -14.759)"/>
  <path id="Path_31920-2" data-name="Path 31920" class="cls-2" d="M26.122,33.994,16.7,16.672a3.908,3.908,0,0,0-6.721,0L.555,33.994a3.906,3.906,0,0,0,3.36,5.9H22.761A3.906,3.906,0,0,0,26.122,33.994ZM13.338,36.771A1.563,1.563,0,1,1,14.9,35.208,1.565,1.565,0,0,1,13.338,36.771ZM14.9,30.518a1.563,1.563,0,0,1-3.126,0V22.7a1.563,1.563,0,0,1,3.126,0Z" transform="translate(6.379 -6.64)"/>
</svg>
