<svg width="24" height="24" viewBox="0 0 24 24" fill="none" xmlns="http://www.w3.org/2000/svg">
<path d="M8.83733 5.37293L9.2094 5.74486C9.2998 5.83526 9.44645 5.83526 9.53699 5.74486L11.5647 3.71717C11.6551 3.62677 11.6551 3.48011 11.5647 3.38958L11.1926 3.01751C11.1022 2.92711 10.9556 2.92711 10.865 3.01751L8.83733 5.04544C8.74693 5.13584 8.74693 5.28249 8.83733 5.3729V5.37293Z" fill="#0048AD"/>
<path d="M10.8961 1.0813C10.8152 1.00041 10.7092 0.959961 10.6027 0.959961C10.4965 0.959961 10.3902 1.00041 10.3093 1.0813L4.17418 7.21639C4.01225 7.37831 4.01225 7.64146 4.17418 7.80339L4.64653 8.27575C4.80845 8.43767 5.0716 8.43767 5.23354 8.27575L11.3686 2.14066C11.5305 1.97874 11.5305 1.71559 11.3686 1.55366L10.8961 1.0813Z" fill="#0048AD"/>
<path d="M18.2892 10.1157L17.9172 9.74358C17.8268 9.65318 17.6802 9.65318 17.5896 9.74358L15.5619 11.771C15.4715 11.8614 15.4715 12.0081 15.5619 12.0986L15.9339 12.4707C16.0243 12.5611 16.1709 12.5611 16.2615 12.4707L18.2892 10.443C18.3796 10.3526 18.3796 10.206 18.2892 10.1156V10.1157Z" fill="#0048AD"/>
<path d="M13.5033 17.1337C13.665 17.2953 13.9283 17.2956 14.0903 17.1337L20.2254 10.9986C20.3873 10.8367 20.3873 10.5735 20.2254 10.4116L19.7531 9.93921C19.6722 9.85832 19.5658 9.81787 19.4596 9.81787C19.3533 9.81787 19.2471 9.85832 19.1662 9.93921L13.0311 16.0746C12.953 16.1526 12.9102 16.2568 12.9102 16.3681C12.9102 16.4792 12.953 16.5834 13.0311 16.6615L13.5033 17.1337Z" fill="#0048AD"/>
<path d="M15.2209 2.0835C14.1512 2.0835 13.1458 2.4999 12.3896 3.25617L11.5527 4.09309L17.215 9.75537L18.0519 8.91846C18.8081 8.16229 19.2246 7.15689 19.2246 6.08721C19.2245 5.01781 18.808 4.01224 18.0519 3.25596C17.2958 2.50007 16.2902 2.08343 15.221 2.08356L15.2209 2.0835ZM17.6284 6.85161C16.7538 7.72617 15.331 7.72617 14.4566 6.85161C13.5821 5.97719 13.5821 4.55433 14.4567 3.67977C15.3311 2.80535 16.754 2.80535 17.6284 3.67977C18.5028 4.55433 18.5028 5.97719 17.6284 6.85161H17.6284Z" fill="#0048AD"/>
<path d="M13.8209 13.1487L16.7124 10.2572L11.0504 4.59521L8.15891 7.48674C8.07775 7.5679 8.0061 7.65709 7.94141 7.75057L13.5571 13.3662C13.6505 13.3017 13.7396 13.2302 13.8208 13.1487L13.8209 13.1487ZM13.4993 11.2114C13.3597 11.343 13.1283 11.3516 12.9924 11.2158L10.0917 8.31508C9.95432 8.17766 9.95298 7.95521 10.0885 7.81632L10.1189 7.78458C11.0872 6.81628 12.6385 6.79218 13.577 7.73047C14.5154 8.66891 14.491 10.2203 13.5229 11.1885L13.4993 11.2114Z" fill="#0048AD"/>
<path d="M11.1906 12.0926C11.2145 12.0839 11.2384 12.0792 11.2627 12.0765L9.23056 10.0444C9.22788 10.0687 9.22333 10.0926 9.21462 10.1165L8.49609 12.0839L9.22319 12.811L11.1906 12.0926Z" fill="#0048AD"/>
<path d="M12.4055 13.7069C12.5566 13.7121 12.7062 13.6971 12.8524 13.6669L11.6024 12.417C11.59 12.53 11.5165 12.6321 11.4024 12.6737L9.70508 13.2936L9.8982 13.4867C9.98767 13.5761 10.1067 13.6278 10.2334 13.6324L12.4055 13.7069Z" fill="#0048AD"/>
<path d="M7.60055 8.90126L7.67528 11.0736C7.6797 11.2003 7.73153 11.3193 7.82086 11.4087L8.01425 11.602L8.63407 9.90477C8.67572 9.79066 8.77791 9.71713 8.89081 9.70468L7.64072 8.45459C7.61059 8.60057 7.59559 8.75017 7.60054 8.90123L7.60055 8.90126Z" fill="#0048AD"/>
<path d="M10.8633 8.08247L11.7086 8.92768L12.6499 8.48385C12.827 8.40028 13.0383 8.47515 13.1223 8.65354C13.2059 8.83099 13.1299 9.0422 12.9526 9.12589L12.242 9.46098L13.2242 10.4432C13.7094 9.75159 13.662 8.81946 13.0753 8.23256C12.4862 7.64408 11.5497 7.59841 10.8633 8.08242L10.8633 8.08247Z" fill="#0048AD"/>
<path d="M14.9581 4.1816C14.3603 4.77934 14.3603 5.75164 14.958 6.34924C15.5557 6.94698 16.528 6.94698 17.1256 6.34924C17.7231 5.75178 17.7231 4.7792 17.1255 4.1816C16.5281 3.584 15.5558 3.584 14.9581 4.1816H14.9581ZM16.7877 6.03892C16.6465 6.16549 16.4321 6.15839 16.2998 6.02607C16.2952 6.02151 16.2908 6.01683 16.2864 6.01187C16.1554 5.86589 16.1677 5.64155 16.3135 5.51058C16.4981 5.34504 16.5376 5.01961 16.3985 4.81441C16.2885 4.65222 16.3307 4.43137 16.4929 4.32141C16.6551 4.21146 16.8755 4.25324 16.9859 4.41583C17.3222 4.91095 17.2331 5.63928 16.7877 6.03892L16.7877 6.03892Z" fill="#0048AD"/>
<path d="M6.59657 12.1452L4.42196 14.3198C4.26299 14.4788 4.26299 14.7369 4.42196 14.8959C4.50165 14.9754 4.60585 15.0153 4.71018 15.0153C4.81437 15.0153 4.9187 14.9756 4.99839 14.8959L7.17299 12.7211C7.33197 12.5622 7.33197 12.3041 7.17299 12.1451C7.01362 11.9861 6.75567 11.9861 6.59658 12.1452L6.59657 12.1452Z" fill="#0048AD"/>
<path d="M3.77148 18.1209C3.85104 18.2005 3.95537 18.2403 4.05943 18.2403C4.16363 18.2403 4.26795 18.2005 4.34764 18.1209L8.42353 14.045C8.5825 13.886 8.5825 13.6279 8.42353 13.4689C8.26442 13.3098 8.00634 13.3098 7.84712 13.4689L3.77157 17.5448C3.6126 17.7038 3.6126 17.9617 3.77157 18.1207L3.77148 18.1209Z" fill="#0048AD"/>
<path d="M7.75192 16.563C7.83148 16.6426 7.93581 16.6825 8.04013 16.6825C8.14433 16.6825 8.24866 16.6427 8.32835 16.563L9.78683 15.1045C9.9458 14.9456 9.9458 14.6875 9.78683 14.5285C9.62772 14.3694 9.36964 14.3694 9.21066 14.5285L7.75218 15.987C7.59307 16.1461 7.59307 16.4039 7.75191 16.563H7.75192Z" fill="#0048AD"/>
</svg>
