<svg width="30" height="34" viewBox="0 0 30 34" fill="none" xmlns="http://www.w3.org/2000/svg">
<path d="M15.4435 0.0177739C15.6146 0.0423753 15.7772 0.123812 15.8999 0.245972L19.2209 3.46397C19.5249 3.76456 19.5249 4.31623 19.2209 4.61687L15.9378 7.84761C15.711 8.07157 15.3457 8.14198 15.0519 8.01813C14.7581 7.89427 14.5536 7.5835 14.5559 7.26483C11.2748 7.1995 9.06828 7.63243 7.05183 8.75985C5.06195 9.90225 3.45436 11.6238 1.36037 13.5744C1.09739 13.8187 0.664458 13.8555 0.36384 13.6593C0.0632509 13.4627 -0.076443 13.0519 0.0420394 12.7131C0.834649 10.523 1.54357 7.82817 3.6545 5.52946C5.67153 3.33283 8.99167 1.61014 14.5305 0.930386C14.58 0.30036 14.9035 -0.0906896 15.443 0.0181141L15.4435 0.0177739ZM27.7392 2.85572V19.9849C27.1713 20.5227 26.6363 21.0354 26.1166 21.5178V4.47699H19.7787C19.9492 4.03812 19.8347 3.50311 19.4999 3.172L19.1704 2.85529H27.7393L27.7392 2.85572ZM24.4943 6.0992V22.9374C23.9652 23.3624 23.4322 23.7458 22.8717 24.0778V7.72105H16.6354L18.2831 6.09934H24.4944L24.4943 6.0992ZM6.64701 9.49477V28.8036H10.2216C10.0565 29.2394 10.1704 29.7671 10.5004 30.096L10.8426 30.4254H5.02445V10.7242C5.55918 10.2686 6.0928 9.86026 6.64703 9.49519L6.64701 9.49477ZM20.4382 10.1536V11.7754H9.0808V10.1536H20.4382ZM20.4382 15.0188V16.6405H9.0808V15.0188H20.4382ZM29.3242 19.4785C29.7939 19.554 30.1199 20.1085 29.9579 20.5553C29.1653 22.7454 28.4564 25.4402 26.3455 27.739C24.3284 29.9356 21.0083 31.6583 15.4694 32.338V32.452C15.4624 32.7636 15.2582 33.0619 14.9703 33.1818C14.6825 33.3017 14.3267 33.2364 14.1005 33.0221L10.7796 29.8041C10.4756 29.5035 10.4756 28.9518 10.7796 28.6512L14.0626 25.4332C14.288 25.2106 14.65 25.1396 14.9426 25.2604C15.2353 25.3811 15.4417 25.6868 15.4443 26.0036V26.016C18.8481 26.1548 21.0995 25.5698 22.9483 24.5082C24.9382 23.3658 26.5458 21.6443 28.6398 19.6937C28.8739 19.4844 29.1304 19.4329 29.3244 19.4785L29.3242 19.4785ZM20.4382 19.884V21.5057H9.0808V19.884H20.4382ZM20.4382 24.7492V25.1292C19.1657 25.4943 17.667 25.6736 15.7862 25.6232C15.6553 25.2355 15.3095 24.9208 14.9116 24.825C14.5137 24.7294 14.0766 24.8561 13.7833 25.1417L12.5283 26.3707H9.08044V24.749L20.4382 24.7492Z" fill="#0048AD"/>
</svg>
