<svg width="8" height="5" viewBox="0 0 8 5" fill="none" xmlns="http://www.w3.org/2000/svg">
    <path d="M0.780273 0.820312L4.04963 4.68338L7.31899 0.820312H0.780273Z" fill="#212121"/>
    <path d="M0.581446 1.02869C0.950685 1.46331 1.31713 1.89791 1.68635 2.33243C2.27433 3.02551 2.85952 3.71859 3.44748 4.41167C3.5838 4.57077 3.71735 4.72978 3.85367 4.89176C3.94739 5.00252 4.16326 5.00252 4.2542 4.89176C4.62344 4.45714 4.98989 4.02255 5.3591 3.58803C5.94709 2.89495 6.53228 2.20187 7.12023 1.50879C7.25655 1.34968 7.39011 1.19068 7.52642 1.02869C7.67978 0.846902 7.58606 0.542969 7.32472 0.542969H5.11479H1.59258H0.785858C0.419409 0.542969 0.419409 1.11102 0.785858 1.11102H2.99579H6.518H7.32472C7.25656 0.949139 7.19118 0.78715 7.12302 0.625292C6.75378 1.05991 6.38733 1.49451 6.01812 1.92903C5.43014 2.62211 4.84494 3.31519 4.25699 4.00827C4.12067 4.16737 3.98711 4.32638 3.8508 4.48836H4.25133C3.88209 4.05374 3.51564 3.61915 3.14643 3.18463C2.55845 2.49155 1.97326 1.79847 1.3853 1.10539C1.24898 0.946283 1.11543 0.787277 0.97911 0.625292C0.879644 0.508787 0.680807 0.523055 0.578575 0.625292C0.465041 0.741798 0.482082 0.912284 0.581448 1.02869H0.581446Z" fill="#212121"/>
    </svg>
    