<svg width="8" height="5" viewBox="0 0 8 5" fill="none" xmlns="http://www.w3.org/2000/svg">
    <path d="M0.98157 4.84954C1.35081 4.41492 1.71726 3.98032 2.08647 3.5458C2.67445 2.85272 3.25964 2.15964 3.8476 1.46656C3.98392 1.30746 4.11747 1.14845 4.25379 0.98647H3.85326C4.2225 1.42109 4.58894 1.85569 4.95816 2.29021C5.54614 2.98329 6.13133 3.67637 6.71929 4.36945C6.85561 4.52855 6.98916 4.68756 7.12548 4.84954C7.19364 4.68766 7.25902 4.52567 7.32718 4.36382H5.11725H1.59504H0.788318C0.421869 4.36382 0.421869 4.93186 0.788318 4.93186H2.99825H6.52046H7.32718C7.58853 4.93186 7.68224 4.62793 7.52889 4.44614C7.15965 4.01152 6.7932 3.57692 6.42398 3.1424C5.836 2.44932 5.25081 1.75624 4.66285 1.06316C4.52654 0.90406 4.39298 0.745053 4.25666 0.583069C4.16294 0.47231 3.94707 0.47231 3.85613 0.583069C3.48689 1.01769 3.12044 1.45229 2.75123 1.8868C2.16325 2.57989 1.57805 3.27297 0.990097 3.96605C0.853778 4.12515 0.720224 4.28416 0.583906 4.44614C0.484441 4.56265 0.470274 4.73303 0.583906 4.84667C0.680498 4.95179 0.882209 4.96883 0.981575 4.84955L0.98157 4.84954Z" fill="#212121" />
    <path d="M0.780273 4.65995L4.04963 0.796875L7.31899 4.65995H0.780273Z" fill="#212121" />
</svg>
        