<svg width="15" height="20" viewBox="0 0 15 20" fill="none" xmlns="http://www.w3.org/2000/svg">
<path d="M14.3101 12.7413C14.3071 14.4963 13.6457 16.1865 12.4562 17.4774C11.2667 18.7682 9.63653 19.5657 7.88726 19.712L7.89012 17.5169L10.581 14.8261C10.7762 14.5975 10.7629 14.2572 10.5504 14.0447C10.3378 13.8321 9.99753 13.8188 9.76879 14.0139L7.88009 15.9026L7.88281 13.3554L10.717 10.5213C10.8392 10.4169 10.9122 10.2664 10.9187 10.1059C10.925 9.94525 10.864 9.7895 10.7504 9.67586C10.6367 9.56221 10.481 9.50119 10.3205 9.50769C10.1598 9.51402 10.0093 9.587 9.90495 9.70926L7.89311 11.7211L7.8958 9.03822L9.46769 7.46633C9.58977 7.36213 9.66293 7.21146 9.66926 7.05079C9.67541 6.8903 9.61457 6.73438 9.5011 6.62091C9.38745 6.50726 9.23153 6.44642 9.07103 6.45257C8.91037 6.4589 8.7597 6.53206 8.6555 6.65414L7.90103 7.40861L7.90128 4.89411C7.90148 4.57752 7.64472 4.32076 7.32812 4.32095C7.01135 4.32098 6.75472 4.57762 6.75467 4.8944L6.75442 7.4089L6.0001 6.65458C5.77157 6.45938 5.4313 6.47275 5.2187 6.68535C5.0061 6.89795 4.99273 7.23822 5.18793 7.46675L6.76181 9.04063L6.73137 11.7362L4.71992 9.72472C4.49649 9.50129 4.13377 9.50133 3.91029 9.7248C3.68664 9.94846 3.68678 10.311 3.91021 10.5344L6.73385 13.3581L6.74869 15.9027L4.86301 14.0171C4.6343 13.822 4.29403 13.8354 4.08143 14.048C3.86883 14.2606 3.85546 14.6009 4.05066 14.8294L6.74082 17.5196L6.74061 19.712L6.74078 19.7122C4.99156 19.5663 3.36148 18.7691 2.17225 17.4784C0.983012 16.1878 0.321913 14.4977 0.319299 12.7427C0.319662 9.00605 2.31631 5.71716 3.96351 3.59225C4.96496 2.32352 6.0878 1.15543 7.31569 0.104336C8.54197 1.15696 9.66265 2.32676 10.6621 3.59669C12.3315 5.70359 14.3104 9.00511 14.3096 12.7413L14.3101 12.7413Z" fill="#0048AD"/>
</svg>
