<svg width="74" height="74" viewBox="0 0 74 74" fill="none" xmlns="http://www.w3.org/2000/svg">
<rect x="1.14795" y="1.40234" width="71.6199" height="72.0959" rx="35.8099" stroke="white" stroke-dasharray="6 6"/>
<path d="M36.6885 28.4959C34.9156 28.4959 33.1877 29.0537 31.7494 30.0903C30.3112 31.1269 29.2356 32.5898 28.6749 34.2717C28.1143 35.9536 28.0971 37.7693 28.6257 39.4615C29.1543 41.1538 30.202 42.6368 31.6203 43.7005V50.4582C31.6203 51.3543 31.9763 52.2137 32.6099 52.8473C33.2436 53.481 34.103 53.837 34.9991 53.837H38.3779C39.274 53.837 40.1334 53.481 40.7671 52.8473C41.4007 52.2137 41.7567 51.3543 41.7567 50.4582V43.7005C43.175 42.6368 44.2227 41.1538 44.7513 39.4615C45.2799 37.7693 45.2627 35.9536 44.7021 34.2717C44.1414 32.5898 43.0658 31.1269 41.6276 30.0903C40.1893 29.0537 38.4614 28.4959 36.6885 28.4959ZM39.2226 41.3185C38.9648 41.4673 38.7509 41.6816 38.6026 41.9397C38.4542 42.1978 38.3767 42.4906 38.3779 42.7882V50.4582H34.9991V42.7882C35.0003 42.4906 34.9228 42.1978 34.7744 41.9397C34.6261 41.6816 34.4122 41.4673 34.1544 41.3185C33.3859 40.8748 32.7474 40.2371 32.3027 39.4693C31.858 38.7014 31.6227 37.8302 31.6203 36.9429C31.6203 35.5987 32.1543 34.3096 33.1047 33.3591C34.0552 32.4086 35.3443 31.8747 36.6885 31.8747C38.0327 31.8747 39.3218 32.4086 40.2723 33.3591C41.2228 34.3096 41.7567 35.5987 41.7567 36.9429C41.7543 37.8302 41.519 38.7014 41.0743 39.4693C40.6296 40.2371 39.9911 40.8748 39.2226 41.3185ZM36.6885 26.8065C37.1366 26.8065 37.5663 26.6285 37.8831 26.3116C38.1999 25.9948 38.3779 25.5651 38.3779 25.117V21.7382C38.3779 21.2902 38.1999 20.8605 37.8831 20.5436C37.5663 20.2268 37.1366 20.0488 36.6885 20.0488C36.2404 20.0488 35.8107 20.2268 35.4939 20.5436C35.1771 20.8605 34.9991 21.2902 34.9991 21.7382V25.117C34.9991 25.5651 35.1771 25.9948 35.4939 26.3116C35.8107 26.6285 36.2404 26.8065 36.6885 26.8065ZM51.8932 35.2535H48.5144C48.0663 35.2535 47.6366 35.4315 47.3198 35.7483C47.0029 36.0651 46.8249 36.4948 46.8249 36.9429C46.8249 37.391 47.0029 37.8207 47.3198 38.1375C47.6366 38.4543 48.0663 38.6323 48.5144 38.6323H51.8932C52.3412 38.6323 52.7709 38.4543 53.0878 38.1375C53.4046 37.8207 53.5826 37.391 53.5826 36.9429C53.5826 36.4948 53.4046 36.0651 53.0878 35.7483C52.7709 35.4315 52.3412 35.2535 51.8932 35.2535ZM24.8627 35.2535H21.4838C21.0358 35.2535 20.6061 35.4315 20.2892 35.7483C19.9724 36.0651 19.7944 36.4948 19.7944 36.9429C19.7944 37.391 19.9724 37.8207 20.2892 38.1375C20.6061 38.4543 21.0358 38.6323 21.4838 38.6323H24.8627C25.3107 38.6323 25.7404 38.4543 26.0572 38.1375C26.3741 37.8207 26.5521 37.391 26.5521 36.9429C26.5521 36.4948 26.3741 36.0651 26.0572 35.7483C25.7404 35.4315 25.3107 35.2535 24.8627 35.2535ZM29.3565 27.516L26.9237 25.117C26.5944 24.8056 26.1549 24.6378 25.7018 24.6505C25.2487 24.6632 24.8193 24.8553 24.5079 25.1846C24.1965 25.5139 24.0287 25.9535 24.0413 26.4065C24.054 26.8596 24.2461 27.2891 24.5755 27.6005L27.0082 29.9488C27.1715 30.1064 27.3648 30.2295 27.5767 30.3108C27.7886 30.3921 28.0147 30.4298 28.2415 30.4218C28.469 30.4209 28.6941 30.3741 28.9031 30.2841C29.1121 30.1941 29.3008 30.0628 29.4578 29.8981C29.7594 29.5683 29.9181 29.1325 29.8991 28.6861C29.8801 28.2397 29.685 27.8189 29.3565 27.516ZM48.8353 25.2015C48.5188 24.8869 48.0906 24.7103 47.6443 24.7103C47.198 24.7103 46.7698 24.8869 46.4533 25.2015L44.0205 27.516C43.7059 27.8325 43.5293 28.2607 43.5293 28.707C43.5293 29.1534 43.7059 29.5815 44.0205 29.8981C44.1776 30.0628 44.3662 30.1941 44.5753 30.2841C44.7843 30.3741 45.0093 30.4209 45.2369 30.4218C45.6719 30.4201 46.0894 30.2506 46.4026 29.9488L48.8353 27.6005C48.9937 27.4434 49.1194 27.2566 49.2051 27.0507C49.2909 26.8448 49.3351 26.624 49.3351 26.401C49.3351 26.178 49.2909 25.9572 49.2051 25.7513C49.1194 25.5454 48.9937 25.3586 48.8353 25.2015Z" fill="white"/>
</svg>
