<svg width="18" height="20" viewBox="0 0 18 20" fill="none" xmlns="http://www.w3.org/2000/svg">
<path fill-rule="evenodd" clip-rule="evenodd" d="M10.25 18.75L10.25 3.91875L15.7 8.46C16.23 8.9025 17.0188 8.83 17.46 8.3C17.9025 7.76875 17.83 6.98125 17.3 6.53875L9.8 0.288756C9.74125 0.240006 9.6725 0.216255 9.6075 0.180006C9.555 0.150005 9.51 0.113756 9.4525 0.0912553C9.30875 0.0350057 9.1575 0.00125705 9.005 0.00125705C9.00375 0.00125705 9.00125 5.8264e-06 9 5.82639e-06C8.99875 5.82637e-06 8.99625 0.00125705 8.995 0.00125705C8.8425 0.00125705 8.69125 0.0350057 8.5475 0.0912553C8.49 0.113756 8.445 0.150005 8.3925 0.180006C8.3275 0.216255 8.25875 0.240006 8.2 0.288756L0.7 6.53875C0.40375 6.7875 0.25 7.1425 0.25 7.5C0.25 7.7825 0.345 8.06625 0.54 8.3C0.98125 8.83 1.77 8.9025 2.3 8.46L7.75 3.91875L7.75 18.75C7.75 19.44 8.31 20 9 20C9.69 20 10.25 19.44 10.25 18.75Z" fill="#0051BA"/>
</svg>
