<svg width="74" height="74" viewBox="0 0 74 74" fill="none" xmlns="http://www.w3.org/2000/svg">
<rect x="1.4292" y="1.40234" width="71.6199" height="72.0959" rx="35.8099" stroke="white" stroke-dasharray="6 6"/>
<g clip-path="url(#clip0_3530_8920)">
<path d="M24.0671 40.5112C23.8486 40.2927 23.5522 40.1699 23.2432 40.1699C22.9342 40.1699 22.6379 40.2927 22.4194 40.5112C22.2009 40.7297 22.0781 41.026 22.0781 41.335V45.9105C22.0781 46.9476 22.4901 47.9422 23.2234 48.6756C23.9568 49.4089 24.9514 49.8209 25.9885 49.8209H47.9508C48.9879 49.8209 49.9825 49.4089 50.7159 48.6756C51.4492 47.9422 51.8612 46.9476 51.8612 45.9105V41.335C51.8612 41.026 51.7384 40.7297 51.5199 40.5112C51.3014 40.2927 51.0051 40.1699 50.6961 40.1699C50.3871 40.1699 50.0907 40.2927 49.8722 40.5112C49.6537 40.7297 49.531 41.026 49.531 41.335V45.9105C49.531 46.3296 49.3645 46.7315 49.0682 47.0279C48.7718 47.3242 48.3699 47.4907 47.9508 47.4907H25.9885C25.5694 47.4907 25.1675 47.3242 24.8711 47.0279C24.5748 46.7315 24.4083 46.3296 24.4083 45.9105V41.335C24.4083 41.026 24.2856 40.7297 24.0671 40.5112Z" fill="white" stroke="white" stroke-width="0.5"/>
<path d="M43.2851 29.7115L37.7947 24.2212H36.1449L30.6546 29.7115C30.5463 29.8198 30.4604 29.9484 30.4018 30.0899C30.3432 30.2314 30.313 30.3831 30.313 30.5362C30.313 30.6894 30.3432 30.841 30.4018 30.9825C30.4604 31.124 30.5463 31.2526 30.6546 31.3609C30.7629 31.4692 30.8914 31.5551 31.0329 31.6137L31.1286 31.3827L31.0329 31.6137C31.1744 31.6723 31.3261 31.7025 31.4792 31.7025C31.6324 31.7025 31.784 31.6723 31.9255 31.6137L31.8299 31.3827L31.9255 31.6137C32.067 31.5551 32.1956 31.4692 32.3039 31.3609L32.3039 31.3608L35.8047 27.8584V43.3475C35.8047 43.6565 35.9275 43.9529 36.146 44.1714C36.3645 44.3899 36.6608 44.5126 36.9698 44.5126C37.2788 44.5126 37.5752 44.3899 37.7937 44.1714C38.0122 43.9529 38.1349 43.6565 38.1349 43.3475V27.8584L41.6357 31.3608L41.6357 31.3609C41.8544 31.5796 42.1511 31.7025 42.4604 31.7025C42.7697 31.7025 43.0663 31.5796 43.2851 31.3609C43.5038 31.1422 43.6266 30.8455 43.6266 30.5362C43.6266 30.2269 43.5038 29.9303 43.2851 29.7115ZM36.5233 23.9679C36.3818 24.0266 36.2533 24.1126 36.1451 24.221H37.7945C37.6863 24.1126 37.5578 24.0266 37.4164 23.9679C37.2748 23.9091 37.1231 23.8789 36.9698 23.8789C36.8166 23.8789 36.6648 23.9091 36.5233 23.9679Z" fill="white" stroke="white" stroke-width="0.5"/>
</g>
<defs>
<clipPath id="clip0_3530_8920">
<rect width="29.2831" height="29.2831" fill="white" transform="translate(22.3281 22.3008)"/>
</clipPath>
</defs>
</svg>
