<svg width="45" height="45" viewBox="0 0 45 45" fill="none" xmlns="http://www.w3.org/2000/svg">
<path d="M30 30L22.5 22.5L15 30" stroke="#0051BA" stroke-width="2" stroke-linecap="round" stroke-linejoin="round"/>
<path d="M22.5 22.5V39.375" stroke="#0051BA" stroke-width="2" stroke-linecap="round" stroke-linejoin="round"/>
<path d="M38.2315 34.4805C40.0602 33.4836 41.5049 31.906 42.3375 29.9967C43.1701 28.0875 43.3431 25.9554 42.8294 23.9368C42.3156 21.9183 41.1443 20.1284 39.5002 18.8495C37.8562 17.5706 35.8331 16.8757 33.7502 16.8743H31.3877C30.8202 14.6791 29.7624 12.6412 28.2939 10.9137C26.8254 9.18614 24.9843 7.81402 22.9092 6.90044C20.834 5.98686 18.5788 5.5556 16.3129 5.63908C14.0471 5.72256 11.8297 6.31861 9.82744 7.38242C7.82514 8.44623 6.09006 9.95012 4.75265 11.781C3.41523 13.6119 2.51027 15.7222 2.10582 17.9532C1.70136 20.1841 1.80793 22.4778 2.41751 24.6617C3.02708 26.8455 4.12381 28.8628 5.62523 30.5618" stroke="#0051BA" stroke-width="2" stroke-linecap="round" stroke-linejoin="round"/>
<path d="M30 30L22.5 22.5L15 30" stroke="#0051BA" stroke-width="2" stroke-linecap="round" stroke-linejoin="round"/>
</svg>
