<svg width="28" height="28" viewBox="0 0 28 28" fill="none" xmlns="http://www.w3.org/2000/svg">
<circle cx="14" cy="14" r="14" fill="#F5F5F5"/>
<path d="M19.3334 20V18.6667C19.3334 17.9594 19.0525 17.2811 18.5524 16.781C18.0523 16.281 17.374 16 16.6667 16H11.3334C10.6262 16 9.94789 16.281 9.4478 16.781C8.9477 17.2811 8.66675 17.9594 8.66675 18.6667V20" stroke="black" stroke-width="1.5" stroke-linecap="round" stroke-linejoin="round"/>
<path d="M13.9999 13.3333C15.4727 13.3333 16.6666 12.1394 16.6666 10.6667C16.6666 9.19391 15.4727 8 13.9999 8C12.5272 8 11.3333 9.19391 11.3333 10.6667C11.3333 12.1394 12.5272 13.3333 13.9999 13.3333Z" stroke="black" stroke-width="1.5" stroke-linecap="round" stroke-linejoin="round"/>
</svg>
