<svg width="27" height="29" viewBox="0 0 27 29" fill="none" xmlns="http://www.w3.org/2000/svg">
<path d="M8.42906 6.69143L8.47035 6.79132C8.98161 6.42843 9.54098 6.11674 10.1443 5.86729C10.7429 5.61983 11.3583 5.44303 11.9808 5.3363L11.9408 5.23957C11.5406 4.2714 10.4272 3.80935 9.45901 4.20962C8.49084 4.60989 8.02879 5.72326 8.42906 6.69143Z" fill="white"/>
<path d="M22.9811 15.7867C22.2471 15.1565 21.6639 14.3506 21.2943 13.4566L21.2085 13.249L7.52252 18.9069L7.60833 19.1145C7.97797 20.0086 8.13394 20.991 8.05942 21.9555L7.78596 25.4937L25.6732 18.0986L22.9811 15.7867Z" fill="white"/>
<path d="M6.57443 16.6059L7.09666 17.8691L20.7825 12.2109L20.2603 10.9478C18.6943 7.15992 14.3505 5.34734 10.5773 6.90727C6.80429 8.46714 5.00841 12.818 6.57443 16.6059Z" fill="white"/>
<path d="M17.9532 24.7386L18.0063 24.7167C19.1651 24.2376 19.7982 23.0189 19.5871 21.8321L14.7969 23.8125C15.4853 24.802 16.7943 25.2177 17.9532 24.7386L17.9532 24.7386Z" fill="white"/>
</svg>
